<?xml version="1.0" standalone="no"?>
<!DOCTYPE svg PUBLIC "-//W3C//DTD SVG 1.1//EN" "http://www.w3.org/Graphics/SVG/1.1/DTD/svg11.dtd" >
<svg xmlns="http://www.w3.org/2000/svg">
<metadata>
This is a custom SVG webfont generated by Font Squirrel.
Copyright   : Copyright c Music By Design 2007 All rights reserved
Foundry     : Music By Design
</metadata>
<defs>
<font id="MusicItalic" horiz-adv-x="519" >
<font-face units-per-em="1000" ascent="800" descent="-200" />
<missing-glyph horiz-adv-x="259" />
<glyph unicode=" "  horiz-adv-x="259" />
<glyph unicode="&#x09;" horiz-adv-x="259" />
<glyph unicode="&#xa0;" horiz-adv-x="259" />
<glyph unicode="!" horiz-adv-x="296" d="M137 46q0 -23 -17 -39.5t-40 -16.5t-40 16.5t-17 39.5t17.5 40.5t39.5 17.5q23 0 40 -17.5t17 -40.5zM214 657q12 52 41 52q16 0 39.5 -11.5t23.5 -26.5t-19 -64t-112 -272q-42 -101 -47 -101q-10 0 -14 2t-3 8q2 22 91 413z" />
<glyph unicode="&#x22;" horiz-adv-x="444" d="M223 698q46 0 46 -35q0 -21 -84 -181q-7 -15 -23 -15q-15 0 -15 14q0 9 31 175q8 42 45 42zM408 698q46 0 46 -35q0 -21 -84 -181q-8 -15 -23 -15t-15 14q0 9 31 175q8 42 45 42z" />
<glyph unicode="#" d="M498 254l-24 -68h-107l-62 -186h-71l62 186h-117l-63 -186h-71l63 186h-103l24 68h102l60 181h-113l24 68h112l63 186h71l-62 -186h114l62 186h71l-62 -186h99l-24 -68h-97l-60 -181h109zM378 435h-116l-60 -181h116z" />
<glyph unicode="$" d="M297 301l-71 -282h12q63 0 109 38t46 99q0 14 -1.5 23.5t-8 27.5t-23.5 38t-44 41zM294 419l69 272h-17q-52 0 -86.5 -24.5t-45.5 -51.5t-11 -52q0 -38 21.5 -70.5t69.5 -73.5zM395 684l-74 -288l38 -29l32 -26l25 -20q17 -14 22 -20l15 -17q10 -12 12 -19l7 -18 q4 -12 5 -23.5t1 -26.5q0 -28 -12 -60.5t-37.5 -66.5t-75.5 -56t-116 -22h-18q-15 -70 -24 -70q-21 0 -21 12q0 3 15 63q-36 7 -79 25.5t-52 18.5q-16 0 -25 -10.5t-14 -10.5t-5 6q0 33 8 108.5t8 77.5q0 9 14 9q3 0 5.5 -3.5t5 -10.5t4 -14.5t4.5 -18.5l5 -17 q36 -114 127 -133l75 299q-80 62 -113 105.5t-33 93.5q0 87 63 142t151 55q22 0 31 -2q11 44 13 51t6 7q28 0 28 -10q0 -12 -14 -54q26 -6 60.5 -20.5t45.5 -14.5t21 10.5t13 10.5q10 0 10 -8q0 -9 -4 -74t-4 -75q0 -28 -13 -28q-8 0 -10.5 4t-6.5 20q-29 121 -119 148z" />
<glyph unicode="%" horiz-adv-x="926" d="M267 365q-57 0 -95.5 43t-38.5 104q0 71 52 128t136 57q57 0 95.5 -43t38.5 -104q0 -71 -52 -128t-136 -57zM275 391q53 0 82.5 59.5t29.5 118.5q0 40 -17.5 71t-55.5 31q-37 0 -64 -32.5t-38 -71.5t-11 -74q0 -40 18 -71t56 -31zM653 -8q-57 0 -95.5 43t-38.5 104 q0 71 52 128t136 57q57 0 95.5 -43t38.5 -104q0 -71 -52 -128t-136 -57zM661 18q53 0 82.5 59.5t29.5 118.5q0 40 -17.5 71t-55.5 31q-37 0 -64 -32.5t-38 -71.5t-11 -74q0 -40 18 -71t56 -31zM308 0h-40l397 689h40z" />
<glyph unicode="&#x26;" horiz-adv-x="796" d="M185 128l125 277q-34 19 -60 19q-35 0 -59.5 -20t-34.5 -50.5t-14 -53t-4 -41.5q0 -76 47 -131zM645 392q0 -29 -8.5 -73.5t-33 -103.5t-61 -108.5t-101 -84t-144.5 -34.5q-101 0 -156 62t-55 157q0 94 61 181q36 51 81 73t72 22q26 0 43 -7q52 109 64.5 140.5t12.5 52.5 q0 7 -13 23t-13 38q0 19 14.5 31.5t33.5 12.5q46 0 46 -45q0 -17 -22 -64l-191 -408q-61 -135 -61 -149q0 -6 15.5 -17t47.5 -21t68 -10q109 0 184.5 86t88.5 257q-80 44 -103 44q-13 0 -32 -15t-19 -28q0 -8 21 -26t21 -34q0 -48 -50 -48q-19 0 -29 17t-10 37q0 49 47 98 t94 49q29 0 93 -31q64 -32 99 -32q15 0 15 13q0 5 -18 22t-18 30q0 17 12.5 29t28.5 12q17 0 31 -11.5t14 -29.5q0 -53 -35.5 -82t-89.5 -29q-17 0 -45 4z" />
<glyph unicode="'" horiz-adv-x="259" d="M223 698q46 0 46 -35q0 -21 -84 -181q-7 -15 -23 -15q-15 0 -15 14q0 9 31 175q8 42 45 42z" />
<glyph unicode="(" horiz-adv-x="333" d="M174 136q0 -147 63 -264l19 -34l13 -24l9 -14t5 -9.5t1 -6.5q0 -11 -15 -11q-18 0 -75 90q-94 149 -94 303q0 195 112 343q45 61 102 111.5t91 71.5t41 21q4 0 8.5 -3.5t4.5 -6.5q0 -2 -1 -3.5t-4 -4.5l-7 -5q-3 -3 -9 -8l-12 -9q-61 -49 -107 -108.5t-73 -115 t-44 -115.5t-22.5 -106.5t-5.5 -91.5z" />
<glyph unicode=")" horiz-adv-x="333" d="M199 403q0 68 -17.5 146t-53.5 128q-11 16 -11 22q0 5 4 9.5t7 4.5q13 0 42 -39q41 -55 71 -139.5t30 -163.5q0 -92 -30.5 -180.5t-83 -161.5t-115.5 -132t-137 -107q-23 -15 -28 -15q-11 0 -11 9q0 7 32 31q83 62 144.5 141.5t94 160t47.5 151.5t15 135z" />
<glyph unicode="*" horiz-adv-x="389" d="M285 565q0 1 -1.5 17t-1.5 24q0 36 12 75t39 39q10 0 16.5 -9t6.5 -19q0 -24 -11 -49.5t-20 -38.5t-29 -39l2 -2q21 11 54.5 22t54.5 11q17 0 33 -7.5t16 -22.5q0 -17 -19 -26t-38 -9q-48 0 -99 17l-2 -2q22 -18 44.5 -53t22.5 -61q0 -35 -27 -35q-25 0 -40.5 50 t-13.5 95h-2q-3 -4 -20 -29.5t-27 -37t-29 -24.5t-39 -13q-21 0 -21 27q0 28 49.5 56.5t81.5 33.5v2q-139 26 -139 71q0 29 26 29q23 0 43.5 -14t46 -43.5t31.5 -34.5z" />
<glyph unicode="+" d="M250 250v190h60v-190h190v-60h-190v-190h-60v190h-190v60h190z" />
<glyph unicode="," horiz-adv-x="259" d="M72 112q44 0 66.5 -30.5t22.5 -76.5q0 -33 -13 -64.5t-32 -53.5t-39 -39t-34 -25t-17 -8q-11 0 -11 12q0 5 24 23.5t48 48t24 60.5q0 25 -14 37.5t-31 14.5t-31 15t-14 39q0 18 16.5 32.5t34.5 14.5z" />
<glyph unicode="-" horiz-adv-x="389" d="M53 258h290q7 0 7 -8q0 -10 -6 -31t-11 -21h-291q-7 0 -7 7q0 10 6.5 31.5t11.5 21.5z" />
<glyph unicode="." horiz-adv-x="259" d="M154 46q0 -23 -17 -39.5t-40 -16.5t-40 16.5t-17 39.5t17.5 40.5t39.5 17.5q23 0 40 -17.5t17 -40.5z" />
<glyph unicode="/" horiz-adv-x="352" d="M50 0h-70l405 709h70z" />
<glyph unicode="0" d="M211 18q56 0 95 62q49 76 96 239.5t47 242.5q0 38 -9 62.5t-24.5 33t-25.5 11t-23 2.5q-56 0 -95 -62q-49 -76 -96 -239.5t-47 -242.5q0 -38 9 -62.5t24.5 -33t25.5 -11t23 -2.5zM208 -8q-74 0 -111 68.5t-37 155.5q0 46 11.5 106t37.5 126t61 121.5t87.5 91.5t112.5 36 q74 0 111 -68.5t37 -155.5q0 -46 -11.5 -106t-37.5 -126t-61 -121.5t-87.5 -91.5t-112.5 -36z" />
<glyph unicode="1" d="M274 599h-59q-16 0 -16 7q0 12 3 16t12 6q46 9 91 26t70 30t27 13q8 0 11.5 -1.5t4 -3.5t0.5 -8q0 -4 -77 -303.5t-77 -323.5q0 -22 11 -26t63 -4q11 0 14.5 -3.5t3.5 -12.5q0 -13 -11 -13q-6 0 -46.5 1t-90.5 1q-47 0 -86 -1t-41 -1q-6 0 -6 15q0 10 9.5 12t49.5 2 q32 0 46 57q114 457 118 484q1 8 1 13q0 6 -7 12t-18 6z" />
<glyph unicode="2" d="M367 0h-321q-8 0 -8 5q0 7 137 163l90 103q32 36 49.5 58t40.5 55.5t33.5 65t10.5 62.5q0 54 -35.5 87t-89.5 33q-28 0 -55 -11.5t-43 -24.5l-28 -25q-13 -12 -16 -12q-5 0 -9 5t-4 10q0 1 9 13.5t27 31t41.5 36t57 30t67.5 12.5q70 0 116.5 -42t46.5 -110 q0 -16 -3 -32.5t-12 -34.5l-15 -32q-6 -13 -21 -33l-22 -30q-7 -9 -26 -30l-24 -27l-27 -27l-23 -24q-179 -186 -179 -193q0 -6 9 -6h210q20 0 39 14t31 28t16 14q13 0 13 -8q0 -3 -4 -9t-20 -33l-35 -58q-14 -24 -24 -24z" />
<glyph unicode="3" d="M310 392q51 -14 82.5 -54.5t31.5 -87.5q0 -64 -35 -114t-83 -77t-105 -44.5t-94 -23t-56 -5.5q-10 0 -10 19q0 3 10.5 6t25 5.5t17.5 3.5q66 18 114 41t71.5 42t36.5 43.5t15.5 37t2.5 29.5q1 58 -30.5 91.5t-82.5 33.5q-26 0 -54 -8t-32 -8q-2 0 -4.5 4.5t-2.5 8.5 t17 12l47 17q15 5 47.5 18.5t50 24t42 27t37.5 33t22.5 38t9.5 45.5q0 37 -25 59.5t-62 22.5q-32 0 -61 -16t-45.5 -31.5t-19.5 -15.5q-14 0 -14 10q0 11 27 38.5t72 53.5t83 26q55 0 91 -30t36 -70q0 -58 -53.5 -113t-119.5 -92z" />
<glyph unicode="4" d="M306 306l81 285q-26 -17 -154.5 -143.5t-128.5 -136.5q0 -5 9 -5h193zM363 238l-62 -238h-76l61 238h-245q-22 0 -22 13q0 7 72 87q184 204 366 346q15 13 25 13q9 0 9 -8q0 -4 -6 -24l-98 -359h119l-20 -68h-123z" />
<glyph unicode="5" d="M441 602q-18 0 -84 8q-59 9 -90 9q-13 0 -27.5 -20.5t-14.5 -46.5q0 -18 86 -91q91 -78 91 -173q0 -118 -103.5 -211t-221.5 -93q-6 0 -6 18q0 4 31 13q67 20 113.5 54.5t67 72t28 64.5t7.5 48q0 17 -2.5 31t-13.5 41t-41 60t-77 69q-18 14 -18 29q0 2 0.5 4t2 6l3.5 9 l6 13l8 18l12 25l16 32l19 41l24 50q6 15 14 15q4 0 81 -11t97 -11q24 0 31 3t17 15l3 6q3 6 6 10t5 4q16 0 16 -11q0 -10 -44 -86q-8 -14 -42 -14z" />
<glyph unicode="6" d="M209 354q-21 -42 -41 -118.5t-20 -120.5q0 -97 76 -97q51 0 85.5 43.5t47 98.5t12.5 114q0 122 -103 122q-20 0 -32.5 -10t-24.5 -32zM243 416q22 6 61 6q73 0 112.5 -54t39.5 -123q0 -38 -14.5 -81t-41 -82t-71 -64.5t-97.5 -25.5q-81 0 -120.5 56t-35.5 133 q3 55 23 119.5t57 134.5t102.5 131t147.5 94q31 13 73.5 25t52.5 12q14 0 14 -16q0 -2 -5 -5.5t-14 -6.5l-16 -7q-7 -3 -14.5 -5.5t-8.5 -3.5q-54 -23 -99.5 -57t-74 -70t-44.5 -61.5t-27 -48.5z" />
<glyph unicode="7" d="M207 689h301q7 0 18.5 4t14.5 4q8 0 8 -9q0 -4 -4 -13.5t-15 -33.5l-24 -51l-39 -81l-52 -108l-80 -168q-39 -80 -47 -98.5t-7 -30.5q0 -8 19 -27.5t20 -37.5q-2 -45 -47 -45q-50 0 -50 59q0 24 35 94q222 460 222 461q0 9 -14 9h-244q-16 0 -59 -51t-46 -51q-14 0 -14 9 q0 3 6 23.5t15.5 49.5t13.5 45q8 27 14 41.5t9.5 17t8.5 2.5t16 -7t21 -7z" />
<glyph unicode="8" d="M270 321q-64 -43 -100.5 -90.5t-36.5 -111.5q0 -44 21.5 -72.5t66.5 -28.5q52 0 83.5 46.5t31.5 101.5q0 58 -66 155zM256 339q-33 38 -55 87.5t-22 91.5q0 74 55.5 126.5t129.5 52.5q59 0 102.5 -34.5t43.5 -91.5q0 -37 -13 -67t-43 -57t-48.5 -40t-60.5 -39 q72 -94 72 -176t-61 -141t-143 -59q-61 0 -101.5 37.5t-40.5 100.5q0 33 14.5 62.5t43.5 55.5t51 41.5t60 39.5zM332 385q116 88 116 187q0 42 -22 70.5t-70 28.5q-46 0 -75 -34.5t-29 -81.5q0 -11 2.5 -23t5 -21.5t9.5 -23.5l11 -21q3 -7 13 -22l13 -20l14 -21 q11 -16 12 -18z" />
<glyph unicode="9" d="M430 575q0 41 -19.5 68.5t-59.5 27.5q-39 0 -68.5 -29.5t-44.5 -73t-22 -82.5t-7 -68q0 -68 28.5 -96t81.5 -28q21 0 31 7t21 34q59 140 59 240zM334 270q-20 -2 -36 -2q-89 0 -132.5 49.5t-43.5 119.5q0 95 65.5 177.5t158.5 82.5q77 0 116.5 -54.5t39.5 -133.5 q0 -115 -64.5 -229t-156.5 -187q-45 -36 -128 -71.5t-110 -35.5q-12 0 -12 15q0 4 16 11q112 44 179.5 105t107.5 153z" />
<glyph unicode=":" horiz-adv-x="259" d="M154 46q0 -23 -17 -39.5t-40 -16.5t-40 16.5t-17 39.5t17.5 40.5t39.5 17.5q23 0 40 -17.5t17 -40.5zM223 368q0 -23 -17 -39.5t-40 -16.5t-40 16.5t-17 39.5t17.5 40.5t39.5 17.5q23 0 40 -17.5t17 -40.5z" />
<glyph unicode=";" horiz-adv-x="259" d="M72 112q44 0 66.5 -30.5t22.5 -76.5q0 -33 -13 -64.5t-32 -53.5t-39 -39t-34 -25t-17 -8q-11 0 -11 12q0 5 24 23.5t48 48t24 60.5q0 25 -14 37.5t-31 14.5t-31 15t-14 39q0 18 16.5 32.5t34.5 14.5zM223 368q0 -23 -17 -39.5t-40 -16.5t-40 16.5t-17 39.5t17.5 40.5 t39.5 17.5q23 0 40 -17.5t17 -40.5z" />
<glyph unicode="&#x37e;" horiz-adv-x="259" d="M72 112q44 0 66.5 -30.5t22.5 -76.5q0 -33 -13 -64.5t-32 -53.5t-39 -39t-34 -25t-17 -8q-11 0 -11 12q0 5 24 23.5t48 48t24 60.5q0 25 -14 37.5t-31 14.5t-31 15t-14 39q0 18 16.5 32.5t34.5 14.5zM223 368q0 -23 -17 -39.5t-40 -16.5t-40 16.5t-17 39.5t17.5 40.5 t39.5 17.5q23 0 40 -17.5t17 -40.5z" />
<glyph unicode="&#x3c;" d="M133 220l367 -155v-75l-440 197v66l440 197v-75z" />
<glyph unicode="=" d="M60 263v60h440v-60h-440zM60 117v60h440v-60h-440z" />
<glyph unicode="&#x3e;" d="M427 220l-367 155v75l440 -197v-66l-440 -197v75z" />
<glyph unicode="?" horiz-adv-x="426" d="M416 571q0 -22 -6 -42t-13 -33.5t-23.5 -30.5t-25.5 -24.5t-32.5 -25t-30.5 -23.5q-78 -61 -97 -83.5t-19 -60.5q0 -4 3.5 -13.5t17 -21t34.5 -11.5q14 0 29 6t25 12l10 7q5 0 9 -5t4 -7q0 -10 -31.5 -24.5t-57.5 -14.5q-39 0 -67.5 30t-28.5 70q0 19 2.5 34.5t11.5 29.5 l14 24q6 10 22 24l25 20l31.5 22.5t33.5 24.5l20 14q15 11 20 15l18 14q13 10 18 15.5t15 15t14 16t9 16t7 18.5t2 18q0 36 -21.5 54t-40.5 18q-24 0 -52.5 -25.5t-49.5 -25.5q-18 0 -29.5 10t-11.5 28q0 28 22.5 40.5t52.5 12.5q71 0 119 -35t48 -103zM186 46 q0 -23 -17 -39.5t-40 -16.5t-40 16.5t-17 39.5t17.5 40.5t39.5 17.5q23 0 40 -17.5t17 -40.5z" />
<glyph unicode="@" horiz-adv-x="775" d="M465 426q0 38 -16.5 60t-48.5 22q-44 0 -77 -83t-33 -150q0 -41 9.5 -63t38.5 -22q33 0 64 46t47 100t16 90zM678 185h73q-50 -91 -140 -145t-197 -54q-158 0 -267 107.5t-109 260.5q0 154 109 261.5t267 107.5q149 0 241 -75t92 -214q0 -108 -64 -192.5t-156 -84.5 q-54 0 -72 21t-20 61h-2q-29 -43 -54 -62.5t-69 -19.5q-48 0 -79 33.5t-31 79.5q0 99 62 185t135 86q32 0 53.5 -17.5t27.5 -46.5l2 -2l15 56h81l-73 -292q-4 -14 6 -31.5t30 -17.5q50 0 96.5 69.5t46.5 169.5q0 112 -70.5 177t-197.5 65q-130 0 -220.5 -93t-90.5 -224 q0 -130 90.5 -223t220.5 -93q84 0 159 42.5t105 104.5z" />
<glyph unicode="A" horiz-adv-x="685" d="M273 318h199q8 0 10 12l40 288l-2 2q-92 -94 -131 -140q-124 -145 -124 -156q0 -6 8 -6zM460 285h-216q-6 0 -11.5 -3.5t-26.5 -26.5t-54 -67q0 -1 -10 -14l-16 -20l-15 -22t-14.5 -25t-9 -22.5t-4.5 -22.5q0 -38 81 -38q13 0 13 -8q0 -3 -2.5 -10.5t-6.5 -7.5 q-2 0 -11.5 0.5t-35.5 1t-69 0.5q-41 0 -66.5 -0.5t-35 -1t-12.5 -0.5q-4 0 -5 1.5t-1 8.5q0 16 12 16q9 0 24.5 4t20.5 9q37 40 73 84l77 95l51 64l53 66l47 57l37 44l35 42l29 33l30 34l28 30l34 35l36 34q78 75 92 75q11 0 11 -17q0 -3 -7.5 -64.5t-19.5 -152t-22 -155.5 q-34 -238 -34 -281q0 -36 70 -36q16 0 16 -8q0 -18 -14 -18q-1 0 -13 0.5t-40 1t-69 0.5h-59q-26 0 -39 -0.5t-21 -1t-11 -0.5h-5q-6 0 -6 7q0 12 4.5 15.5t24.5 3.5q44 0 54.5 12.5t19.5 64.5q21 123 21 176q0 8 -12 8z" />
<glyph unicode="B" horiz-adv-x="611" d="M240 303l-19 -73q-15 -58 -24.5 -102.5t-9.5 -69.5q0 -34 51 -34q55 0 96 18.5t62 44t33.5 58t15.5 53.5t3 38q0 67 -45 93t-123 26q-20 0 -25.5 -7t-14.5 -45zM505 704q51 -12 78.5 -52.5t27.5 -94.5q0 -87 -63.5 -135t-156.5 -58l-2 -2q70 -11 111.5 -51t41.5 -108 q0 -17 -3.5 -37t-18.5 -51.5t-39.5 -56t-72.5 -42.5t-112 -18q-36 0 -95.5 1t-114.5 1q-24 0 -41 -0.5t-25.5 -1t-10.5 -0.5q-4 0 -4 10q0 16 10 16q65 0 72 29l104 404q33 136 38.5 164.5t5.5 44.5q0 8 -3 11.5t-19.5 6.5t-51.5 3q-17 0 -21 3.5t-4 10.5q0 12 7 12 q26 0 78.5 -1t64.5 -1q21 0 60.5 1t41.5 1q78 0 117 -9zM328 651l-21 -81l-16 -61l-12 -43q-6 -21 -8.5 -31t-4.5 -19.5t-2.5 -14t-0.5 -9.5q0 -11 22 -11q40 0 58.5 1t42.5 6.5t48 18.5q28 15 47 38.5t26.5 47t10 37t2.5 23.5q0 69 -43 100t-114 31q-12 0 -17 -1.5t-9 -8 t-9 -23.5z" />
<glyph unicode="C" horiz-adv-x="667" d="M628 582q-19 112 -155 112q-68 0 -124 -43.5t-88.5 -105.5t-55 -133t-31 -121t-8.5 -75q0 -87 45 -139t138 -52q15 0 35.5 5t50.5 18.5t60 44t49 74.5q8 19 20 19q16 0 16 -9q0 -34 -37 -145q-7 -20 -28 -25q-66 -15 -161 -15q-58 0 -106.5 15.5t-89 48t-63.5 91.5 t-23 139q0 42 12.5 94.5t42.5 113t73.5 110.5t112.5 84t151 35q45 1 91 -16t76 -34t37 -17q2 0 13 7.5t17 7.5q12 0 12 -12q0 -3 -3.5 -14.5t-14 -50t-22.5 -93.5q-4 -16 -17 -16q-8 0 -11.5 9.5t-7 40t-6.5 47.5z" />
<glyph unicode="D" horiz-adv-x="778" d="M227 660q0 8 -4 12.5t-22.5 8.5t-55.5 6q-17 1 -17 11q0 15 14 15q16 0 63 -1t71 -1q58 0 95 0.5t52 1t19 0.5q136 0 226.5 -84t90.5 -222q0 -79 -34.5 -159t-87.5 -134q-69 -70 -143.5 -93t-200.5 -23q-54 0 -96.5 0.5t-63.5 1t-22 0.5q-5 0 -45.5 -1t-47.5 -1 q-5 0 -5 8q0 18 15 18q46 0 57 9.5t22 59.5q120 547 120 567zM191 55q0 -11 5 -16.5t27.5 -8.5t69.5 -3q158 0 261 117t103 277q0 127 -69.5 195t-201.5 68q-38 0 -48 -7t-20 -44q-127 -565 -127 -578z" />
<glyph unicode="E" horiz-adv-x="630" d="M233 31h209q9 0 16 2.5t15.5 9.5t14.5 14t16 22l19 27l23 36l28 43q2 4 9 4q14 0 14 -6t-16 -83t-16 -88q0 -14 -22 -14q-4 0 -27.5 0.5t-97 1t-198.5 0.5h-98q-42 0 -63.5 -0.5t-35 -1t-18.5 -0.5h-5q-9 0 -9 8q0 6 1 9.5t4.5 6t10.5 2.5q68 0 75 30q151 586 150 596 q0 9 -1.5 12.5t-6 8t-16 6.5t-30.5 3q-46 3 -49 8q-1 1 -1 3q0 22 7 22q4 0 166 -1t195 -1q26 0 69 1t52 1q7 0 11.5 -4.5t4.5 -10.5q2 -34 5 -72l5 -62q2 -23 2 -29q0 -11 -18 -11q-4 0 -12 16l-25 50q-17 34 -33 61q-17 29 -46 29h-140q-28 0 -37 -15.5t-26 -83.5 q-43 -171 -43 -181q0 -9 15 -9h134q38 0 60 47q31 69 40 69q18 0 18 -7q0 -5 -10 -33l-29 -89q-20 -60 -38 -124q-8 -30 -16 -30q-17 0 -17 9q0 1 1 8.5t2.5 22t1.5 33.5q0 36 -12.5 50t-43.5 15q-99 3 -107 3q-4 0 -9 -5t-6 -9q-69 -278 -69 -291q0 -29 53 -29z" />
<glyph unicode="F" horiz-adv-x="593" d="M511 680h-140q-28 0 -37 -15.5t-26 -83.5q-44 -175 -44 -189q0 -9 15 -9h134q38 0 60 47q31 69 40 69q18 0 18 -7q0 -5 -9 -33l-30 -89q-20 -60 -38 -124q-8 -30 -16 -30q-17 0 -17 9q0 1 1.5 8.5t2.5 22t1 33.5q0 36 -12.5 50t-43.5 15q-99 3 -107 3q-2 0 -8 -6 q-7 -5 -6 -3v3l-17 -69l-14 -57l-11 -45l-9.5 -36t-6.5 -27l-4 -21q-2 -7 -3.5 -15t-1.5 -13l-1 -9q-1 -4 -1 -9q0 -26 95 -26q5 0 5 -10q0 -16 -17 -16q-14 0 -51 1t-89 1q-43 0 -71 -0.5t-39 -1t-13 -0.5q-9 0 -9 8q0 6 1 9.5t4.5 6t10.5 2.5q68 0 75 30q151 586 150 596 q0 9 -1.5 12.5t-6 8t-16 6.5t-30.5 3q-46 3 -49 8q-1 1 -1 3q0 22 7 22q4 0 166 -1t195 -1q26 0 69 1t52 1q7 0 11.5 -4.5t4.5 -10.5q2 -34 5 -72l5 -62q2 -23 2 -29q0 -11 -18 -11q-4 0 -12 16l-25 50q-17 34 -33 61q-17 29 -46 29z" />
<glyph unicode="G" horiz-adv-x="759" d="M527 98q32 107 32 166q0 10 -11.5 13.5t-52.5 6.5q-51 3 -51 9q0 14 3 17t12 3q10 0 55.5 -1.5t110.5 -1.5q35 0 61 1t38 1.5t14 0.5q6 0 6 -12q0 -17 -13 -17q-44 0 -57 -6.5t-20 -24.5q-10 -27 -25 -100t-15 -97q0 -9 2 -12t13.5 -5t37.5 -2q6 0 6 -7q0 -18 -9 -20 q-144 -18 -278 -18q-54 0 -100 10q-105 24 -159.5 106t-54.5 172q0 107 55.5 209t154.5 168t213 66q48 0 91.5 -14t71.5 -28t39 -14q14 0 26.5 10.5t18.5 10.5q11 0 11 -10q0 -1 -2 -10l-11 -50l-21 -100q-2 -12 -15 -12q-5 0 -8.5 1t-5.5 5t-2.5 6t-0.5 8v9q-7 77 -55 116 t-124 39q-178 0 -275 -217q-58 -128 -58 -230q0 -103 57.5 -163t161.5 -59q67 1 93 15t40 62z" />
<glyph unicode="H" horiz-adv-x="796" d="M279 390h320q11 0 13.5 3t5.5 16q58 231 58 243q0 8 -2 13.5t-18 12t-46 6.5q-25 0 -25 14q0 15 12 15q3 0 17 -1t43 -2t69 -1q44 0 73.5 1t40.5 2l11 1q11 0 11 -6q0 -8 -1.5 -12t-10.5 -7.5t-26 -3.5q-24 0 -36.5 -11t-20.5 -42q-136 -532 -136 -573q0 -19 18.5 -26.5 t65.5 -7.5q10 0 10 -7q0 -19 -14 -19h-9q-8 1 -34.5 1.5t-70.5 0.5h-64q-28 0 -43.5 -0.5t-25.5 -1t-14 -0.5h-7q-8 0 -8 9q0 17 9 17q53 0 69 12.5t27 57.5l41 162l20 78q3 14 3 15q0 8 -20 8h-316q-15 0 -18 -15q-62 -270 -62 -284q0 -17 18 -25.5t68 -8.5q10 0 10 -13 q0 -8 -2.5 -10.5t-11.5 -2.5q-1 0 -13.5 0.5t-45.5 1t-83 0.5q-40 0 -68 -0.5t-40.5 -1t-16.5 -0.5q-10 0 -10 8q0 11 4 13.5t20 4.5q45 4 56.5 12.5t21.5 50.5l42 166l33 131l24 94l17 72l11 46q5 22 6.5 33.5t1.5 20.5q0 20 -14.5 27t-53.5 7q-21 0 -21 12q0 17 10 17 q5 0 55 -2t80 -2q31 0 76 2t47 2q5 0 6.5 -2.5t1.5 -12.5q0 -8 -3 -11t-11 -3q-34 0 -51.5 -9.5t-25.5 -36.5q-61 -214 -61 -240q0 -8 14 -8z" />
<glyph unicode="I" horiz-adv-x="352" d="M319 620q-130 -539 -130 -562q0 -12 3.5 -18t24.5 -11t64 -5q8 0 8 -8q0 -18 -12 -18q-43 0 -90 1t-59 1q-11 0 -53.5 -1t-81.5 -1q-6 0 -7 2t-1 10q0 14 8 14q61 0 76.5 10t25.5 51q135 531 135 556q0 9 -1 14.5t-6 13.5t-17.5 11.5t-33.5 3.5q-32 0 -32 13q0 4 3 10 t7 6q7 0 58.5 -2t77.5 -2q12 0 60 2t63 2q8 0 8 -11q0 -5 -3 -11.5t-6 -6.5q-49 0 -64 -11.5t-25 -52.5z" />
<glyph unicode="J" horiz-adv-x="481" d="M271 335h-120q-9 0 -9 4q0 8 4 24q1 5 9 5h127q10 0 12 4q4 6 22 48l44 103q27 60 54 105l-2 2q-20 -11 -62 -11q-41 0 -107 22t-87 22q-18 0 -29.5 -9.5t-11.5 -21.5q0 -3 22 -19.5t22 -34.5q0 -39 -44 -39q-43 0 -43 53q0 42 44 86.5t118 44.5q54 0 193 -60 q13 74 57 74q41 0 41 -32q0 -19 -11 -33t-37 -33q-92 -240 -92 -262q0 -9 9 -9h76q6 0 6 -7q0 -3 -1.5 -8.5t-5.5 -11.5t-10 -6h-71q-13 0 -18 -13l-117 -355q-19 -57 -51.5 -105.5t-90 -85.5t-126.5 -37q-36 0 -67 17.5t-31 50.5q0 23 14 36t38 13q19 0 31.5 -13t18 -29 t14.5 -29t20 -13q20 0 38.5 11.5t34 33.5t28 44.5t24.5 54.5t19 54l16 51q9 30 12 38l71 226q14 42 14 46t-9 4z" />
<glyph unicode="K" horiz-adv-x="667" d="M93 77l34 137l29 112l22 90l18 72l13 54l10 41q4 15 6.5 28.5t3.5 21.5t1 15q0 21 -10.5 26.5t-57.5 10.5q-8 1 -13 2q-8 0 -8 12q0 14 15 14q4 0 60 -2t85 -2q14 0 57 2t54 2q6 0 6 -16q0 -9 -7.5 -11.5t-42.5 -5.5q-27 -2 -36 -27q-8 -21 -24.5 -84.5t-29 -117 t-12.5 -55.5q0 -8 5 -8q12 0 59 30q46 29 141 110t121 111q13 15 13 28q0 16 -52 20q-14 1 -14 9q0 17 7 17t51.5 -2t58.5 -2q17 0 58.5 2t44.5 2q8 0 8 -5q0 -24 -19 -24q-8 0 -50 -14q-14 -5 -34 -20t-94 -77l-53 -44l-103 -85q-47 -39 -47 -42q-1 -7 124 -206l60 -95 q18 -28 31.5 -44t29 -23t26 -8.5t33.5 -1.5q7 0 7 -8q0 -18 -12 -18q-21 0 -66.5 1t-66.5 1h-70q-30 0 -46 -0.5t-26 -1t-14 -0.5h-5q-10 0 -10 3q-1 13 2.5 17.5t17.5 5.5q44 2 56 8t12 25q0 15 -34 77q-60 108 -90 158t-38.5 60t-14.5 10q-12 0 -17.5 -9t-13.5 -45 q-11 -50 -26.5 -112.5t-21 -89.5t-5.5 -42q0 -24 14.5 -30.5t63.5 -9.5q15 -1 15 -5q0 -14 -3.5 -17.5t-14.5 -3.5q-16 0 -58.5 1t-66.5 1q-23 0 -68.5 -1t-68.5 -1q-7 0 -7 8q0 18 18 18q43 0 56.5 9t23.5 44z" />
<glyph unicode="L" horiz-adv-x="611" d="M233 31h189q9 0 16 2.5t15.5 9.5t14.5 14t17 22l18 27l24 36l27 43q2 4 9 4q14 0 14 -6t-16 -83t-16 -88q0 -14 -22 -14q-5 0 -27 0.5t-90.5 1t-185.5 0.5h-98q-42 0 -63.5 -0.5t-35 -1t-18.5 -0.5h-5q-9 0 -9 8q0 6 1 9.5t4.5 6t10.5 2.5q68 0 75 30q146 581 146 602 q0 9 -3.5 13.5t-22.5 9.5t-56 8q-15 1 -15 7q0 19 10 19q22 0 62.5 -2t74.5 -2q31 0 89.5 2t60.5 2q7 0 7 -10q0 -12 -8 -16t-44 -4q-39 0 -51 -25q-26 -60 -89 -312t-63 -286q0 -29 53 -29z" />
<glyph unicode="M" horiz-adv-x="928" d="M213 647q0 20 -30 27l-77 15q-10 3 -10 13q0 11 11 11q4 0 45 -2t59 -2q7 0 50 2t50 2q12 0 14 -10q66 -352 85 -490q8 -52 12 -52t14 12l176 261q146 219 181 264q12 15 20 15q2 0 36.5 -2t42.5 -2q4 0 40 2t53 2q6 0 6 -11q0 -16 -10 -17q-33 -2 -60 -10 q-28 -8 -40 -71q-25 -125 -55 -260l-43 -198q-14 -63 -14 -79q0 -33 38 -37l50 -6q3 -1 4.5 -1t2.5 -2.5t1 -6.5t-3 -10t-8 -6q-3 0 -11 0.5t-28 1t-53 0.5q-60 0 -100 -0.5t-57 -1t-21 -0.5q-11 0 -11 9t3.5 12t17.5 5l46 7q22 2 29 26q23 85 67.5 288.5t64.5 272.5 q6 22 6 33q0 5 -5 5q-2 0 -17 -18t-20 -26q-172 -244 -392 -600q-11 -22 -21 -22q-8 0 -12 38q-16 131 -36.5 267t-35 216t-19.5 94q-3 8 -8 8q-4 0 -8 -11q-38 -137 -81.5 -317t-43.5 -205q0 -27 15 -39t52 -14q31 -2 31 -9q0 -20 -15 -20q-4 0 -14.5 0.5t-35.5 1t-63 0.5 q-41 0 -71 -1t-34 -1q-5 0 -5 10q0 14 8 15q9 1 30 4q35 4 49 28.5t39 120.5q112 431 119 471z" />
<glyph unicode="N" horiz-adv-x="778" d="M680 682l-50 8q-5 1 -5 10q0 13 11 13q23 0 62.5 -2t49.5 -2q4 0 46.5 2t71.5 2q18 0 18 -6q0 -19 -7 -19q-51 -1 -75 -18t-40 -61q-24 -68 -66.5 -232.5t-78.5 -335.5q-10 -52 -23 -52q-4 0 -9.5 8t-26.5 44l-50 86l-123 216q-104 182 -140 237q-116 -453 -120 -475 q-2 -14 -2 -25q0 -48 68 -53q31 -2 31 -9q0 -20 -15 -20q-4 0 -14.5 0.5t-35.5 1t-63 0.5q-41 0 -69.5 -1t-32.5 -1q-5 0 -5 10q0 5 3 10t5 5q17 2 27 4q30 7 48 34t41 115q109 420 109 439q0 9 -16 31.5t-24 26.5q-16 10 -72 15q-8 0 -8 12q0 13 15 13q13 0 43 -2t40 -2 t34.5 2t35.5 2q7 0 12.5 -4t8 -8.5t8.5 -16.5l9 -18l300 -519q122 480 122 488q0 24 -12.5 33.5t-35.5 13.5z" />
<glyph unicode="O" horiz-adv-x="741" d="M72 266q0 96 34.5 182.5t89.5 146t124.5 94t139.5 34.5q64 0 115 -25.5t81.5 -67t46 -89t15.5 -97.5q0 -113 -47.5 -217t-139.5 -172.5t-207 -68.5q-113 0 -182.5 80t-69.5 200zM161 199q0 -82 39.5 -133t114.5 -51q70 0 131 54.5t98 133.5t58.5 161.5t21.5 145.5 q0 95 -44 139.5t-111 44.5q-69 0 -130 -56t-98 -136.5t-58.5 -162t-21.5 -140.5z" />
<glyph unicode="P" horiz-adv-x="593" d="M374 683q-18 0 -26.5 -4.5t-12 -11t-8.5 -25.5q-71 -260 -71 -275q0 -17 73 -17q87 0 144 56t57 143q0 74 -40 104t-116 30zM281 709h169q89 0 132.5 -48.5t43.5 -112.5q0 -52 -17.5 -93.5t-44 -66.5t-60 -41.5t-63 -23t-55.5 -6.5q-21 0 -51.5 3.5t-52.5 6.5t-24 3 q-8 0 -12.5 -5t-8.5 -24q-1 -5 -14 -65l-25 -114q-12 -53 -12 -64q0 -12 3.5 -18t25.5 -11t66 -5q4 0 4 -11q0 -15 -12 -15q-27 0 -74.5 1t-70.5 1q-12 0 -53 -1t-67 -1q-9 0 -9 13t8 13q49 0 66 10t25 49q34 154 69 293l52 199q16 61 16 75q0 23 -14 28.5t-71 5.5 q-12 0 -15 2t-3 8t4 12.5t11 6.5q23 0 67 -2t67 -2z" />
<glyph unicode="Q" horiz-adv-x="741" d="M72 266q0 96 34.5 182.5t89.5 146t124.5 94t139.5 34.5q64 0 115 -25.5t81.5 -67t46 -89t15.5 -97.5q0 -111 -45.5 -213t-134 -171t-198.5 -74v-2q25 -7 60 -34.5t71.5 -49t72.5 -21.5q12 0 40 7l29 6q9 0 9 -14q0 -7 -10 -14q-58 -37 -132 -37q-37 0 -73.5 17t-60 37.5 t-52 37.5t-52.5 17q-19 0 -32 -4.5t-19 -9t-7 -4.5q-4 0 -8 4.5t-4 9.5q0 10 32.5 33t57.5 27v2q-81 14 -135.5 91t-54.5 181zM161 199q0 -82 39.5 -133t114.5 -51q70 0 131 54.5t98 133.5t58.5 161.5t21.5 145.5q0 95 -44 139.5t-111 44.5q-69 0 -130 -56t-98 -136.5 t-58.5 -162t-21.5 -140.5z" />
<glyph unicode="R" horiz-adv-x="630" d="M437 396q31 21 55 68.5t24 93.5q0 53 -36.5 89.5t-105.5 36.5q-28 0 -35.5 -6.5t-15.5 -38.5q-66 -251 -66 -260q0 -12 8 -14.5t35 -2.5q87 0 137 34zM389 343q22 -45 60.5 -139t57.5 -131q16 -30 34.5 -39.5t67.5 -9.5q4 0 4 -9q0 -17 -13 -17q-10 0 -35.5 1t-39.5 1 q-19 0 -35 -0.5t-25 -1t-11 -0.5q-17 0 -27 25q-79 179 -126 298q-6 15 -37 15q-13 0 -17.5 -7t-9.5 -28q-53 -212 -53 -248q0 -9 3 -14t23.5 -10t61.5 -5q9 0 9 -8q0 -11 -2 -14.5t-11 -3.5q-28 0 -72 1t-58 1q-15 0 -61 -1t-74 -1q-11 0 -11 8q0 18 12 18q38 0 56.5 7.5 t25.5 30.5q27 91 86 334.5t59 258.5q0 12 -2 17t-15 8.5t-41 3.5q-41 0 -41 13q0 9 3.5 12.5t15.5 3.5q36 0 75.5 -2t55.5 -2q2 0 16.5 1t38 2t47.5 1q73 0 118 -14q50 -16 79.5 -55t29.5 -92q0 -84 -65 -141t-157 -68z" />
<glyph unicode="S" horiz-adv-x="556" d="M82 159q43 -138 170 -138q63 0 109 38t46 99q0 14 -1.5 23.5t-8 27.5t-23.5 38t-44 41q-117 90 -154.5 134.5t-37.5 102.5q0 88 63 143t151 55q54 0 108 -22t62 -22q11 0 21 10.5t13 10.5q10 0 10 -8q0 -9 -4 -74t-4 -75q0 -28 -13 -28q-8 0 -10.5 4t-6.5 20 q-17 73 -59.5 114t-108.5 41q-40 0 -69.5 -14t-44.5 -35.5t-22 -41.5t-7 -38q0 -39 22.5 -72t72.5 -75l59 -47q37 -29 53 -42.5t35 -35.5t26 -44.5t7 -51.5q0 -28 -12 -60.5t-37.5 -66.5t-75.5 -56t-116 -22q-53 0 -113 25.5t-66 25.5q-16 0 -25 -10.5t-14 -10.5t-5 6 q0 33 8 108.5t8 77.5q0 9 14 9q3 0 5.5 -3.5t5 -10.5t4 -14.5t4.5 -18.5z" />
<glyph unicode="T" horiz-adv-x="667" d="M186 709h479q18 0 44 7q17 7 25 7q7 0 7 -14q0 -7 9 -76.5t9 -74.5q0 -11 -16 -11q-7 0 -43.5 64.5t-49.5 64.5h-141q-13 0 -17 -17l-54 -203l-41 -150l-28 -103l-20 -69l-11 -40q-5 -18 -6.5 -27t-1.5 -18q0 -25 83 -25q12 0 12 -8q0 -18 -13 -18q-17 0 -74 1t-130 1 q-22 0 -38.5 -0.5t-25 -1t-11.5 -0.5q-7 0 -7 13q0 8 4.5 10t21.5 3q19 1 29 3t23.5 9t23 23t16.5 42l127 460q25 91 25 98q0 17 -20 17h-164q-17 0 -70 -65t-56 -65q-15 0 -15 13q0 5 14 46l29 79q15 39 16 39q7 0 23 -7t33 -7z" />
<glyph unicode="U" horiz-adv-x="778" d="M125 185q0 34 10 86t32 146.5t35 160.5q14 68 14 80q0 27 -75 29q-9 0 -11 2.5t-2 11.5q0 12 8 12q2 0 53.5 -2t71.5 -2q35 0 83.5 2t52.5 2q7 0 7 -15q0 -14 -11 -14q-52 0 -64 -12q-14 -14 -34 -100l-33 -145l-22 -98q-13 -61 -16.5 -90.5t-3.5 -52.5q0 -48 18.5 -81 t48.5 -46.5t52.5 -18t45.5 -4.5q54 0 100.5 20t90.5 76t67 143q75 282 75 352q0 15 -3.5 24t-13.5 15t-14.5 7.5t-20.5 5.5q-28 7 -47 7q-6 0 -6 12q0 15 13 15q4 0 45 -2t52 -2q18 0 76.5 2t66.5 2q7 0 7 -13q-3 -10 -9 -11l-35 -5q-50 -7 -71 -77q-6 -18 -50 -204 t-75 -249q-42 -85 -110 -123.5t-169 -38.5q-100 0 -164.5 49.5t-64.5 143.5z" />
<glyph unicode="V" horiz-adv-x="685" d="M288 637l-53 -513l2 -2q221 245 381 448q44 55 44 77q0 7 -2.5 14.5t-12.5 15t-25 7.5q-62 0 -62 13q0 16 15 16q20 0 68 -2t57 -2q16 0 66 2t59 2q6 0 6 -10q0 -19 -45 -19q-31 0 -94 -77q-294 -355 -515 -595q-27 -27 -35 -27q-10 0 -10 15q0 48 33 337.5t33 309.5 q0 10 -1.5 16.5t-11 13.5t-27.5 7q-49 0 -49 11q0 18 9 18q19 0 65.5 -2t60.5 -2t75.5 2t64.5 2q8 0 8 -10q0 -6 -2 -9t-16 -6.5t-42 -3.5t-34.5 -9.5t-9.5 -37.5z" />
<glyph unicode="W" horiz-adv-x="1000" d="M285 644l-52 -507l2 -2q291 368 311 407q13 25 13 102q0 9 -1 14t-5 12t-15.5 10.5t-29.5 3.5q-35 0 -35 10q0 19 11 19q8 0 63.5 -2t65.5 -2q11 0 69.5 2t61.5 2q6 0 6 -14q0 -15 -44 -15q-37 0 -45.5 -12t-13.5 -56l-50 -477l2 -2l125 155l116 152l56 76q67 88 75 108 q5 11 5 23q0 33 -83 33q-21 0 -21 11q0 18 11 18q7 0 66 -2t66 -2q12 0 65 2t55 2q11 0 11 -10q0 -19 -36 -19q-20 0 -51.5 -24t-63.5 -65l-128 -167l-169 -218q-83 -106 -170 -205q-17 -20 -25 -20q-11 0 -11 13q0 22 4.5 54.5t18 147.5t30.5 286l-2 2q-63 -92 -168 -225.5 t-149 -185.5q-71 -84 -81 -90q-4 -2 -6 -2q-10 0 -10 17q0 27 34 326.5t34 321.5q0 21 -13 27.5t-62 6.5q-14 0 -14 14q0 15 9 15q10 0 67 -2t66 -2q11 0 68 2t63 2t6 -7q0 -22 -12 -22q-40 0 -59.5 -5.5t-24 -12.5t-6.5 -22z" />
<glyph unicode="X" horiz-adv-x="704" d="M79 85l201 195q4 4 13 12t15 14l14 13q7 7 10.5 13.5t3.5 11.5q0 3 -16.5 39t-53.5 108l-80 150q-12 23 -28 30.5t-51 12.5q-14 2 -14 14q0 15 10 15t61.5 -2t57.5 -2q14 0 84 2t77 2q6 0 6 -11q0 -12 -5.5 -15t-25.5 -3q-30 0 -44.5 -4.5t-17 -9.5t-2.5 -17t113 -253 l118 115q70 67 91 91t21 38q0 24 -13.5 32t-67.5 8q-20 0 -20 5q0 24 11 24q13 0 57 -2t59 -2q5 0 69.5 2t70.5 2q7 0 7 -9q0 -10 -4 -13t-22 -7q-36 -7 -50.5 -14t-39.5 -30l-99 -97q-76 -75 -86 -84q-57 -50 -71 -64t-14 -21q0 -4 0.5 -7.5t2.5 -9.5t5 -13l9 -19 q5 -12 11.5 -24.5l17.5 -34.5l21 -45l28 -59l35 -72q16 -34 38.5 -50t61.5 -16q10 0 10 -11q0 -15 -9 -15h-11q-12 1 -45 1.5t-86 0.5q-41 0 -72 -0.5t-45 -1t-15 -0.5q-7 0 -7 7q0 19 10 19q52 0 65.5 5.5t13.5 27.5q0 4 -2.5 11.5t-10.5 26.5l-19 41l-33 72l-46 102 q-137 -131 -178.5 -176t-41.5 -62q0 -14 4 -23t23.5 -17t55.5 -8q7 0 9 -1.5t2 -10.5q0 -14 -18 -14h-5q-4 0 -12.5 0.5t-21.5 1t-36 0.5h-51q-23 0 -69.5 -1t-52.5 -1q-9 0 -9 8q0 15 21 18q52 7 107 61z" />
<glyph unicode="Y" horiz-adv-x="611" d="M329 355l65 72l75 84q33 36 53 56q24 24 36 41.5t14 25t2 19.5q0 31 -91 31q-5 0 -5 15q2 14 6 14q14 0 68 -2t63 -2q12 0 58 2t57 2q18 0 18 -10q0 -19 -24 -19t-38 -6t-34 -24q-21 -18 -46 -44l-48 -49l-86 -90l-115 -122q-22 -23 -33 -66q-8 -33 -20 -77l-18 -66 q-6 -22 -11 -45.5t-5 -37.5q0 -20 19.5 -26.5t69.5 -6.5q7 0 7 -9q0 -17 -7 -17q-13 0 -51.5 1t-95.5 1q-41 0 -85.5 -1t-54.5 -1q-7 0 -7 9q0 17 9 17q54 0 76 13t29 42l33 118q15 53 21 71t9 32.5t3 28.5q0 16 -57 305q-7 34 -21.5 42t-65.5 8q-13 0 -13 15q0 14 10 14 q1 0 42.5 -2t64.5 -2q30 0 87.5 2t58.5 2q11 0 11 -12q0 -17 -50 -17q-17 0 -27 -6t-10 -14q0 -7 2 -16l9 -44q7 -35 15 -84z" />
<glyph unicode="Z" horiz-adv-x="648" d="M220 709h454q8 0 8 -6q0 -12 -41 -61l-503 -609h304q34 0 51 8t38 42q68 108 74 108q15 0 15 -9q0 -7 -7 -38l-15 -73q-9 -41 -12 -64q-1 -7 -30 -7h-432q-31 0 -60.5 -1t-34.5 -1q-14 0 -14 6q0 11 17 34t106 129l423 509h-275q-28 0 -47.5 -12.5t-46.5 -53.5 q-6 -9 -14.5 -23t-13.5 -21l-9 -14q-5 -7 -8.5 -10t-5.5 -3q-17 0 -17 10q0 16 23.5 95t27.5 79q7 0 19 -7t26 -7z" />
<glyph unicode="[" horiz-adv-x="296" d="M241 709h168q11 0 11 -14q0 -7 -7.5 -9.5t-33.5 -2.5q-63 0 -78.5 -8t-24.5 -45l-83 -344l-78 -314q-29 -115 -29 -122q0 -9 3 -12.5t22.5 -6.5t61.5 -3q33 0 33 -14q0 -4 -4 -8t-9 -4h-182q-6 0 -6 8q0 6 14 61l204 817q3 13 6.5 17t11.5 4z" />
<glyph unicode="\" d="M510 0h-65l-315 709h65z" />
<glyph unicode="]" horiz-adv-x="296" d="M75 -198h-168q-11 0 -11 14q0 7 7.5 9.5t33.5 2.5q63 0 78.5 8t24.5 45l83 343l78 314q29 116 29 123q0 9 -3 12.5t-22.5 6.5t-61.5 3q-33 0 -33 14q0 4 4 8t9 4h182q6 0 6 -8q0 -6 -14 -61l-204 -817q-3 -13 -6.5 -17t-11.5 -4z" />
<glyph unicode="^" d="M136 294h-71l181 395h78l181 -395h-71l-149 334z" />
<glyph unicode="_" horiz-adv-x="500" d="M500 -125h-500v50h500v-50z" />
<glyph unicode="`" horiz-adv-x="278" d="M272 527h-29q-76 58 -109.5 85.5t-39.5 35.5t-6 17q0 12 9 22t21 10q22 0 40 -24z" />
<glyph unicode="a" horiz-adv-x="463" d="M102 44q32 0 88 66.5t98.5 148.5t42.5 123q0 18 -8.5 27t-32.5 9q-35 0 -73.5 -44t-66 -103t-45.5 -116t-18 -86q0 -25 15 -25zM389 456h48q6 0 6 -6q0 -10 -70.5 -187t-70.5 -195q0 -13 10 -13q17 0 61.5 53.5t48.5 53.5q9 0 9 -8q0 -6 -30.5 -45.5t-76 -80t-76.5 -40.5 t-31 23q0 11 16 54l32 83q15 39 15 40q0 5 -4 5t-11.5 -10t-16 -24.5t-12.5 -19.5q-113 -151 -195 -151q-40 0 -40 50q0 60 59 176.5t125 177.5q56 52 122 52q31 0 45 -14q2 -2 4 -5t3.5 -4.5t2.5 -3t2 -1.5q4 0 11 20t14 20z" />
<glyph unicode="b" horiz-adv-x="426" d="M51 194l105 359q27 90 27 97q0 18 -8 22.5t-26 4.5q-31 0 -31 15q0 14 31 17l53 6l42 6q14 2 17 2q15 0 15 -9q0 -15 -6 -38.5t-16 -54.5l-34 -106q-24 -74 -49 -162l-9 -32l-9 -26q-3 -9 -3 -11q0 -3 6 -3l13 17q13 16 34 39t46 46.5t56 40t58 16.5q46 0 46 -72 q0 -35 -14.5 -83.5t-44 -100t-68.5 -95.5t-93 -72.5t-112 -28.5t-58 54q0 15 1.5 30t6 32.5t7 28.5t9 32t8.5 29zM331 341q0 17 -8.5 28t-23.5 11q-29 0 -78 -49.5t-88 -123.5t-39 -134q0 -21 14 -33t28 -12q52 0 99 59.5t71.5 131t24.5 122.5z" />
<glyph unicode="c" horiz-adv-x="315" d="M334 388q0 -21 -13 -32.5t-34 -11.5q-20 0 -30.5 10t-13 21.5t-9 21.5t-19.5 10q-30 0 -59 -59.5t-45 -127.5t-16 -107q0 -73 50 -73q22 0 44 18.5t37 37t21 18.5q9 0 9 -10q0 -5 -18.5 -31.5t-54 -55.5t-71.5 -29q-32 0 -53.5 12t-30 31.5t-11 33.5t-2.5 28q0 40 18 97 t48 113.5t78.5 96.5t102.5 40q27 0 49.5 -13.5t22.5 -38.5z" />
<glyph unicode="d" horiz-adv-x="463" d="M88 96q0 -18 9 -31.5t26 -13.5q30 0 71.5 36t74.5 85q15 21 37.5 99t22.5 101q0 17 -13.5 29.5t-35.5 12.5q-39 0 -86 -63.5t-76.5 -138.5t-29.5 -116zM244 24q0 17 14.5 61t14.5 51q0 6 -3 6q-1 0 -3.5 -2.5l-7.5 -7.5l-10 -12l-13 -17q-8 -10 -16 -19q-83 -96 -146 -96 q-7 0 -19 3.5t-28.5 23t-16.5 52.5q0 64 29.5 133.5t71.5 121t88 85t80 33.5q24 0 37 -8t18 -15.5t9 -7.5q2 0 33.5 118t31.5 123q0 18 -8 22.5t-26 4.5q-31 0 -31 15q0 14 31 17q26 3 53 7l41 5q15 2 18 2q15 0 15 -9t-158 -566q-17 -60 -17 -69q0 -15 11 -15q18 0 39.5 25 t39.5 49.5t25 24.5t7 -11q0 -8 -27 -47t-68.5 -78t-71.5 -39q-18 0 -27.5 10t-9.5 26z" />
<glyph unicode="e" horiz-adv-x="370" d="M270 440q38 0 60.5 -17t22.5 -52q0 -46 -52 -92t-178 -70q-12 -66 -12 -82q0 -84 64 -84q24 0 49.5 19t41.5 38t18 19q12 0 12 -13q0 -6 -22 -33.5t-62.5 -56t-78.5 -28.5q-96 0 -96 126q0 136 73 231t160 95zM126 234q82 10 120.5 54.5t38.5 83.5q0 16 -8 29t-24 13 q-39 0 -71.5 -48.5t-55.5 -131.5z" />
<glyph unicode="f" horiz-adv-x="296" d="M121 381h-87q-9 0 -9 4q0 25 10 26q76 6 90.5 9t18.5 16q1 2 17 60t32 91q31 67 92 108.5t133 41.5q28 0 56.5 -13.5t28.5 -38.5q0 -51 -45 -51q-22 0 -35 11t-17 24t-13.5 24t-26.5 11q-8 0 -14 -1.5t-19 -6.5t-24 -19.5t-24 -36.5t-26 -61.5t-23 -90.5q-2 -10 -6 -25 t-6.5 -25.5t-2.5 -13.5q0 -5 7 -5h107q8 0 8 -6q0 -4 -3.5 -18t-7.5 -14h-109q-13 0 -18 -21q-74 -338 -107 -439.5t-82 -142.5q-57 -48 -116 -48q-63 0 -63 44q0 15 11.5 25.5t26.5 10.5q20 0 47 -18t39 -18q36 0 61 112l60 269l39 171q9 40 9 45q0 10 -9 10z" />
<glyph unicode="g" horiz-adv-x="463" d="M255 414q-39 0 -69 -45t-42.5 -96t-12.5 -89q0 -76 54 -76q51 0 87.5 73t36.5 147q0 86 -54 86zM146 -55q-9 0 -37 -12.5t-58.5 -40.5t-30.5 -59q0 -32 26.5 -55t59 -32.5t63.5 -9.5q50 0 84.5 10.5t50.5 28t22 32.5t6 31q0 8 -2 15.5t-4.5 13.5t-8.5 11l-9 10 q-4 4 -12.5 8.5t-12 6.5t-14 6t-14 5t-14.5 4.5t-13 4.5q-70 22 -82 22zM488 396q0 -15 -9.5 -25.5t-24.5 -10.5q-16 0 -28 18.5t-28 18.5q-8 0 -17 -5t-14.5 -10t-5.5 -7q0 -1 1.5 -5t3.5 -11t4 -16.5t3.5 -23t1.5 -27.5q0 -22 -4 -46t-16.5 -54.5t-32.5 -53.5t-55 -39 t-81 -16q-33 0 -40 3q-18 -15 -18 -34q0 -10 4.5 -16.5t19 -12.5t30.5 -11l52 -15q36 -10 70 -21q18 -6 30 -11t30.5 -17t28.5 -31t10 -45q0 -63 -58.5 -111.5t-177.5 -48.5q-58 0 -100.5 10t-62 23t-31 31t-13 27.5t-0.5 18.5q3 33 35 65t120 70q-1 1 -8.5 5.5t-15 10 t-14 16.5t-6.5 24q0 19 12.5 36t24.5 27.5t12 14.5q0 3 -9 10.5t-20.5 18t-20.5 32t-9 48.5q0 49 19.5 103t60.5 95.5t92 41.5q34 0 58.5 -11t36.5 -22t15 -11q2 0 18 11t39.5 22t43.5 11q19 0 31.5 -12t12.5 -32z" />
<glyph unicode="h" horiz-adv-x="500" d="M81 0h-49q-13 0 -13 15q0 5 96.5 318.5t96.5 316.5q0 18 -8 22.5t-26 4.5q-31 0 -31 15q0 14 31 17q26 3 53 7l41 5q15 2 18 2q15 0 15 -9q0 -7 -62 -217.5t-62 -212.5q0 -4 3 -4q2 0 9 11q57 79 109.5 114t88.5 35q31 0 48.5 -18t17.5 -49q0 -67 -35 -157.5t-92 -159 t-110 -68.5q-42 0 -42 40q0 18 12.5 33.5t29.5 15.5q18 0 28 -18.5t22 -18.5q34 0 71 116t37 165q0 59 -44 59q-24 0 -66 -37.5t-90 -109.5q-20 -30 -31 -56.5t-26.5 -77t-27.5 -85.5q-5 -14 -12 -14z" />
<glyph unicode="i" horiz-adv-x="278" d="M66 323q-7 -5 -8 -5q-7 0 -7 11q0 4 15.5 22.5t37.5 40.5t53 39t57 17q31 0 31 -29q0 -24 -63.5 -186.5t-63.5 -167.5q0 -12 7 -12q14 0 56 36l42 36q11 0 11 -10q0 -4 -28.5 -35.5t-72.5 -62.5t-75 -29q-29 0 -29 40q0 12 33 98l66 166q33 81 33 82q0 15 -8 15 q-9 0 -21.5 -8t-22 -16.5t-24 -23t-19.5 -18.5zM192 642q0 20 14 34t34 14t34 -14t14 -34t-14 -34t-34 -14t-34 14t-14 34z" />
<glyph unicode="j" horiz-adv-x="259" d="M48 322q-32 -43 -36 -43q-3 0 -5.5 1.5t-4 2.5t-1.5 2q0 5 9 21.5t28 41t44 46.5t62 38t77 16q17 0 17 -22q0 -25 -17.5 -79.5t-120.5 -352.5q-17 -49 -28.5 -78t-33.5 -69.5t-45.5 -62t-61 -38t-82.5 -16.5q-20 0 -35.5 11.5t-15.5 30.5q0 17 12 27.5t28 10.5 q17 0 44 -19q32 -19 43 -19q19 0 31.5 24.5t33.5 87.5l60 178l48 139l31 91q15 43 20.5 63.5t5.5 28.5q0 16 -14 16q-33 0 -93 -78zM178 642q0 20 14 34t34 14t34 -14t14 -34t-14 -34t-34 -14t-34 14t-14 34z" />
<glyph unicode="k" horiz-adv-x="481" d="M154 201l44 19q36 15 62.5 28.5t58 32t49 39.5t17.5 42q0 34 -34 34q-67 0 -172 -132q-12 -18 -25 -63zM131 126l-36 -112q-5 -14 -12 -14h-49q-13 0 -13 15q0 5 96.5 318.5t96.5 316.5q0 18 -8 22.5t-26 4.5q-31 0 -31 15q0 14 31 17l53 6l41 6q15 2 18 2q15 0 15 -9 q0 -17 -59.5 -206.5t-59.5 -192.5q0 -5 1 -5t11 10q118 120 202 120q26 0 43.5 -14t17.5 -39q0 -18 -7.5 -35t-24 -31.5t-31.5 -26t-40 -24.5l-39 -19q-14 -7 -40 -17.5t-32 -13.5q58 -174 95 -174q13 0 36 22t25 22q3 0 7 -4t4 -7q0 -10 -43 -50.5t-72 -40.5q-11 0 -20.5 5 t-18.5 16.5t-16 23t-16 32.5l-16 37l-17 44l-18 45q-20 -6 -29 -19.5t-19 -45.5z" />
<glyph unicode="l" horiz-adv-x="259" d="M11 22q0 16 101.5 320.5t101.5 307.5q0 18 -8 22.5t-26 4.5q-31 0 -31 15q0 14 31 17q26 3 53 7l41 5q15 2 18 2q15 0 15 -9q0 -22 -98 -314.5t-98 -301.5q0 -17 17 -17q12 0 57 47t50 47q9 0 9 -13q0 -6 -35.5 -48t-85 -84t-78.5 -42q-34 0 -34 34z" />
<glyph unicode="m" horiz-adv-x="778" d="M89 0h-65q-7 0 -7 5q0 3 80 192t80 203t-23 14q-29 0 -54.5 -23.5t-38.5 -51.5l-25 -51q-11 -23 -15 -23q-10 0 -10 19q0 14 7 37.5t21 51.5t41.5 47.5t61.5 19.5h112q13 0 13 -10q0 -5 -39.5 -95t-39.5 -96q0 -5 4 -5q2 0 15.5 20.5t43 57t61.5 67.5q74 69 122 69 q63 0 63 -44q0 -7 -16 -49l-33 -81q-16 -39 -16 -40q0 -5 3 -5q2 0 4 2t8 9l15 17l27 30l41 45q68 70 100 93t60 23q52 0 52 -41q0 -29 -73.5 -189t-73.5 -172q0 -15 12 -15q16 0 48 31.5t59 63t31 31.5q3 0 6.5 -3t3.5 -7q0 -7 -28.5 -41.5t-74 -70t-80.5 -35.5h-56 q-17 0 -17 9q0 12 74.5 178.5t74.5 182.5q0 15 -11 15t-21.5 -6.5t-47.5 -38.5q-20 -18 -87 -90t-87 -110q-26 -49 -59 -132q-3 -8 -10 -8h-65q-7 0 -7 4q0 2 79 177t79 196q0 20 -20 20q-10 0 -17 -2t-25 -14.5t-42 -37.5q-41 -42 -86 -102t-51 -72l-71 -161q-3 -8 -10 -8z " />
<glyph unicode="n" d="M323 0h-52q-7 0 -7 8q0 17 66 180.5t66 191.5q0 15 -8.5 22t-17.5 7q-14 0 -27 -6t-27 -20.5t-26 -29.5t-29 -43l-30 -50l-34 -60l-38 -66q-1 -2 -54 -125q-4 -9 -11 -9h-59q-8 0 -8 8q0 6 68 190.5t68 200.5q0 12 -8 12q-50 0 -85 -47.5t-35 -73.5q0 -5 -9 -5t-9 9 q0 12 7.5 33.5t22 48t44 45.5t67.5 19h74q10 0 10 -9q0 -3 -37 -105t-37 -120q0 -7 3 -7q5 0 16 21q7 12 11 20q53 96 87 141t55 56t53 11q80 0 80 -50q0 -46 -61 -191.5t-61 -159.5q0 -3 3.5 -5.5t6.5 -2.5q21 0 46 26.5t43.5 52.5t22.5 26q3 0 6.5 -3.5t3.5 -5.5 q0 -9 -22 -40.5t-61.5 -63t-76.5 -31.5z" />
<glyph unicode="o" horiz-adv-x="389" d="M290 312q0 57 -11.5 81.5t-41.5 24.5q-31 0 -65.5 -55t-56.5 -125.5t-22 -117.5q0 -23 1 -34t5 -31.5t16 -30.5t32 -10q25 0 59.5 53t59 124.5t24.5 120.5zM355 292q0 -68 -26 -137t-76 -118t-111 -49q-40 0 -67.5 27t-37 59.5t-9.5 65.5q0 70 26.5 139.5t75 117 t104.5 47.5q59 0 90 -40.5t31 -111.5z" />
<glyph unicode="p" horiz-adv-x="444" d="M169 519h52q9 0 9 -9q0 -6 -11.5 -50.5t-11.5 -45.5q0 -4 6 -4q1 0 15 7.5t39 15t52 7.5q28 0 47.5 -14.5t28 -36t11.5 -38t3 -29.5q0 -40 -13.5 -94t-39 -109t-69.5 -93t-97 -38q-20 0 -38.5 4.5t-29 9.5t-11.5 5q-2 0 -6 -11l-21 -88l-14 -58l-7 -31l-4 -18 q-1 -5 -1 -8q0 -16 14.5 -21t55.5 -5q13 0 13 -13q0 -6 -4 -11t-9 -5l-18 1q-17 1 -43 1.5t-45 0.5q-26 0 -55.5 -1.5t-44.5 -1.5q-16 0 -16 17q0 12 12 12q8 0 20.5 1.5t29 7.5t18.5 16l120 482q14 54 14 59q0 7 -5 7q-9 0 -44 -22.5t-38 -22.5q-11 0 -11 10q0 9 22.5 24.5 t71.5 44.5q6 3 9 5q6 3 10 22l22 107q3 11 12 11zM125 71q0 -22 19 -39.5t41 -17.5q37 0 68 37t48 88t26 96t9 71q0 88 -68 88q-56 0 -69 -21q-10 -17 -42 -148.5t-32 -153.5z" />
<glyph unicode="q" horiz-adv-x="463" d="M91 -234l45 6q19 2 34 48l94 286q9 26 9 28q0 6 -3 6q-1 0 -2 -1.5t-2.5 -4t-3.5 -4.5q-69 -83 -104 -112.5t-71 -29.5q-29 0 -46.5 28t-17.5 68q0 65 31 132t76 115t95.5 78.5t88.5 30.5q35 0 51 -24q2 -3 4.5 -9.5t5 -9.5t5.5 -3q6 0 31 35q9 13 19 13q13 0 13 -7 q0 -4 -3 -10l-8 -21q-6 -15 -12 -33l-173 -537q-14 -42 -14 -45q0 -17 12 -19l37 -5q12 -2 12 -11q0 -16 -21 -16q-9 0 -39.5 1.5t-48.5 1.5q-15 0 -46 -1.5t-46 -1.5q-24 0 -24 17q0 7 22 11zM293 218q54 138 54 166q0 30 -40 30q-44 0 -98.5 -75.5t-90 -160t-35.5 -122.5 q0 -22 8 -30.5t17 -8.5q37 0 100.5 73.5t84.5 127.5z" />
<glyph unicode="r" horiz-adv-x="407" d="M90 0h-55q-7 0 -7 6q0 11 68 205t68 195q0 12 -20 12q-25 0 -50.5 -34.5t-41.5 -69t-19 -34.5q-11 0 -11 7q0 64 40.5 110.5t107.5 46.5h51q17 0 17 -8q0 -4 -40.5 -123t-40.5 -124q0 -7 5 -7q2 0 4.5 2.5t6.5 9.5l8 13l11 21l15 26q63 108 102 151t81 43q23 0 38 -14.5 t15 -36.5q0 -21 -15.5 -36t-36.5 -15q-28 0 -44.5 16t-25.5 16q-15 0 -43 -44q-87 -140 -112.5 -186t-63.5 -138q-4 -10 -12 -10z" />
<glyph unicode="s" horiz-adv-x="296" d="M-27 50q0 14 11.5 25.5t24.5 11.5q17 0 29 -10.5t18 -22.5t18 -22.5t29 -10.5q15 0 35 17.5t20 46.5q0 34 -46 126q-39 72 -39 111q0 55 43.5 88.5t101.5 33.5q40 0 68.5 -14.5t28.5 -46.5q0 -14 -12.5 -26t-30.5 -12q-23 0 -44 35t-45 35q-22 0 -37 -13.5t-15 -35.5 q0 -9 2.5 -19t8 -23t10.5 -22l12 -26l11 -22l8 -16q7 -15 8.5 -18.5t7.5 -15.5t7.5 -17t5 -15.5t5 -17t2.5 -15.5t1 -17q0 -54 -56.5 -94t-113.5 -40q-32 0 -54.5 16.5t-22.5 45.5z" />
<glyph unicode="t" horiz-adv-x="315" d="M126 377h-71q-12 0 -12 7q0 6 8 20.5t16 14.5h80q8 0 11 2q2 3 35 103q1 7 12 7h46q9 0 9 -9q0 -2 -13.5 -45.5t-13.5 -49.5q0 -8 10 -8h86q10 0 10 -12q0 -5 -6.5 -19t-13.5 -14q-18 0 -48 2q-7 0 -22 0.5t-23 0.5q-9 0 -20 -36q-3 -9 -25 -85l-41 -142q-20 -67 -20 -68 q0 -17 14 -17q18 0 51 23.5t59 47.5t27 24q9 0 9 -8q0 -9 -29 -39t-80 -59.5t-98 -29.5q-33 0 -33 37q0 7 50.5 173t50.5 172q0 7 -15 7z" />
<glyph unicode="u" d="M330 0h-40q-13 0 -13 10t28 98.5t28 93.5q0 6 -3 6q-1 0 -26.5 -35t-63 -82t-63.5 -69q-41 -34 -91 -34q-42 0 -42 60q0 23 65.5 187.5t65.5 180.5q0 11 -12 11q-22 0 -63 -37.5t-59 -99.5q-1 -4 -9 -4t-8 12q0 21 26.5 65t56.5 63q50 30 140 30q18 0 18 -17 q0 -6 -71.5 -179.5t-71.5 -199.5q0 -9 6.5 -14.5t12.5 -5.5q26 0 57 30t88 110q55 74 70 115l22 63l14 45l9 26.5t7 15t7 3.5h59q13 0 13 -7q0 -8 -63 -190.5t-63 -194.5q0 -13 8 -13q20 0 47 28.5t45.5 57.5t19.5 29q14 0 14 -8q0 -12 -22.5 -47t-63.5 -69t-79 -34z" />
<glyph unicode="v" horiz-adv-x="481" d="M66 444h153q3 0 14 2t19 2q11 0 11 -11q0 -15 -17.5 -47.5t-39 -67.5t-39 -84.5t-17.5 -93.5q0 -38 16.5 -67t51.5 -29q50 0 95.5 51.5t69.5 116t24 112.5q0 20 -24 39t-24 37q0 21 12 36.5t33 15.5q30 0 40.5 -17.5t10.5 -50.5q0 -30 -12 -77.5t-36.5 -103.5t-57 -105 t-79.5 -81.5t-98 -32.5q-11 0 -24 4t-29.5 14t-27.5 33.5t-11 56.5q0 51 33 118t66 114t33 49q0 3 -0.5 4t-4.5 2t-13 1h-106q-29 0 -48 -64q-3 -9 -12 -9q-11 0 -11 8q0 13 19 69t30 56z" />
<glyph unicode="w" horiz-adv-x="667" d="M64 444h166q9 0 21.5 2t16.5 2q11 0 11 -20q0 -12 -29.5 -64t-59.5 -120.5t-30 -121.5q0 -74 65 -74q39 0 75.5 54t55.5 111.5t19 84.5q0 22 -12.5 44.5t-12.5 39.5q0 26 14 46t40 20q39 0 39 -38q0 -23 -37 -129t-37 -155q0 -30 12.5 -54t40.5 -24q39 0 79.5 52.5 t64 115t23.5 100.5q0 16 -10.5 28t-23 18.5t-23 17.5t-10.5 25q0 19 14 35t33 16q29 0 44 -27t15 -59q0 -64 -33.5 -152t-96 -159t-129.5 -71q-62 0 -62 73q0 6 -3 6q-1 0 -9.5 -8t-22 -19.5t-30 -23.5t-37.5 -20t-39 -8q-37 0 -59 25t-22 62q0 51 36.5 121t73 122.5 t36.5 61.5q0 4 -17 4h-104q-40 0 -58 -25t-22.5 -50.5t-12.5 -25.5q-11 0 -11 9q0 33 22.5 92.5t35.5 59.5z" />
<glyph unicode="x" horiz-adv-x="481" d="M229 44l-22 123q-7 -10 -24.5 -39t-31 -49t-32.5 -43t-41 -35.5t-44 -12.5q-17 0 -33.5 14.5t-16.5 41.5q0 24 11 55t29 31q12 0 12 -18l-6 -14q-6 -14 -6 -31q0 -11 12.5 -18.5t24.5 -7.5q50 0 140 157q-11 98 -24.5 134t-37.5 36q-20 0 -32 -20.5t-17 -41t-9 -20.5 q-10 0 -10 16q0 60 38.5 99t71.5 39q32 0 50 -41t28 -144q6 7 33.5 48t47 67.5t48.5 52t51 25.5q19 0 32.5 -16.5t12.5 -36.5q-1 -32 -11.5 -63t-27.5 -31q-7 0 -8.5 6.5t-1.5 26.5q0 21 -1 28.5t-7.5 12.5t-20.5 5q-19 0 -49.5 -32t-91.5 -125q14 -107 26 -143t32 -36 q18 0 32 21t23.5 42t15.5 21q12 0 12 -12q0 -25 -35.5 -76.5t-86.5 -51.5q-12 0 -21 2.5t-19 15.5t-15 38z" />
<glyph unicode="y" horiz-adv-x="407" d="M269 147q33 95 60 275q3 18 17 18q19 0 33.5 -9.5t14.5 -21.5q0 -38 -79.5 -226t-155.5 -301q-54 -80 -100 -116t-122 -36q-59 0 -59 44q0 12 12.5 25t29.5 13t40.5 -19t57.5 -19q14 0 36 18.5t45.5 51.5t40 92t16.5 128q0 41 -7 109.5t-24.5 135t-40.5 65.5 q-18 -1 -29.5 -19t-15 -39t-7 -38.5t-8.5 -17.5q-10 0 -12 4.5t-2 17.5q0 40 32.5 99t79.5 59q31 0 53 -48.5t31.5 -117t13 -114t3.5 -66.5q0 -7 -1 -20.5t-1 -21t2 -7.5t8.5 12t17 36.5t20.5 53.5z" />
<glyph unicode="z" horiz-adv-x="463" d="M392 382l-289 -286q43 0 130.5 -31t103.5 -31q14 0 29 12.5t15 26.5q0 9 -18 24t-18 35q0 15 12 27t27 12q20 0 33.5 -13.5t13.5 -34.5q0 -44 -46.5 -89.5t-110.5 -45.5q-34 0 -119 27q-82 26 -95 26q-16 0 -21 -5.5t-5 -21.5q0 -20 -22 -20q-21 0 -21 17q0 6 28 35 l294 293q-37 0 -100 29.5t-82 29.5q-31 0 -40 -30q9 -4 18 -16.5t9 -23.5q0 -16 -12.5 -25.5t-29.5 -9.5q-15 0 -25 13.5t-10 33.5q0 32 52.5 68t89.5 36q25 0 81 -22q81 -33 101 -33q4 0 8.5 5t11 14t9.5 12q18 20 24 20q21 0 21 -13q0 -4 -4.5 -8.5t-17.5 -14.5t-25 -22z " />
<glyph unicode="{" horiz-adv-x="333" d="M183 364l47 189q23 93 66 124.5t128 31.5q13 0 13 -6q0 -20 -19 -20q-88 0 -112 -99l-49 -194q-15 -62 -37 -91t-77 -42v-2q57 -16 57 -67q0 -25 -13 -76q-52 -202 -52 -232q0 -52 61 -52q13 0 13 -8q0 -18 -20 -18t-33 0.5t-31 4.5t-28.5 11.5t-18.5 22t-8 35.5 q0 25 7.5 58.5t44.5 181.5q11 44 11 61q0 23 -9.5 39t-18.5 20q-4 2 -11 3.5t-11.5 3t-8.5 4.5t-4 7q0 6 5.5 9t19 6.5t20.5 5.5q20 7 39.5 30t28.5 59z" />
<glyph unicode="|" d="M236 0v689h60v-689h-60z" />
<glyph unicode="}" horiz-adv-x="333" d="M187 147l-47 -189q-23 -93 -66 -124.5t-128 -31.5q-13 0 -13 6q0 20 19 20q88 0 112 99l49 194q15 62 37.5 91.5t77.5 42.5v2q-58 15 -58 66q0 25 13 76q52 202 52 232q0 52 -61 52q-13 0 -13 8q0 18 20 18t33 -0.5t31 -4.5t28.5 -11.5t18.5 -22t8 -35.5 q0 -25 -7.5 -58.5t-44.5 -181.5q-11 -44 -11 -61q0 -23 9.5 -39t18.5 -20q4 -2 11 -3.5t11.5 -3t8.5 -4.5t4 -7q0 -6 -5.5 -9t-19 -6.5t-20.5 -5.5q-20 -7 -39.5 -30t-28.5 -59z" />
<glyph unicode="~" d="M450 302l50 -41q-24 -46 -57 -78t-71 -32q-44 0 -100 33q-58 32 -83 32q-9 0 -18 -4.5t-15 -9t-14.5 -15.5t-11.5 -16l-11 -18q-8 -13 -9 -15l-50 41q24 46 57 78t71 32q43 0 101 -32q56 -33 82 -33q9 0 18 4.5t15 9t14.5 15.5t11.5 16l11 18q8 13 9 15z" />
<glyph unicode="&#xa1;" horiz-adv-x="296" d="M79 -217q-12 -52 -41 -52q-16 0 -39.5 11.5t-23.5 26.5t19 64t112 272q42 101 47 101q10 0 14 -2t3 -8q-2 -22 -91 -413zM264 394q0 -23 -17 -39.5t-40 -16.5t-40 16.5t-17 39.5t17.5 40.5t39.5 17.5q23 0 40 -17.5t17 -40.5z" />
<glyph unicode="&#xa2;" d="M191 47l133 360q-11 2 -21 2q-13 0 -25 -4t-21.5 -12.5t-16.5 -16t-14 -20.5t-10 -19.5t-8 -19.5t-6 -14q-46 -106 -46 -190q0 -44 35 -66zM344 386l-126 -348q33 0 58.5 11.5t36.5 26.5l22 26q10 11 17 11q10 0 10 -9q0 -3 -6.5 -15t-20.5 -30t-32.5 -34t-47 -27.5 t-59.5 -11.5q-32 -93 -41 -93q-19 0 -19 14q0 2 7 21l15 38q8 19 9 23q-48 14 -67.5 39.5t-19.5 74.5q0 38 17.5 93t48.5 110.5t82 94.5t109 39q30 81 37 81q5 0 11.5 -3.5t6.5 -7.5q0 -3 -25 -70q30 0 52 -15t22 -38q0 -21 -12 -32t-30 -11q-20 0 -35 12t-18 30h-2z" />
<glyph unicode="&#xa3;" d="M81 347h119q-37 69 -49.5 109t-12.5 78q0 76 68.5 125.5t141.5 49.5q94 0 143.5 -47.5t49.5 -102.5q0 -32 -17 -57.5t-47 -25.5q-26 0 -40.5 14t-14.5 40q0 10 19.5 38.5t19.5 42.5q0 35 -31.5 52t-75.5 17q-58 0 -98 -35t-40 -92q0 -32 33.5 -109t37.5 -97h172 q12 0 12 -10q0 -9 -6 -23t-18 -14h-150v-30q0 -41 -19 -77t-59 -89q83 -44 143 -44q34 0 61.5 21.5t41 47t23.5 47t14 21.5q5 0 13 -4t8 -9q0 -4 -9 -25q-43 -98 -82.5 -134.5t-85.5 -36.5q-13 0 -24 1t-22 3l-19 4q-7 2 -18.5 8t-15.5 7.5t-17 9.5t-14 9l-17 12 q-15 10 -16 11q-45 -61 -105 -61q-38 0 -64 20t-26 60q0 34 24.5 59.5t58.5 25.5q19 0 34.5 -3t23.5 -6l27 -12l29 -14q42 58 42 123q0 28 -9 55h-143q-9 0 -9 7t5 23.5t10 16.5zM154 75q-37 41 -82 41q-50 0 -50 -49q0 -16 13 -26t24 -13t17 -3q43 0 78 50z" />
<glyph unicode="&#xa4;" d="M51 293h43q6 42 16 80h-60l20 45h54q42 123 119.5 206.5t179.5 83.5q37 0 67 -13.5t46.5 -27t20.5 -13.5q2 0 11 7t13 7q9 0 9 -12q0 -2 -3 -10t-10.5 -41t-17.5 -88q-4 -16 -13 -16q-4 0 -6.5 2.5t-4.5 10t-2.5 15t-2.5 23.5t-4 29q-9 101 -93 101q-70 0 -129 -75.5 t-94 -188.5h260l-21 -45h-250q-12 -54 -15 -80h230l-21 -45h-212q-1 -10 -1 -29q0 -36 6.5 -69t20.5 -64t41.5 -49t64.5 -18q76 0 144 55q4 2 5 2q11 0 11 -12q0 -5 -5 -10q-76 -62 -181 -62q-55 0 -95 20t-61.5 54.5t-31 74.5t-9.5 88v19h-60z" />
<glyph unicode="&#xa5;" d="M217 241h-127q-11 0 -11 5q0 6 7.5 20.5t14.5 14.5h129q9 40 4 61h-120q-11 0 -11 5q0 6 7.5 20.5t14.5 14.5h102l-52 268q-8 37 -84 37q-14 0 -14 13t11 13q4 0 59 -2t71 -2t63.5 2t49.5 2q11 0 11 -12q0 -14 -9 -14q-31 0 -47.5 -4t-21 -9.5t-4.5 -14.5q0 -7 10 -64 l23 -129q12 -72 15 -111h2l148 245q25 43 24 56q0 11 -16.5 18t-66.5 13q-7 0 -5 12q0 14 6 14t52 -2t59 -2t65.5 2t57.5 2q4 0 7 -3.5t3 -7.5q0 -5 -4 -10t-8 -5q-82 0 -151 -112l-120 -193h118q11 0 11 -6q0 -5 -7 -19.5t-14 -14.5h-132q-17 -26 -24 -61h142q11 0 11 -6 q0 -5 -7 -19.5t-14 -14.5h-142q-43 -146 -43 -184q0 -20 15.5 -25t73.5 -8q7 0 7 -9q0 -17 -7 -17q-13 0 -51.5 1t-95.5 1q-41 0 -85.5 -1t-54.5 -1q-7 0 -7 9q0 17 9 17q56 2 77.5 13.5t29.5 41.5z" />
<glyph unicode="&#xa6;" d="M236 0v276h60v-276h-60zM236 413v276h60v-276h-60z" />
<glyph unicode="&#xa7;" d="M398 325q33 -59 43 -96.5t10 -84.5q0 -79 -47 -151t-122 -118q-54 -78 -162 -78q-20 0 -44 5t-46.5 20.5t-22.5 37.5q0 18 12.5 31.5t30.5 13.5q23 0 41 -19.5t34 -39t34 -19.5q33 0 62.5 22.5t29.5 72.5q0 33 -14.5 76t-28 71t-42.5 82q-48 90 -66.5 138t-18.5 88 q0 74 42.5 139t116.5 102q32 94 163 94q26 0 46 -5t31 -12t18 -15.5t9 -14.5t2 -10q0 -21 -12.5 -33.5t-33.5 -12.5q-16 0 -29.5 11.5t-22 24.5t-24 24.5t-34.5 11.5q-35 0 -51 -25.5t-16 -62.5q0 -34 22.5 -91t38.5 -86zM324 293q-96 169 -96 251q0 12 0.5 19t2 13t1.5 9 h-2q-88 -57 -88 -159q0 -38 18.5 -81.5t83.5 -170.5q60 -116 60 -182q0 -47 -9 -77l2 -2q39 29 68 78.5t29 96.5q0 81 -70 205z" />
<glyph unicode="&#xa8;" horiz-adv-x="278" d="M100 597q0 19 13 32t32 13t32 -13t13 -32t-13 -32t-32 -13t-32 13t-13 32zM300 597q0 19 13 32t32 13t32 -13t13 -32t-13 -32t-32 -13t-32 13t-13 32z" />
<glyph unicode="&#xa9;" horiz-adv-x="775" d="M572 532v-108h-32q-5 48 -31.5 76.5t-73.5 28.5q-67 0 -102 -49.5t-35 -118.5q0 -74 37.5 -128t107.5 -54q75 0 109 75l31 -11q-20 -49 -65.5 -74t-104.5 -25q-87 0 -141.5 58.5t-54.5 147.5q0 94 58 151.5t151 57.5q61 0 146 -27zM414 -14q-158 0 -267 107.5t-109 260.5 q0 154 109 261.5t267 107.5t267.5 -107.5t109.5 -261.5q0 -153 -109.5 -260.5t-267.5 -107.5zM414 38q130 0 221 93t91 223t-91 223.5t-221 93.5t-220.5 -93t-90.5 -224q0 -130 90.5 -223t220.5 -93z" />
<glyph unicode="&#xaa;" horiz-adv-x="278" d="M266 671q0 26 -18 26q-31 0 -62 -39.5t-47.5 -81t-16.5 -58.5q0 -19 8 -19q30 0 83 72.5t53 99.5zM302 730h33q9 0 9 -7t-43.5 -109t-43.5 -107q0 -7 6 -7q11 0 38.5 29.5t31.5 29.5q12 0 12 -11q0 -8 -48 -53.5t-69 -45.5q-28 0 -28 14q0 9 12 42l12 33q0 5 -5 5 q-3 0 -14 -14q-59 -80 -113 -80q-36 0 -36 49q0 29 23.5 80t70.5 98t99 47q12 0 22 -8q9 -9 12 -9q4 0 7.5 12t11.5 12z" />
<glyph unicode="&#xab;" d="M323 227q2 -4 29 -45l48 -76q22 -35 22 -42q0 -8 -9 -8q-5 0 -24 20q-25 27 -67 65l-70 63q-27 24 -27 27q0 4 35 25l97 59q62 38 107 72q29 22 35 22q10 0 10 -12q0 -10 -80 -81t-106 -89zM127 227q2 -4 29 -45l48 -76q22 -35 22 -42q0 -8 -9 -8q-5 0 -24 20 q-25 27 -67 65l-70 63q-27 24 -27 27q0 4 35 25l97 59q62 38 107 72q29 22 35 22q10 0 10 -12q0 -10 -80 -81t-106 -89z" />
<glyph unicode="&#xac;" d="M440 87v176h-380v60h440v-236h-60z" />
<glyph unicode="&#xad;" horiz-adv-x="389" d="M53 258h290q7 0 7 -8q0 -10 -6 -31t-11 -21h-291q-7 0 -7 7q0 10 6.5 31.5t11.5 21.5z" />
<glyph unicode="&#xae;" horiz-adv-x="775" d="M361 349v-126q1 -18 7.5 -24.5t21.5 -7.5h18v-26h-160v26h19q19 2 24 7t5 26v279q0 21 -7.5 28.5t-22.5 8.5h-18v26h160q32 0 55 -3t49.5 -12t40.5 -30t14 -54q0 -45 -31.5 -72t-77.5 -33v-2q53 -8 91 -96q20 -48 30 -60.5t26 -12.5h10v-26h-29q-50 0 -65 11.5t-37 60.5 q-4 10 -7 16q-29 69 -41.5 82.5t-57.5 13.5h-17zM361 515v-140h23q53 0 81.5 17t28.5 68q0 45 -29.5 62.5t-81.5 17.5q-12 0 -17 -8.5t-5 -16.5zM414 -14q-158 0 -267 107.5t-109 260.5q0 154 109 261.5t267 107.5t267.5 -107.5t109.5 -261.5q0 -153 -109.5 -260.5 t-267.5 -107.5zM414 38q130 0 221 93t91 223t-91 223.5t-221 93.5t-220.5 -93t-90.5 -224q0 -130 90.5 -223t220.5 -93z" />
<glyph unicode="&#xaf;" horiz-adv-x="278" d="M346 574h-259l8 48h259z" />
<glyph unicode="&#x2c9;" horiz-adv-x="278" d="M346 574h-259l8 48h259z" />
<glyph unicode="&#xb0;" horiz-adv-x="400" d="M260 398q-63 0 -109 44t-46 106q-1 61 45.5 105.5t109.5 44.5q62 0 108.5 -44.5t46.5 -105.5q0 -62 -46.5 -106t-108.5 -44zM260 438q45 0 75 32t30 78t-30.5 78t-75.5 32t-75 -32.5t-29 -77.5q0 -46 30 -78t75 -32z" />
<glyph unicode="&#xb1;" d="M250 304v136h60v-136h190v-60h-190v-139h-60v139h-190v60h190zM60 0v60h440v-60h-440z" />
<glyph unicode="&#xb2;" horiz-adv-x="311" d="M152 320h120q14 0 29 16t21 16q13 0 13 -10q0 -2 -2 -6l-9 -18q-8 -15 -16 -33q-6 -14 -15 -14h-217q-7 0 -7 12q0 9 32 46l71 80q38 42 70 92t32 81q0 61 -60 61q-25 0 -44.5 -8.5t-29 -17t-10.5 -8.5q-13 0 -13 14q0 3 15 20t47.5 35.5t68.5 18.5q51 0 81 -28t30 -73 q0 -29 -34.5 -76t-75.5 -86l-75 -72q-35 -33 -35 -37q0 -5 13 -5z" />
<glyph unicode="&#xb3;" horiz-adv-x="311" d="M332 434q0 -49 -35 -84.5t-84.5 -51.5t-84.5 -22.5t-53 -6.5q-7 0 -7 12q0 3 3 5t8 3l9 3q4 2 9 3t6 1q50 15 82 31.5t44.5 34.5t15.5 29t4 26q0 27 -17.5 45t-46.5 18q-17 0 -34.5 -6.5t-18.5 -6.5q-7 0 -7 11q0 10 11 14q146 49 146 117q0 19 -11 31.5t-30 12.5 t-36.5 -8.5t-28.5 -16.5t-13 -8q-11 0 -11 9q0 16 42 42t89 26q33 0 55 -19t22 -46q0 -35 -29.5 -65t-63.5 -48q28 -9 46.5 -32t18.5 -53z" />
<glyph unicode="&#xb4;" horiz-adv-x="278" d="M200 530h-30l112 113q54 54 75 54q12 0 21.5 -10t9.5 -22q0 -11 -7.5 -19t-47.5 -34t-133 -82z" />
<glyph unicode="&#xb5;" d="M330 0h-40q-13 0 -13 10t28 98.5t28 93.5q0 6 -3 6q-1 0 -26.5 -35t-63 -82t-63.5 -69q-39 -34 -67 -34q-13 0 -20 6.5t-14 25.5q-8 -17 -13.5 -63t-5.5 -72q0 -13 4 -34.5t4 -34.5q0 -16 -25 -16q-20 0 -37.5 24.5t-17.5 35.5q0 43 47 172l95 248q48 119 48 136 q0 11 -12 11q-22 0 -63 -37.5t-59 -99.5q-1 -4 -9 -4t-8 12q0 21 26.5 65t56.5 63q50 30 140 30q18 0 18 -17q0 -6 -71.5 -179.5t-71.5 -199.5q0 -9 6.5 -14.5t12.5 -5.5q26 0 57 30t88 110q55 74 70 115l22 63l14 45l9 26.5t7 15t7 3.5h59q13 0 13 -7q0 -8 -63 -190.5 t-63 -194.5q0 -13 8 -13q20 0 47 28.5t45.5 57.5t19.5 29q14 0 14 -8q0 -12 -22.5 -47t-63.5 -69t-79 -34z" />
<glyph unicode="&#x3bc;" d="M330 0h-40q-13 0 -13 10t28 98.5t28 93.5q0 6 -3 6q-1 0 -26.5 -35t-63 -82t-63.5 -69q-39 -34 -67 -34q-13 0 -20 6.5t-14 25.5q-8 -17 -13.5 -63t-5.5 -72q0 -13 4 -34.5t4 -34.5q0 -16 -25 -16q-20 0 -37.5 24.5t-17.5 35.5q0 43 47 172l95 248q48 119 48 136 q0 11 -12 11q-22 0 -63 -37.5t-59 -99.5q-1 -4 -9 -4t-8 12q0 21 26.5 65t56.5 63q50 30 140 30q18 0 18 -17q0 -6 -71.5 -179.5t-71.5 -199.5q0 -9 6.5 -14.5t12.5 -5.5q26 0 57 30t88 110q55 74 70 115l22 63l14 45l9 26.5t7 15t7 3.5h59q13 0 13 -7q0 -8 -63 -190.5 t-63 -194.5q0 -13 8 -13q20 0 47 28.5t45.5 57.5t19.5 29q14 0 14 -8q0 -12 -22.5 -47t-63.5 -69t-79 -34z" />
<glyph unicode="&#xb6;" horiz-adv-x="650" d="M438 -169l-7 -29h-350l7 29h70l117 500q-110 0 -153.5 34.5t-43.5 98.5q0 121 68 183t196 62h305l-7 -29h-70l-198 -849h66zM219 -169h92l198 849h-92zM282 360l74 320q-91 4 -112 -78q-10 -40 -20 -76t-14.5 -51t-7 -28t-2.5 -23q0 -16 1.5 -24.5t8.5 -19.5t25 -15.5 t47 -4.5z" />
<glyph unicode="&#xb7;" horiz-adv-x="259" d="M192 219q0 -23 -17 -39.5t-40 -16.5t-40 16.5t-17 39.5t17.5 40.5t39.5 17.5q23 0 40 -17.5t17 -40.5z" />
<glyph unicode="&#x2219;" horiz-adv-x="259" d="M192 219q0 -23 -17 -39.5t-40 -16.5t-40 16.5t-17 39.5t17.5 40.5t39.5 17.5q23 0 40 -17.5t17 -40.5z" />
<glyph unicode="&#xb8;" horiz-adv-x="278" d="M41 -86l61 93h36l-44 -65q1 0 9.5 2t12.5 2q37 0 60 -18t23 -55q0 -41 -37.5 -60.5t-82.5 -19.5q-41 0 -89 20l18 27q34 -14 55 -14q67 0 67 45q0 19 -13 29.5t-32 10.5q-17 0 -38 -7z" />
<glyph unicode="&#xb9;" horiz-adv-x="311" d="M209 635h-38q-11 0 -11 7q0 14 14 17q33 6 60 15.5t41 16t19 6.5q19 0 19 -6q0 -5 -11 -43q-82 -286 -82 -336q0 -19 26 -19q19 0 24 -2t5 -10q0 -12 -9 -12q-4 0 -30.5 1t-58.5 1q-27 0 -47.5 -0.5t-31 -1t-14.5 -0.5t-4 17q0 7 9 7q32 0 42.5 7t16.5 29q74 271 74 295 q0 11 -13 11z" />
<glyph unicode="&#xba;" horiz-adv-x="250" d="M250 634q0 63 -34 63q-31 0 -57 -56.5t-26 -102.5q0 -63 34 -63q31 0 57 56.5t26 102.5zM219 723q40 0 67 -25.5t27 -65.5q0 -65 -44 -124t-110 -59q-39 0 -64 31t-25 61q0 66 43.5 124t105.5 58z" />
<glyph unicode="&#xbb;" d="M196 231q-2 4 -29 45l-48 76q-22 35 -22 42q0 8 9 8q5 0 24 -20q25 -27 67 -65l70 -63q27 -24 27 -27q0 -4 -35 -25l-97 -59q-62 -38 -107 -72q-29 -22 -35 -22q-10 0 -10 12q0 10 80 81t106 89zM392 231q-2 4 -29 45l-48 76q-22 35 -22 42q0 8 9 8q5 0 24 -20 q25 -27 67 -65l70 -63q27 -24 27 -27q0 -4 -35 -25l-97 -59q-62 -38 -107 -72q-29 -22 -35 -22q-10 0 -10 12q0 10 80 81t106 89z" />
<glyph unicode="&#xbc;" horiz-adv-x="778" d="M230 0h-40l397 689h40zM628 184l46 161q-17 -10 -92.5 -81.5t-75.5 -76.5q0 -3 11 -3h111zM683 143l-37 -143h-65l38 143h-164q-14 0 -14 8t47 57q47 48 104.5 99.5t96 81.5t43.5 30q26 0 26 -6l-9 -34l-55 -195h72l-9 -41h-74zM209 635h-38q-11 0 -11 7q0 14 14 17 q33 6 60 15.5t41 16t19 6.5q19 0 19 -6q0 -5 -11 -43q-82 -286 -82 -336q0 -19 26 -19q19 0 24 -2t5 -10q0 -12 -9 -12q-4 0 -30.5 1t-58.5 1q-27 0 -47.5 -0.5t-31 -1t-14.5 -0.5t-4 17q0 7 9 7q32 0 42.5 7t16.5 29q74 271 74 295q0 11 -13 11z" />
<glyph unicode="&#xbd;" horiz-adv-x="778" d="M230 0h-40l397 689h40zM209 635h-38q-11 0 -11 7q0 14 14 17q33 6 60 15.5t41 16t19 6.5q19 0 19 -6q0 -5 -11 -43q-82 -286 -82 -336q0 -19 26 -19q19 0 24 -2t5 -10q0 -12 -9 -12q-4 0 -30.5 1t-58.5 1q-27 0 -47.5 -0.5t-31 -1t-14.5 -0.5t-4 17q0 7 9 7q32 0 42.5 7 t16.5 29q74 271 74 295q0 11 -13 11zM561 49h120q15 0 30 16t20 16q13 0 13 -10q0 -2 -2 -6l-9 -19q-8 -14 -16 -32q-6 -14 -15 -14h-217q-7 0 -7 12q0 10 51 66t102.5 124.5t51.5 108.5q0 61 -60 61q-25 0 -44.5 -8.5t-29 -17t-10.5 -8.5q-13 0 -13 14q0 3 15 20t47.5 35.5 t68.5 18.5q51 0 81 -28t30 -73q0 -29 -34.5 -76t-75.5 -87l-75 -72q-35 -32 -35 -36q0 -5 13 -5z" />
<glyph unicode="&#xbe;" horiz-adv-x="778" d="M235 0h-40l397 689h40zM608 184l46 161q-17 -10 -92.5 -81.5t-75.5 -76.5q0 -3 11 -3h111zM663 143l-37 -143h-65l38 143h-164q-14 0 -14 8t47 57q47 48 104.5 99.5t96 81.5t43.5 30q26 0 26 -6l-9 -34l-55 -195h72l-9 -41h-74zM332 434q0 -49 -35 -84.5t-84.5 -51.5 t-84.5 -22.5t-53 -6.5q-7 0 -7 12q0 3 3 5t8 4l9 2q4 2 9 3t6 1q50 15 82 31.5t44.5 34.5t15.5 29t4 26q0 27 -17.5 45t-46.5 18q-17 0 -34.5 -6.5t-18.5 -6.5q-7 0 -7 11q0 10 11 14q146 49 146 117q0 19 -11 31.5t-30 12.5t-36.5 -8.5t-28.5 -16.5t-13 -8q-11 0 -11 9 q0 16 42 42t89 26q33 0 55 -19t22 -46q0 -35 -29.5 -65t-63.5 -48q28 -9 46.5 -32t18.5 -53z" />
<glyph unicode="&#xbf;" horiz-adv-x="426" d="M-6 -130q0 22 6 42t13 33.5t23.5 30.5t25.5 24.5t32.5 25t30.5 23.5q78 61 97 83.5t19 60.5q0 4 -3.5 13.5t-17 21t-34.5 11.5q-14 0 -29 -6.5t-25 -12.5l-10 -6q-5 0 -9 5t-4 7q0 10 31.5 24.5t57.5 14.5q39 0 67.5 -30t28.5 -70q0 -19 -2.5 -34.5t-11.5 -30.5l-14 -24 q-6 -9 -22 -22l-25 -20q-8 -7 -31.5 -23.5t-33.5 -24.5l-20 -14q-15 -11 -20 -15l-18 -14q-13 -10 -18 -15.5t-15 -15t-14 -16t-9 -16t-7 -18.5t-2 -18q0 -36 21.5 -54t40.5 -18q24 0 52.5 25.5t49.5 25.5q18 0 29.5 -10t11.5 -28q0 -28 -22.5 -40.5t-52.5 -12.5 q-71 0 -119 35t-48 103zM333 394q0 -23 -17 -39.5t-40 -16.5t-40 16.5t-17 39.5t17.5 40.5t39.5 17.5q23 0 40 -17.5t17 -40.5z" />
<glyph unicode="&#xc0;" horiz-adv-x="685" d="M273 318h199q8 0 10 12l40 288l-2 2q-92 -94 -131 -140q-124 -145 -124 -156q0 -6 8 -6zM460 285h-216q-6 0 -11.5 -3.5t-26.5 -26.5t-54 -67q0 -1 -10 -14l-16 -20l-15 -22t-14.5 -25t-9 -22.5t-4.5 -22.5q0 -38 81 -38q13 0 13 -8q0 -3 -2.5 -10.5t-6.5 -7.5 q-2 0 -11.5 0.5t-35.5 1t-69 0.5q-41 0 -66.5 -0.5t-35 -1t-12.5 -0.5q-4 0 -5 1.5t-1 8.5q0 16 12 16q9 0 24.5 4t20.5 9q37 40 73 84l77 95l51 64l53 66l47 57l37 44l35 42l29 33l30 34l28 30l34 35l36 34q78 75 92 75q11 0 11 -17q0 -3 -7.5 -64.5t-19.5 -152t-22 -155.5 q-34 -238 -34 -281q0 -36 70 -36q16 0 16 -8q0 -18 -14 -18q-1 0 -13 0.5t-40 1t-69 0.5h-59q-26 0 -39 -0.5t-21 -1t-11 -0.5h-5q-6 0 -6 7q0 12 4.5 15.5t24.5 3.5q44 0 54.5 12.5t19.5 64.5q21 123 21 176q0 8 -12 8zM596 792h-29q-76 58 -109.5 85.5t-39.5 35.5t-6 17 q0 12 9 22t21 10q22 0 40 -24z" />
<glyph unicode="&#xc1;" horiz-adv-x="685" d="M273 318h199q8 0 10 12l40 288l-2 2q-92 -94 -131 -140q-124 -145 -124 -156q0 -6 8 -6zM460 285h-216q-6 0 -11.5 -3.5t-26.5 -26.5t-54 -67q0 -1 -10 -14l-16 -20l-15 -22t-14.5 -25t-9 -22.5t-4.5 -22.5q0 -38 81 -38q13 0 13 -8q0 -3 -2.5 -10.5t-6.5 -7.5 q-2 0 -11.5 0.5t-35.5 1t-69 0.5q-41 0 -66.5 -0.5t-35 -1t-12.5 -0.5q-4 0 -5 1.5t-1 8.5q0 16 12 16q9 0 24.5 4t20.5 9q37 40 73 84l77 95l51 64l54 66l46 56l37 45l35 41l29 34q20 23 31 34l28 30q17 19 33 34l36 35q78 75 92 75q11 0 11 -17q0 -3 -7.5 -64.5 t-19.5 -152t-22 -155.5q-34 -238 -34 -281q0 -36 70 -36q16 0 16 -8q0 -18 -14 -18q-1 0 -13 0.5t-40 1t-69 0.5h-59q-26 0 -39 -0.5t-21 -1t-12 -0.5h-4q-6 0 -6 7q0 12 4.5 15.5t24.5 3.5q44 0 54.5 12.5t19.5 64.5q21 123 21 176q0 8 -12 8zM604 795h-30l112 113 q54 54 75 54q12 0 21.5 -10t9.5 -22q0 -11 -7.5 -19t-47.5 -34t-133 -82z" />
<glyph unicode="&#xc2;" horiz-adv-x="685" d="M273 318h199q8 0 10 12l40 288l-2 2q-92 -94 -131 -140q-124 -145 -124 -156q0 -6 8 -6zM460 285h-216q-6 0 -11.5 -3.5t-26.5 -26.5t-54 -67q0 -1 -10 -14l-16 -20l-15 -22t-14.5 -25t-9 -22.5t-4.5 -22.5q0 -38 81 -38q13 0 13 -8q0 -3 -2.5 -10.5t-6.5 -7.5 q-2 0 -11.5 0.5t-35.5 1t-69 0.5q-41 0 -66.5 -0.5t-35 -1t-12.5 -0.5q-4 0 -5 1.5t-1 8.5q0 16 12 16q9 0 24.5 4t20.5 9q37 40 73 84l77 95l51 64l53 66l47 57l37 44l35 42l29 33l30 34l28 30l34 35l36 34q78 75 92 75q11 0 11 -17q0 -3 -7.5 -64.5t-19.5 -152t-22 -155.5 q-34 -238 -34 -281q0 -36 70 -36q16 0 16 -8q0 -18 -14 -18q-1 0 -13 0.5t-40 1t-69 0.5h-59q-26 0 -39 -0.5t-21 -1t-11 -0.5h-5q-6 0 -6 7q0 12 4.5 15.5t24.5 3.5q44 0 54.5 12.5t19.5 64.5q21 123 21 176q0 8 -12 8zM630 962l88 -168h-33l-82 108l-135 -108h-37l161 168 h38z" />
<glyph unicode="&#xc3;" horiz-adv-x="685" d="M273 318h199q8 0 10 12l40 288l-2 2q-92 -94 -131 -140q-124 -145 -124 -156q0 -6 8 -6zM460 285h-216q-6 0 -11.5 -3.5t-26.5 -26.5t-54 -67q0 -1 -10 -14l-16 -20l-15 -22t-14.5 -25t-9 -22.5t-4.5 -22.5q0 -38 81 -38q13 0 13 -8q0 -3 -2.5 -10.5t-6.5 -7.5 q-2 0 -11.5 0.5t-35.5 1t-69 0.5q-41 0 -66.5 -0.5t-35 -1t-12.5 -0.5q-4 0 -5 1.5t-1 8.5q0 16 12 16q9 0 24.5 4t20.5 9q37 40 73 84l77 95l51 64l53 66l47 57l37 44l35 42l29 33l30 34l28 30l34 35l36 34q78 75 92 75q11 0 11 -17q0 -3 -7.5 -64.5t-19.5 -152t-22 -155.5 q-34 -238 -34 -281q0 -36 70 -36q16 0 16 -8q0 -18 -14 -18q-1 0 -13 0.5t-40 1t-69 0.5h-59q-26 0 -39 -0.5t-21 -1t-11 -0.5h-5q-6 0 -6 7q0 12 4.5 15.5t24.5 3.5q44 0 54.5 12.5t19.5 64.5q21 123 21 176q0 8 -12 8zM455 823h-27q10 40 39.5 68t68.5 28q12 0 30.5 -6.5 t41 -17t28.5 -12.5q27 -9 36 -9q33 0 55 50h26q-8 -42 -36 -71t-69 -29q-23 0 -69 22q-48 22 -64 22q-40 0 -60 -45z" />
<glyph unicode="&#xc4;" horiz-adv-x="685" d="M273 318h199q8 0 10 12l40 288l-2 2q-92 -94 -131 -140q-124 -145 -124 -156q0 -6 8 -6zM460 285h-216q-6 0 -11.5 -3.5t-26.5 -26.5t-54 -67q0 -1 -10 -14l-16 -20l-15 -22t-14.5 -25t-9 -22.5t-4.5 -22.5q0 -38 81 -38q13 0 13 -8q0 -3 -2.5 -10.5t-6.5 -7.5 q-2 0 -11.5 0.5t-35.5 1t-69 0.5q-41 0 -66.5 -0.5t-35 -1t-12.5 -0.5q-4 0 -5 1.5t-1 8.5q0 16 12 16q9 0 24.5 4t20.5 9q37 40 73 84l77 95l51 64l54 66l46 56l37 45l35 41l29 34q20 23 31 34l28 30q17 19 33 34l36 35q78 75 92 75q11 0 11 -17q0 -3 -7.5 -64.5 t-19.5 -152t-22 -155.5q-34 -238 -34 -281q0 -36 70 -36q16 0 16 -8q0 -18 -14 -18q-1 0 -13 0.5t-40 1t-69 0.5h-59q-26 0 -39 -0.5t-21 -1t-12 -0.5h-4q-6 0 -6 7q0 12 4.5 15.5t24.5 3.5q44 0 54.5 12.5t19.5 64.5q21 123 21 176q0 8 -12 8zM454 862q0 19 13 32t32 13 t32 -13t13 -32t-13 -32t-32 -13t-32 13t-13 32zM654 862q0 19 13 32t32 13t32 -13t13 -32t-13 -32t-32 -13t-32 13t-13 32z" />
<glyph unicode="&#xc5;" horiz-adv-x="685" d="M273 318h199q8 0 10 12l40 288l-2 2q-92 -94 -131 -140q-124 -145 -124 -156q0 -6 8 -6zM460 285h-216q-6 0 -11.5 -3.5t-26.5 -26.5t-54 -67q0 -1 -10 -14l-16 -20l-15 -22t-14.5 -25t-9 -22.5t-4.5 -22.5q0 -38 81 -38q13 0 13 -8q0 -3 -2.5 -10.5t-6.5 -7.5 q-2 0 -11.5 0.5t-35.5 1t-69 0.5q-41 0 -66.5 -0.5t-35 -1t-12.5 -0.5q-4 0 -5 1.5t-1 8.5q0 16 12 16q9 0 24.5 4t20.5 9q37 40 73 84l77 95l51 64l54 66l46 56l37 45l35 41l29 34q20 23 31 34l28 30q17 19 33 34l36 35q78 75 92 75q11 0 11 -17q0 -3 -7.5 -64.5 t-19.5 -152t-22 -155.5q-34 -238 -34 -281q0 -36 70 -36q16 0 16 -8q0 -18 -14 -18q-1 0 -13 0.5t-40 1t-69 0.5h-59q-26 0 -39 -0.5t-21 -1t-12 -0.5h-4q-6 0 -6 7q0 12 4.5 15.5t24.5 3.5q44 0 54.5 12.5t19.5 64.5q21 123 21 176q0 8 -12 8zM587 768q-40 0 -69.5 29 t-29.5 68t29.5 68t69.5 29t69.5 -29t29.5 -68t-29.5 -68t-69.5 -29zM587 933q-28 0 -47.5 -20t-19.5 -48t19.5 -48t47.5 -20t47.5 20t19.5 48t-19.5 48t-47.5 20z" />
<glyph unicode="&#xc6;" horiz-adv-x="926" d="M274 318h174q14 0 16 8l88 345l-2 2q-65 -71 -174 -204.5t-109 -141.5q0 -9 7 -9zM441 285h-191q-14 0 -29 -16q-138 -155 -138 -207q0 -12 9.5 -20.5t24 -12t23.5 -4.5t16 -1q13 0 16 -3.5t3 -9.5q0 -5 -5 -9t-12 -4q-2 0 -11.5 0.5t-31.5 1t-54 0.5q-40 0 -66.5 -0.5 t-38 -1t-14.5 -0.5q-10 0 -10 12q0 14 28 14q20 0 41 24l468 582q15 20 15 29q0 8 -3.5 12.5t-19.5 8t-45 3.5q-13 0 -13 10q0 20 25 20h3h7q5 0 12 -0.5t20 -0.5h31q18 0 46 -0.5t61 -0.5h81h103q26 0 69 1t52 1q7 0 11.5 -4.5t4.5 -10.5q2 -34 5 -72l5 -62q2 -23 2 -29 q0 -11 -18 -11q-4 0 -12 16l-25 50q-17 34 -33 61q-17 29 -46 29h-125q-28 0 -37 -15.5t-26 -83.5q-43 -171 -43 -181q0 -9 15 -9h119q38 0 60 47q31 69 40 69q18 0 18 -7q0 -5 -10 -33l-29 -89q-20 -60 -38 -124q-8 -30 -16 -30q-17 0 -17 9q0 1 1 8.5t2.5 22t1.5 33.5 q0 35 -10 49.5t-31 15.5q-99 3 -107 3q-4 0 -9 -5t-6 -9q-69 -278 -69 -291q0 -29 53 -29h194q9 0 16 2.5t15.5 9.5t14.5 14t16 22l19 27l23 36l28 43q2 4 9 4q14 0 14 -6t-16 -83t-16 -88q0 -14 -22 -14q-5 0 -27.5 0.5t-92 1t-188.5 0.5h-97q-43 0 -64.5 -0.5t-35 -1 t-18.5 -0.5h-5q-9 0 -9 8q0 6 1 9.5t4.5 6t10.5 2.5q68 0 75 30q2 8 17 60l28 102q13 49 13 59t-10 10z" />
<glyph unicode="&#xc7;" horiz-adv-x="667" d="M628 582q-19 112 -155 112q-68 0 -124 -43.5t-88.5 -105.5t-55 -133t-31 -121t-8.5 -75q0 -87 45 -139t138 -52q15 0 35.5 5t50.5 18.5t60 44t49 74.5q8 19 20 19q16 0 16 -9q0 -34 -37 -145q-7 -20 -28 -25q-66 -15 -161 -15q-58 0 -106.5 15.5t-89 48t-63.5 91.5 t-23 139q0 42 12.5 94.5t42.5 113t73.5 110.5t112.5 84t151 35q45 1 91 -16t76 -34t37 -17q2 0 13 7.5t17 7.5q12 0 12 -12q0 -3 -3.5 -14.5t-14 -50t-22.5 -93.5q-4 -16 -17 -16q-8 0 -11.5 9.5t-7 40t-6.5 47.5zM246 -86l61 93h36l-44 -65q1 0 9.5 2t12.5 2q37 0 60 -18 t23 -55q0 -41 -37.5 -60.5t-82.5 -19.5q-41 0 -89 20l18 27q34 -14 55 -14q67 0 67 45q0 19 -13 29.5t-32 10.5q-17 0 -38 -7z" />
<glyph unicode="&#xc8;" horiz-adv-x="630" d="M233 31h209q9 0 16 2.5t15.5 9.5t14.5 14t16 22l19 27l23 36l28 43q2 4 9 4q14 0 14 -6t-16 -83t-16 -88q0 -14 -22 -14q-4 0 -27.5 0.5t-97 1t-198.5 0.5h-98q-42 0 -63.5 -0.5t-35 -1t-18.5 -0.5h-5q-9 0 -9 8q0 6 1 9.5t4.5 6t10.5 2.5q68 0 75 30q151 586 150 596 q0 9 -1.5 12.5t-6 8t-16 6.5t-30.5 3q-46 3 -49 8q-1 1 -1 3q0 22 7 22q4 0 166 -1t195 -1q26 0 69 1t52 1q7 0 11.5 -4.5t4.5 -10.5q2 -34 5 -72l5 -62q2 -23 2 -29q0 -11 -18 -11q-4 0 -12 16l-25 50q-17 34 -33 61q-17 29 -46 29h-140q-28 0 -37 -15.5t-26 -83.5 q-43 -171 -43 -181q0 -9 15 -9h134q38 0 60 47q31 69 40 69q18 0 18 -7q0 -5 -10 -33l-29 -89q-20 -60 -38 -124q-8 -30 -16 -30q-17 0 -17 9q0 1 1 8.5t2.5 22t1.5 33.5q0 36 -12.5 50t-43.5 15q-99 3 -107 3q-4 0 -9 -5t-6 -9q-69 -278 -69 -291q0 -29 53 -29zM458 792 h-29q-76 58 -109.5 85.5t-39.5 35.5t-6 17q0 12 9 22t21 10q22 0 40 -24z" />
<glyph unicode="&#xc9;" horiz-adv-x="630" d="M233 31h209q9 0 16 2.5t15.5 9.5t14.5 14t16 22l19 27l23 36l28 43q2 4 9 4q14 0 14 -6t-16 -83t-16 -88q0 -14 -22 -14q-4 0 -27.5 0.5t-97 1t-198.5 0.5h-98q-42 0 -63.5 -0.5t-35 -1t-18.5 -0.5h-5q-9 0 -9 8q0 6 1 9.5t4.5 6t10.5 2.5q68 0 75 30q151 586 150 596 q0 9 -1.5 12.5t-6 8t-16 6.5t-30.5 3q-46 3 -49 8q-1 1 -1 3q0 22 7 22q4 0 166 -1t195 -1q26 0 69 1t52 1q7 0 11.5 -4.5t4.5 -10.5q2 -34 5 -72l5 -62q2 -23 2 -29q0 -11 -18 -11q-4 0 -12 16l-25 50q-17 34 -33 61q-17 29 -46 29h-140q-28 0 -37 -15.5t-26 -83.5 q-43 -171 -43 -181q0 -9 15 -9h134q38 0 60 47q31 69 40 69q18 0 18 -7q0 -5 -10 -33l-29 -89q-20 -60 -38 -124q-8 -30 -16 -30q-17 0 -17 9q0 1 1 8.5t2.5 22t1.5 33.5q0 36 -12.5 50t-43.5 15q-99 3 -107 3q-4 0 -9 -5t-6 -9q-69 -278 -69 -291q0 -29 53 -29zM426 795 h-30l112 113q54 54 75 54q12 0 21.5 -10t9.5 -22q0 -11 -7.5 -19t-47.5 -34t-133 -82z" />
<glyph unicode="&#xca;" horiz-adv-x="630" d="M233 31h209q9 0 16 2.5t15.5 9.5t14.5 14t16 22l19 27l23 36l28 43q2 4 9 4q14 0 14 -6t-16 -83t-16 -88q0 -14 -22 -14q-4 0 -27.5 0.5t-97 1t-198.5 0.5h-98q-42 0 -63.5 -0.5t-35 -1t-18.5 -0.5h-5q-9 0 -9 8q0 6 1 9.5t4.5 6t10.5 2.5q68 0 75 30q151 586 150 596 q0 9 -1.5 12.5t-6 8t-16 6.5t-30.5 3q-46 3 -49 8q-1 1 -1 3q0 22 7 22q4 0 166 -1t195 -1q26 0 69 1t52 1q7 0 11.5 -4.5t4.5 -10.5q2 -34 5 -72l5 -62q2 -23 2 -29q0 -11 -18 -11q-4 0 -12 16l-25 50q-17 34 -33 61q-17 29 -46 29h-140q-28 0 -37 -15.5t-26 -83.5 q-43 -171 -43 -181q0 -9 15 -9h134q38 0 60 47q31 69 40 69q18 0 18 -7q0 -5 -10 -33l-29 -89q-20 -60 -38 -124q-8 -30 -16 -30q-17 0 -17 9q0 1 1 8.5t2.5 22t1.5 33.5q0 36 -12.5 50t-43.5 15q-99 3 -107 3q-4 0 -9 -5t-6 -9q-69 -278 -69 -291q0 -29 53 -29zM482 962 l88 -168h-33l-82 108l-135 -108h-37l161 168h38z" />
<glyph unicode="&#xcb;" horiz-adv-x="630" d="M233 31h209q9 0 16 2.5t15.5 9.5t14.5 14t16 22l19 27l23 36l28 43q2 4 9 4q14 0 14 -6t-16 -83t-16 -88q0 -14 -22 -14q-4 0 -27.5 0.5t-97 1t-198.5 0.5h-98q-42 0 -63.5 -0.5t-35 -1t-18.5 -0.5h-5q-9 0 -9 8q0 6 1 9.5t4.5 6t10.5 2.5q68 0 75 30q151 586 150 596 q0 9 -1.5 12.5t-6 8t-16 6.5t-30.5 3q-46 3 -49 8q-1 1 -1 3q0 22 7 22q4 0 166 -1t195 -1q26 0 69 1t52 1q7 0 11.5 -4.5t4.5 -10.5q2 -34 5 -72l5 -62q2 -23 2 -29q0 -11 -18 -11q-4 0 -12 16l-25 50q-17 34 -33 61q-17 29 -46 29h-140q-28 0 -37 -15.5t-26 -83.5 q-43 -171 -43 -181q0 -9 15 -9h134q38 0 60 47q31 69 40 69q18 0 18 -7q0 -5 -10 -33l-29 -89q-20 -60 -38 -124q-8 -30 -16 -30q-17 0 -17 9q0 1 1 8.5t2.5 22t1.5 33.5q0 36 -12.5 50t-43.5 15q-99 3 -107 3q-4 0 -9 -5t-6 -9q-69 -278 -69 -291q0 -29 53 -29zM296 862 q0 19 13 32t32 13t32 -13t13 -32t-13 -32t-32 -13t-32 13t-13 32zM496 862q0 19 13 32t32 13t32 -13t13 -32t-13 -32t-32 -13t-32 13t-13 32z" />
<glyph unicode="&#xcc;" horiz-adv-x="352" d="M319 620q-130 -539 -130 -562q0 -12 3.5 -18t24.5 -11t64 -5q8 0 8 -8q0 -18 -12 -18q-43 0 -90 1t-59 1q-11 0 -53.5 -1t-81.5 -1q-6 0 -7 2t-1 10q0 14 8 14q61 0 76.5 10t25.5 51q135 531 135 556q0 9 -1 14.5t-6 13.5t-17.5 11.5t-33.5 3.5q-32 0 -32 13q0 4 3 10 t7 6q7 0 58.5 -2t77.5 -2q12 0 60 2t63 2q8 0 8 -11q0 -5 -3 -11.5t-6 -6.5q-49 0 -64 -11.5t-25 -52.5zM329 792h-29q-76 58 -109.5 85.5t-39.5 35.5t-6 17q0 12 9 22t21 10q22 0 40 -24z" />
<glyph unicode="&#xcd;" horiz-adv-x="352" d="M319 620q-130 -539 -130 -562q0 -12 3.5 -18t24.5 -11t64 -5q8 0 8 -8q0 -18 -12 -18q-43 0 -90 1t-59 1q-11 0 -53.5 -1t-81.5 -1q-6 0 -7 2t-1 10q0 14 8 14q61 0 76.5 10t25.5 51q135 531 135 556q0 9 -1 14.5t-6 13.5t-17.5 11.5t-33.5 3.5q-32 0 -32 13q0 4 3 10 t7 6q7 0 58.5 -2t77.5 -2q12 0 60 2t63 2q8 0 8 -11q0 -5 -3 -11.5t-6 -6.5q-49 0 -64 -11.5t-25 -52.5zM287 795h-30l112 113q54 54 75 54q12 0 21.5 -10t9.5 -22q0 -11 -7.5 -19t-47.5 -34t-133 -82z" />
<glyph unicode="&#xce;" horiz-adv-x="352" d="M319 620q-130 -539 -130 -562q0 -12 3.5 -18t24.5 -11t64 -5q8 0 8 -8q0 -18 -12 -18q-43 0 -90 1t-59 1q-11 0 -53.5 -1t-81.5 -1q-6 0 -7 2t-1 10q0 14 8 14q61 0 76.5 10t25.5 51q135 531 135 556q0 9 -1 14.5t-6 13.5t-17.5 11.5t-33.5 3.5q-32 0 -32 13q0 4 3 10 t7 6q7 0 58.5 -2t77.5 -2q12 0 60 2t63 2q8 0 8 -11q0 -5 -3 -11.5t-6 -6.5q-49 0 -64 -11.5t-25 -52.5zM353 962l88 -168h-33l-82 108l-135 -108h-37l161 168h38z" />
<glyph unicode="&#xcf;" horiz-adv-x="352" d="M319 620q-130 -539 -130 -562q0 -12 3.5 -18t24.5 -11t64 -5q8 0 8 -8q0 -18 -12 -18q-43 0 -90 1t-59 1q-11 0 -53.5 -1t-81.5 -1q-6 0 -7 2t-1 10q0 14 8 14q61 0 76.5 10t25.5 51q135 531 135 556q0 9 -1 14.5t-6 13.5t-17.5 11.5t-33.5 3.5q-32 0 -32 13q0 4 3 10 t7 6q7 0 58.5 -2t77.5 -2q12 0 60 2t63 2q8 0 8 -11q0 -5 -3 -11.5t-6 -6.5q-49 0 -64 -11.5t-25 -52.5zM167 862q0 19 13 32t32 13t32 -13t13 -32t-13 -32t-32 -13t-32 13t-13 32zM367 862q0 19 13 32t32 13t32 -13t13 -32t-13 -32t-32 -13t-32 13t-13 32z" />
<glyph unicode="&#xd0;" horiz-adv-x="778" d="M165 357h-128l9 33h126q55 252 55 270q0 8 -4 12.5t-22.5 8.5t-55.5 6q-17 1 -17 11q0 15 14 15q16 0 63 -1t71 -1q58 0 95 0.5t52 1t19 0.5q136 0 226.5 -84t90.5 -222q0 -79 -34.5 -159t-87.5 -134q-69 -70 -143.5 -93t-200.5 -23q-54 0 -96.5 0.5t-63.5 1t-22 0.5 q-5 0 -45.5 -1t-47.5 -1q-5 0 -5 8q0 18 15 18q46 0 57 9.5t22 59.5zM263 390h179l-9 -33h-177q-65 -281 -65 -302q0 -11 5 -16.5t27.5 -8.5t69.5 -3q158 0 261 117t103 277q0 127 -69.5 195t-201.5 68q-38 0 -48 -7t-20 -44z" />
<glyph unicode="&#xd1;" horiz-adv-x="778" d="M680 682l-50 8q-5 1 -5 10q0 13 11 13q23 0 62.5 -2t49.5 -2q4 0 46.5 2t71.5 2q18 0 18 -6q0 -19 -7 -19q-51 -1 -75 -18t-40 -61q-24 -68 -66.5 -232.5t-78.5 -335.5q-10 -52 -23 -52q-4 0 -9.5 8t-26.5 44l-50 86l-123 215q-104 183 -140 238q-116 -453 -120 -475 q-2 -14 -2 -25q0 -48 68 -53q31 -2 31 -9q0 -20 -15 -20q-4 0 -14.5 0.5t-35.5 1t-63 0.5q-41 0 -69.5 -1t-32.5 -1q-5 0 -5 10q0 5 3 10t5 5q17 2 27 4q30 7 48 34t41 115q109 420 109 439q0 9 -16 31.5t-24 26.5q-16 10 -72 15q-8 0 -8 12q0 13 15 13q13 0 43 -2t40 -2 t34.5 2t35.5 2q7 0 12.5 -4t8 -8.5t8.5 -16.5l9 -18l300 -519q122 480 122 488q0 24 -12.5 33.5t-35.5 13.5zM376 823h-27q10 40 39.5 68t68.5 28q12 0 30.5 -6.5t41 -17t28.5 -12.5q27 -9 36 -9q33 0 55 50h26q-8 -42 -36 -71t-69 -29q-23 0 -69 22q-48 22 -64 22 q-40 0 -60 -45z" />
<glyph unicode="&#xd2;" horiz-adv-x="741" d="M72 266q0 96 34.5 182.5t89.5 146t124.5 94t139.5 34.5q64 0 115 -25.5t81.5 -67t46 -89t15.5 -97.5q0 -113 -47.5 -217t-139.5 -172.5t-207 -68.5q-113 0 -182.5 80t-69.5 200zM161 199q0 -82 39.5 -133t114.5 -51q70 0 131 54.5t98 133.5t58.5 161.5t21.5 145.5 q0 95 -44 139.5t-111 44.5q-69 0 -130 -56t-98 -136.5t-58.5 -162t-21.5 -140.5zM504 792h-29q-76 58 -109.5 85.5t-39.5 35.5t-6 17q0 12 9 22t21 10q22 0 40 -24z" />
<glyph unicode="&#xd3;" horiz-adv-x="741" d="M72 266q0 96 34.5 182.5t89.5 146t124.5 94t139.5 34.5q64 0 115 -25.5t81.5 -67t46 -89t15.5 -97.5q0 -113 -47.5 -217t-139.5 -172.5t-207 -68.5q-113 0 -182.5 80t-69.5 200zM161 199q0 -82 39.5 -133t114.5 -51q70 0 131 54.5t98 133.5t58.5 161.5t21.5 145.5 q0 95 -44 139.5t-111 44.5q-69 0 -130 -56t-98 -136.5t-58.5 -162t-21.5 -140.5zM492 795h-30l112 113q54 54 75 54q12 0 21.5 -10t9.5 -22q0 -11 -7.5 -19t-47.5 -34t-133 -82z" />
<glyph unicode="&#xd4;" horiz-adv-x="741" d="M72 266q0 96 34.5 182.5t89.5 146t124.5 94t139.5 34.5q64 0 115 -25.5t81.5 -67t46 -89t15.5 -97.5q0 -113 -47.5 -217t-139.5 -172.5t-207 -68.5q-113 0 -182.5 80t-69.5 200zM161 199q0 -82 39.5 -133t114.5 -51q70 0 131 54.5t98 133.5t58.5 161.5t21.5 145.5 q0 95 -44 139.5t-111 44.5q-69 0 -130 -56t-98 -136.5t-58.5 -162t-21.5 -140.5zM538 962l88 -168h-33l-82 108l-135 -108h-37l161 168h38z" />
<glyph unicode="&#xd5;" horiz-adv-x="741" d="M72 266q0 96 34.5 182.5t89.5 146t124.5 94t139.5 34.5q64 0 115 -25.5t81.5 -67t46 -89t15.5 -97.5q0 -113 -47.5 -217t-139.5 -172.5t-207 -68.5q-113 0 -182.5 80t-69.5 200zM161 199q0 -82 39.5 -133t114.5 -51q70 0 131 54.5t98 133.5t58.5 161.5t21.5 145.5 q0 95 -44 139.5t-111 44.5q-69 0 -130 -56t-98 -136.5t-58.5 -162t-21.5 -140.5zM363 823h-27q10 40 39.5 68t68.5 28q12 0 30.5 -6.5t41 -17t28.5 -12.5q27 -9 36 -9q33 0 55 50h26q-8 -42 -36 -71t-69 -29q-23 0 -69 22q-48 22 -64 22q-40 0 -60 -45z" />
<glyph unicode="&#xd6;" horiz-adv-x="741" d="M72 266q0 96 34.5 182.5t89.5 146t124.5 94t139.5 34.5q64 0 115 -25.5t81.5 -67t46 -89t15.5 -97.5q0 -113 -47.5 -217t-139.5 -172.5t-207 -68.5q-113 0 -182.5 80t-69.5 200zM161 199q0 -82 39.5 -133t114.5 -51q70 0 131 54.5t98 133.5t58.5 161.5t21.5 145.5 q0 95 -44 139.5t-111 44.5q-69 0 -130 -56t-98 -136.5t-58.5 -162t-21.5 -140.5zM372 862q0 19 13 32t32 13t32 -13t13 -32t-13 -32t-32 -13t-32 13t-13 32zM572 862q0 19 13 32t32 13t32 -13t13 -32t-13 -32t-32 -13t-32 13t-13 32z" />
<glyph unicode="&#xd7;" d="M280 268l172 172l48 -48l-172 -172l172 -172l-48 -48l-172 172l-171 -172l-49 48l172 172l-172 172l49 48z" />
<glyph unicode="&#xd8;" horiz-adv-x="741" d="M612 597l-426 -513q46 -69 129 -69q70 0 131 54.5t98 133.5t58.5 161.5t21.5 145.5q0 44 -12 87zM170 122l423 509q-41 63 -124 63q-69 0 -130 -56t-98 -136.5t-58.5 -162t-21.5 -140.5q0 -47 9 -77zM86 -36l-28 23l75 91q-61 77 -61 188q0 96 34.5 182.5t89.5 146 t124.5 94t139.5 34.5q97 0 162 -57l69 84l28 -23l-71 -86q70 -82 70 -197q0 -113 -47.5 -217t-139.5 -172.5t-207 -68.5q-99 0 -165 64z" />
<glyph unicode="&#xd9;" horiz-adv-x="778" d="M125 185q0 34 10 86t32 146.5t35 160.5q14 68 14 80q0 27 -75 29q-9 0 -11 2.5t-2 11.5q0 12 8 12q2 0 53.5 -2t71.5 -2q35 0 83.5 2t52.5 2q7 0 7 -15q0 -14 -11 -14q-52 0 -64 -12q-14 -14 -34 -100l-33 -145l-22 -98q-13 -61 -16.5 -90.5t-3.5 -52.5q0 -48 18.5 -81 t48.5 -46.5t52.5 -18t45.5 -4.5q54 0 100.5 20t90.5 76t67 143q75 282 75 352q0 15 -3.5 24t-13.5 15t-14.5 7.5t-20.5 5.5q-28 7 -47 7q-6 0 -6 12q0 15 13 15q4 0 45 -2t52 -2q18 0 76.5 2t66.5 2q7 0 7 -13q-3 -10 -9 -11l-35 -5q-50 -7 -71 -77q-6 -18 -50 -204 t-75 -249q-42 -85 -110 -123.5t-169 -38.5q-100 0 -164.5 49.5t-64.5 143.5zM522 792h-29q-76 58 -109.5 85.5t-39.5 35.5t-6 17q0 12 9 22t21 10q22 0 40 -24z" />
<glyph unicode="&#xda;" horiz-adv-x="778" d="M125 185q0 34 10 86t32 146.5t35 160.5q14 68 14 80q0 27 -75 29q-9 0 -11 2.5t-2 11.5q0 12 8 12q2 0 53.5 -2t71.5 -2q35 0 83.5 2t52.5 2q7 0 7 -15q0 -14 -11 -14q-52 0 -64 -12q-14 -14 -34 -100l-33 -146l-22 -98q-13 -60 -16.5 -89.5t-3.5 -52.5q0 -48 18.5 -81 t48.5 -46.5t52.5 -18t45.5 -4.5q54 0 100.5 20t90.5 76t67 143q75 282 75 352q0 15 -3.5 24t-13.5 15t-14.5 7.5t-20.5 5.5q-28 7 -47 7q-6 0 -6 12q0 15 13 15q4 0 45 -2t52 -2q18 0 76.5 2t66.5 2q7 0 7 -13q-3 -10 -9 -11l-35 -5q-50 -7 -71 -77q-6 -18 -50 -204 t-75 -249q-42 -85 -110 -123.5t-169 -38.5q-100 0 -164.5 49.5t-64.5 143.5zM510 795h-30l112 113q54 54 75 54q12 0 21.5 -10t9.5 -22q0 -11 -7.5 -19t-47.5 -34t-133 -82z" />
<glyph unicode="&#xdb;" horiz-adv-x="778" d="M125 185q0 34 10 86t32 146.5t35 160.5q14 68 14 80q0 27 -75 29q-9 0 -11 2.5t-2 11.5q0 12 8 12q2 0 53.5 -2t71.5 -2q35 0 83.5 2t52.5 2q7 0 7 -15q0 -14 -11 -14q-52 0 -64 -12q-14 -14 -34 -100l-33 -145l-22 -98q-13 -61 -16.5 -90.5t-3.5 -52.5q0 -48 18.5 -81 t48.5 -46.5t52.5 -18t45.5 -4.5q54 0 100.5 20t90.5 76t67 143q75 282 75 352q0 15 -3.5 24t-13.5 15t-14.5 7.5t-20.5 5.5q-28 7 -47 7q-6 0 -6 12q0 15 13 15q4 0 45 -2t52 -2q18 0 76.5 2t66.5 2q7 0 7 -13q-3 -10 -9 -11l-35 -5q-50 -7 -71 -77q-6 -18 -50 -204 t-75 -249q-42 -85 -110 -123.5t-169 -38.5q-100 0 -164.5 49.5t-64.5 143.5zM576 962l88 -168h-33l-82 108l-135 -108h-37l161 168h38z" />
<glyph unicode="&#xdc;" horiz-adv-x="778" d="M125 185q0 34 10 86t32 146.5t35 160.5q14 68 14 80q0 27 -75 29q-9 0 -11 2.5t-2 11.5q0 12 8 12q2 0 53.5 -2t71.5 -2q35 0 83.5 2t52.5 2q7 0 7 -15q0 -14 -11 -14q-52 0 -64 -12q-14 -14 -34 -100l-33 -146l-22 -98q-13 -60 -16.5 -89.5t-3.5 -52.5q0 -48 18.5 -81 t48.5 -46.5t52.5 -18t45.5 -4.5q54 0 100.5 20t90.5 76t67 143q75 282 75 352q0 15 -3.5 24t-13.5 15t-14.5 7.5t-20.5 5.5q-28 7 -47 7q-6 0 -6 12q0 15 13 15q4 0 45 -2t52 -2q18 0 76.5 2t66.5 2q7 0 7 -13q-3 -10 -9 -11l-35 -5q-50 -7 -71 -77q-6 -18 -50 -204 t-75 -249q-42 -85 -110 -123.5t-169 -38.5q-100 0 -164.5 49.5t-64.5 143.5zM390 862q0 19 13 32t32 13t32 -13t13 -32t-13 -32t-32 -13t-32 13t-13 32zM590 862q0 19 13 32t32 13t32 -13t13 -32t-13 -32t-32 -13t-32 13t-13 32z" />
<glyph unicode="&#xdd;" horiz-adv-x="611" d="M329 355l65 73l75 83q33 36 53 56q24 24 36 41.5t14 25t2 19.5q0 31 -91 31q-5 0 -5 15q2 14 6 14q14 0 68 -2t63 -2q12 0 58 2t57 2q18 0 18 -10q0 -19 -24 -19t-38 -6t-34 -24q-21 -18 -46 -44l-48 -49l-86 -90l-115 -122q-22 -23 -33 -66q-8 -33 -20 -77l-18 -66 q-6 -22 -11 -45.5t-5 -37.5q0 -20 19.5 -26.5t69.5 -6.5q7 0 7 -9q0 -17 -7 -17q-13 0 -51.5 1t-95.5 1q-41 0 -85.5 -1t-54.5 -1q-7 0 -7 9q0 17 9 17q54 0 76 13t29 42l33 119q15 52 21 70t9 32.5t3 28.5q0 16 -57 305q-7 34 -21.5 42t-65.5 8q-13 0 -13 15q0 14 10 14 q1 0 42.5 -2t64.5 -2q30 0 87.5 2t58.5 2q11 0 11 -12q0 -17 -50 -17q-17 0 -27 -6t-10 -14q0 -7 2 -16l9 -44q7 -35 15 -84zM467 795h-30l112 113q54 54 75 54q12 0 21.5 -10t9.5 -22q0 -11 -7.5 -19t-47.5 -34t-133 -82z" />
<glyph unicode="&#xde;" horiz-adv-x="593" d="M340 525q-26 0 -36.5 -8.5t-17.5 -32.5q-60 -220 -60 -235q0 -17 79 -17q86 0 143.5 48.5t57.5 119.5t-43.5 98t-122.5 27zM320 551h96q96 0 141 -32.5t45 -108.5q0 -46 -17.5 -83.5t-44 -60.5t-59.5 -39t-63 -22t-56 -6q-21 0 -51.5 3.5t-52.5 6.5t-24 3q-8 0 -12.5 -5 t-8.5 -23l-8 -35q-8 -30 -13.5 -56t-5.5 -35q0 -12 3.5 -18t25.5 -11t66 -5q4 0 4 -11q0 -15 -12 -15q-27 0 -74.5 1t-70.5 1q-12 0 -53 -1t-67 -1q-9 0 -9 13t8 13q49 0 66 10t25 49q34 154 69 293l52 199q16 61 16 75q0 23 -14 28.5t-71 5.5q-12 0 -15 2t-3 8t4 12.5 t11 6.5q22 0 67.5 -2t71.5 -2q12 0 60 2t63 2q8 0 8 -11q0 -5 -3 -11.5t-6 -6.5q-49 0 -64 -11.5t-25 -52.5q-13 -51 -13 -53q0 -16 14 -16z" />
<glyph unicode="&#xdf;" d="M10 -113l128 531q12 49 24 87t34 84.5t48.5 76.5t67.5 50.5t91 20.5q60 0 99 -31t39 -91q0 -38 -27 -74.5t-113 -114.5q-19 -19 -19 -45q0 -17 38 -102q37 -84 37 -123q0 -53 -56 -110.5t-103 -57.5q-38 0 -64.5 23.5t-26.5 54.5q0 14 7.5 22.5t14.5 11t13 2.5 q22 0 35 -18t24.5 -36.5t29.5 -18.5q24 0 40 25t16 56q0 58 -34 126q-2 5 -10 20.5l-11 21.5l-7 18q-5 13 -6.5 23t-1.5 22q0 16 9.5 33.5t17 26t28.5 27.5l22 22q45 45 61 76.5t16 69.5q0 12 -2.5 26.5t-10.5 37t-28.5 37t-49.5 14.5q-28 0 -50.5 -16t-39 -47.5t-27 -62.5 t-22.5 -76l-153 -581q-22 -84 -76.5 -141t-134.5 -57q-19 0 -35 13t-16 31q0 12 10.5 24.5t27.5 12.5q20 0 48 -18t40 -18q18 0 30.5 25.5t27.5 86.5z" />
<glyph unicode="&#xe0;" horiz-adv-x="463" d="M102 44q32 0 88 66.5t98.5 148.5t42.5 123q0 18 -8.5 27t-32.5 9q-35 0 -73.5 -44t-66 -103t-45.5 -116t-18 -86q0 -25 15 -25zM389 456h48q6 0 6 -6q0 -10 -70.5 -187t-70.5 -195q0 -13 10 -13q17 0 61.5 53.5t48.5 53.5q9 0 9 -8q0 -6 -30.5 -45.5t-76 -80t-76.5 -40.5 t-31 23q0 11 16 54l32 83q15 39 15 40q0 5 -4 5t-11.5 -10t-16 -24.5t-12.5 -19.5q-113 -151 -195 -151q-40 0 -40 50q0 60 59 176.5t125 177.5q56 52 122 52q31 0 45 -14q2 -2 4 -5t3.5 -4.5t2.5 -3t2 -1.5q4 0 11 20t14 20zM365 527h-29q-76 58 -109.5 85.5t-39.5 35.5 t-6 17q0 12 9 22t21 10q22 0 40 -24z" />
<glyph unicode="&#xe1;" horiz-adv-x="463" d="M102 44q32 0 88 66.5t98.5 148.5t42.5 123q0 18 -8.5 27t-32.5 9q-35 0 -73.5 -44t-66 -103t-45.5 -116t-18 -86q0 -25 15 -25zM389 456h48q6 0 6 -6q0 -10 -70.5 -187t-70.5 -195q0 -13 10 -13q17 0 61.5 53.5t48.5 53.5q9 0 9 -8q0 -6 -30.5 -45.5t-76 -80t-76.5 -40.5 t-31 23q0 11 16 55l31 82q16 39 16 40q0 5 -4 5t-11.5 -10t-16 -24.5t-12.5 -19.5q-113 -151 -195 -151q-40 0 -40 50q0 60 59 176.5t125 177.5q56 52 122 52q31 0 45 -14q2 -2 4 -5t3.5 -4.5t2.5 -3t2 -1.5q4 0 11 20t14 20zM323 530h-30l112 113q54 54 75 54 q12 0 21.5 -10t9.5 -22q0 -11 -7.5 -19t-47.5 -34t-133 -82z" />
<glyph unicode="&#xe2;" horiz-adv-x="463" d="M102 44q32 0 88 66.5t98.5 148.5t42.5 123q0 18 -8.5 27t-32.5 9q-35 0 -73.5 -44t-66 -103t-45.5 -116t-18 -86q0 -25 15 -25zM389 456h48q6 0 6 -6q0 -10 -70.5 -187t-70.5 -195q0 -13 10 -13q17 0 61.5 53.5t48.5 53.5q9 0 9 -8q0 -6 -30.5 -45.5t-76 -80t-76.5 -40.5 t-31 23q0 11 16 54l32 83q15 39 15 40q0 5 -4 5t-11.5 -10t-16 -24.5t-12.5 -19.5q-113 -151 -195 -151q-40 0 -40 50q0 60 59 176.5t125 177.5q56 52 122 52q31 0 45 -14q2 -2 4 -5t3.5 -4.5t2.5 -3t2 -1.5q4 0 11 20t14 20zM359 697l88 -168h-33l-82 108l-135 -108h-37 l161 168h38z" />
<glyph unicode="&#xe3;" horiz-adv-x="463" d="M102 44q32 0 88 66.5t98.5 148.5t42.5 123q0 18 -8.5 27t-32.5 9q-35 0 -73.5 -44t-66 -103t-45.5 -116t-18 -86q0 -25 15 -25zM389 456h48q6 0 6 -6q0 -10 -70.5 -187t-70.5 -195q0 -13 10 -13q17 0 61.5 53.5t48.5 53.5q9 0 9 -8q0 -6 -30.5 -45.5t-76 -80t-76.5 -40.5 t-31 23q0 11 16 54l32 83q15 39 15 40q0 5 -4 5t-11.5 -10t-16 -24.5t-12.5 -19.5q-113 -151 -195 -151q-40 0 -40 50q0 60 59 176.5t125 177.5q56 52 122 52q31 0 45 -14q2 -2 4 -5t3.5 -4.5t2.5 -3t2 -1.5q4 0 11 20t14 20zM194 558h-27q10 40 39.5 68t68.5 28 q12 0 30.5 -6.5t41 -17t28.5 -12.5q27 -9 36 -9q33 0 55 50h26q-8 -42 -36 -71t-69 -29q-23 0 -69 22q-48 22 -64 22q-40 0 -60 -45z" />
<glyph unicode="&#xe4;" horiz-adv-x="463" d="M102 44q32 0 88 66.5t98.5 148.5t42.5 123q0 18 -8.5 27t-32.5 9q-35 0 -73.5 -44t-66 -103t-45.5 -116t-18 -86q0 -25 15 -25zM389 456h48q6 0 6 -6q0 -10 -70.5 -187t-70.5 -195q0 -13 10 -13q17 0 61.5 53.5t48.5 53.5q9 0 9 -8q0 -6 -30.5 -45.5t-76 -80t-76.5 -40.5 t-31 23q0 11 16 55l31 82q16 39 16 40q0 5 -4 5t-11.5 -10t-16 -24.5t-12.5 -19.5q-113 -151 -195 -151q-40 0 -40 50q0 60 59 176.5t125 177.5q56 52 122 52q31 0 45 -14q2 -2 4 -5t3.5 -4.5t2.5 -3t2 -1.5q4 0 11 20t14 20zM203 597q0 19 13 32t32 13t32 -13t13 -32 t-13 -32t-32 -13t-32 13t-13 32zM403 597q0 19 13 32t32 13t32 -13t13 -32t-13 -32t-32 -13t-32 13t-13 32z" />
<glyph unicode="&#xe5;" horiz-adv-x="463" d="M102 44q32 0 88 66.5t98.5 148.5t42.5 123q0 18 -8.5 27t-32.5 9q-35 0 -73.5 -44t-66 -103t-45.5 -116t-18 -86q0 -25 15 -25zM389 456h48q6 0 6 -6q0 -10 -70.5 -187t-70.5 -195q0 -13 10 -13q17 0 61.5 53.5t48.5 53.5q9 0 9 -8q0 -6 -30.5 -45.5t-76 -80t-76.5 -40.5 t-31 23q0 11 16 55l31 82q16 39 16 40q0 5 -4 5t-11.5 -10t-16 -24.5t-12.5 -19.5q-113 -151 -195 -151q-40 0 -40 50q0 60 59 176.5t125 177.5q56 52 122 52q31 0 45 -14q2 -2 4 -5t3.5 -4.5t2.5 -3t2 -1.5q4 0 11 20t14 20zM346 503q-40 0 -69.5 29t-29.5 68t29.5 68 t69.5 29t69.5 -29t29.5 -68t-29.5 -68t-69.5 -29zM346 668q-28 0 -47.5 -20t-19.5 -48t19.5 -48t47.5 -20t47.5 20t19.5 48t-19.5 48t-47.5 20z" />
<glyph unicode="&#xe6;" horiz-adv-x="556" d="M222 113q0 127 68 223l-2 2q-77 -35 -145 -102.5t-68 -139.5q0 -56 47 -56q22 0 50 22.5t50 50.5zM311 234q82 10 120.5 54.5t38.5 83.5q0 16 -8 29t-24 13q-39 0 -71.5 -48.5t-55.5 -131.5zM223 82q-85 -94 -152 -94q-30 0 -50 21.5t-20 51.5q0 40 20 79t46 67.5t68 60 t69 47.5l69 40l49 27q6 4 23.5 16.5t30.5 20t34.5 14.5t44.5 7q38 0 60.5 -17t22.5 -52q0 -46 -52 -92t-178 -70q-12 -66 -12 -82q0 -84 64 -84q24 0 49.5 19t41.5 38t18 19q12 0 12 -13q0 -6 -22 -33.5t-62.5 -56t-78.5 -28.5q-76 0 -95 94z" />
<glyph unicode="&#xe7;" horiz-adv-x="315" d="M334 388q0 -21 -13 -32.5t-34 -11.5q-20 0 -30.5 10t-13 21.5t-9 21.5t-19.5 10q-30 0 -59 -59.5t-45 -127.5t-16 -107q0 -73 50 -73q22 0 44 18.5t37 37t21 18.5q9 0 9 -10q0 -5 -18.5 -31.5t-54 -55.5t-71.5 -29q-32 0 -53.5 12t-30 31.5t-11 33.5t-2.5 28q0 40 18 97 t48 113.5t78.5 96.5t102.5 40q27 0 49.5 -13.5t22.5 -38.5zM40 -86l61 93h36l-44 -65q1 0 9.5 2t12.5 2q37 0 60 -18t23 -55q0 -41 -37.5 -60.5t-82.5 -19.5q-41 0 -89 20l18 27q34 -14 55 -14q67 0 67 45q0 19 -13 29.5t-32 10.5q-17 0 -38 -7z" />
<glyph unicode="&#xe8;" horiz-adv-x="370" d="M270 440q38 0 60.5 -17t22.5 -52q0 -46 -52 -92t-178 -70q-12 -66 -12 -82q0 -84 64 -84q24 0 49.5 19t41.5 38t18 19q12 0 12 -13q0 -6 -22 -33.5t-62.5 -56t-78.5 -28.5q-96 0 -96 126q0 136 73 231t160 95zM126 234q82 10 120.5 54.5t38.5 83.5q0 16 -8 29t-24 13 q-39 0 -71.5 -48.5t-55.5 -131.5zM318 527h-29q-76 58 -109.5 85.5t-39.5 35.5t-6 17q0 12 9 22t21 10q22 0 40 -24z" />
<glyph unicode="&#xe9;" horiz-adv-x="370" d="M270 440q38 0 60.5 -17t22.5 -52q0 -46 -52 -92t-178 -70q-12 -66 -12 -82q0 -84 64 -84q24 0 49.5 19t41.5 38t18 19q12 0 12 -13q0 -6 -22 -33.5t-62.5 -56t-78.5 -28.5q-96 0 -96 126q0 136 73 231t160 95zM126 234q82 10 120.5 54.5t38.5 83.5q0 16 -8 29t-24 13 q-39 0 -71.5 -48.5t-55.5 -131.5zM256 530h-30l112 113q54 54 75 54q12 0 21.5 -10t9.5 -22q0 -11 -7.5 -19t-47.5 -34t-133 -82z" />
<glyph unicode="&#xea;" horiz-adv-x="370" d="M270 440q38 0 60.5 -17t22.5 -52q0 -46 -52 -92t-178 -70q-12 -66 -12 -82q0 -84 64 -84q24 0 49.5 19t41.5 38t18 19q12 0 12 -13q0 -6 -22 -33.5t-62.5 -56t-78.5 -28.5q-96 0 -96 126q0 136 73 231t160 95zM126 234q82 10 120.5 54.5t38.5 83.5q0 16 -8 29t-24 13 q-39 0 -71.5 -48.5t-55.5 -131.5zM302 697l88 -168h-33l-82 108l-135 -108h-37l161 168h38z" />
<glyph unicode="&#xeb;" horiz-adv-x="370" d="M270 440q38 0 60.5 -17t22.5 -52q0 -46 -52 -92t-178 -70q-12 -66 -12 -82q0 -84 64 -84q24 0 49.5 19t41.5 38t18 19q12 0 12 -13q0 -6 -22 -33.5t-62.5 -56t-78.5 -28.5q-96 0 -96 126q0 136 73 231t160 95zM126 234q82 10 120.5 54.5t38.5 83.5q0 16 -8 29t-24 13 q-39 0 -71.5 -48.5t-55.5 -131.5zM166 597q0 19 13 32t32 13t32 -13t13 -32t-13 -32t-32 -13t-32 13t-13 32zM366 597q0 19 13 32t32 13t32 -13t13 -32t-13 -32t-32 -13t-32 13t-13 32z" />
<glyph unicode="&#xec;" horiz-adv-x="278" d="M66 323q-7 -5 -8 -5q-7 0 -7 11q0 4 15.5 22.5t37.5 40.5t53 39t57 17q31 0 31 -29q0 -24 -63.5 -186.5t-63.5 -167.5q0 -12 7 -12q14 0 56 36l42 36q11 0 11 -10q0 -4 -28.5 -35.5t-72.5 -62.5t-75 -29q-29 0 -29 40q0 12 33 98l66 166q33 81 33 82q0 15 -8 15 q-9 0 -21.5 -8t-22 -16.5t-24 -23t-19.5 -18.5zM272 527h-29q-76 58 -109.5 85.5t-39.5 35.5t-6 17q0 12 9 22t21 10q22 0 40 -24z" />
<glyph unicode="&#xed;" horiz-adv-x="278" d="M66 323q-7 -5 -8 -5q-7 0 -7 11q0 4 15.5 22.5t37.5 40.5t53 39t57 17q31 0 31 -29q0 -24 -63.5 -186.5t-63.5 -167.5q0 -12 7 -12q14 0 56 36l42 36q11 0 11 -10q0 -4 -28.5 -35.5t-72.5 -62.5t-75 -29q-29 0 -29 40q0 12 33 98l66 166q33 81 33 82q0 15 -8 15 q-9 0 -21.5 -8t-22 -16.5t-24 -23t-19.5 -18.5zM200 530h-30l112 113q54 54 75 54q12 0 21.5 -10t9.5 -22q0 -11 -7.5 -19t-47.5 -34t-133 -82z" />
<glyph unicode="&#xee;" horiz-adv-x="278" d="M66 323q-7 -5 -8 -5q-7 0 -7 11q0 4 15.5 22.5t37.5 40.5t53 39t57 17q31 0 31 -29q0 -24 -63.5 -186.5t-63.5 -167.5q0 -12 7 -12q14 0 56 36l42 36q11 0 11 -10q0 -4 -28.5 -35.5t-72.5 -62.5t-75 -29q-29 0 -29 40q0 12 33 98l66 166q33 81 33 82q0 15 -8 15 q-9 0 -21.5 -8t-22 -16.5t-24 -23t-19.5 -18.5zM266 697l88 -168h-33l-82 108l-135 -108h-37l161 168h38z" />
<glyph unicode="&#xef;" horiz-adv-x="278" d="M66 323q-7 -5 -8 -5q-7 0 -7 11q0 4 15.5 22.5t37.5 40.5t53 39t57 17q31 0 31 -29q0 -24 -63.5 -186.5t-63.5 -167.5q0 -12 7 -12q14 0 56 36l42 36q11 0 11 -10q0 -4 -28.5 -35.5t-72.5 -62.5t-75 -29q-29 0 -29 40q0 12 33 98l66 166q33 81 33 82q0 15 -8 15 q-9 0 -21.5 -8t-22 -16.5t-24 -23t-19.5 -18.5zM110 597q0 19 13 32t32 13t32 -13t13 -32t-13 -32t-32 -13t-32 13t-13 32zM310 597q0 19 13 32t32 13t32 -13t13 -32t-13 -32t-32 -13t-32 13t-13 32z" />
<glyph unicode="&#xf0;" horiz-adv-x="389" d="M290 312q0 57 -11.5 81.5t-41.5 24.5q-31 0 -65.5 -55t-56.5 -125.5t-22 -117.5q0 -23 1 -34t5 -31.5t16 -30.5t32 -10q25 0 59.5 53t59 124.5t24.5 120.5zM442 698l-113 -69q45 -78 45 -214q0 -61 -14.5 -131.5t-41.5 -138t-73.5 -112.5t-102.5 -45q-40 0 -67.5 27 t-37 59.5t-9.5 65.5q0 70 26.5 139.5t75 117t104.5 47.5q14 0 36 -5q18 -6 22 -6q9 0 9 56q0 57 -19 111l-137 -85v39l123 77q-32 63 -71 66q-17 1 -17 13q0 13 20 13q22 0 54.5 -15.5t56.5 -50.5l131 80v-39z" />
<glyph unicode="&#xf1;" d="M323 0h-52q-7 0 -7 8q0 17 66 180.5t66 191.5q0 15 -8.5 22t-17.5 7q-14 0 -27 -6t-27 -20.5t-26 -29.5t-29 -43l-29 -50l-35 -60l-38 -66q-1 -2 -54 -125q-4 -9 -11 -9h-59q-8 0 -8 8q0 6 68 190.5t68 200.5q0 12 -8 12q-50 0 -85 -47.5t-35 -73.5q0 -5 -9 -5t-9 9 q0 12 7.5 33.5t22 48t44 45.5t67.5 19h74q10 0 10 -9q0 -3 -37 -105t-37 -120q0 -7 3 -7q5 0 16 21q7 12 11 20q53 96 87 141t55 56t53 11q80 0 80 -50q0 -46 -61 -191.5t-61 -159.5q0 -3 3.5 -5.5t6.5 -2.5q21 0 46 26.5t43.5 52.5t22.5 26q3 0 6.5 -3.5t3.5 -5.5 q0 -9 -22 -40.5t-61.5 -63t-76.5 -31.5zM212 558h-27q10 40 39.5 68t68.5 28q12 0 30.5 -6.5t41 -17t28.5 -12.5q27 -9 36 -9q33 0 55 50h26q-8 -42 -36 -71t-69 -29q-23 0 -69 22q-48 22 -64 22q-40 0 -60 -45z" />
<glyph unicode="&#xf2;" horiz-adv-x="389" d="M290 312q0 57 -11.5 81.5t-41.5 24.5q-31 0 -65.5 -55t-56.5 -125.5t-22 -117.5q0 -23 1 -34t5 -31.5t16 -30.5t32 -10q25 0 59.5 53t59 124.5t24.5 120.5zM355 292q0 -68 -26 -137t-76 -118t-111 -49q-40 0 -67.5 27t-37 59.5t-9.5 65.5q0 70 26.5 139.5t75 117 t104.5 47.5q59 0 90 -40.5t31 -111.5zM328 527h-29q-76 58 -109.5 85.5t-39.5 35.5t-6 17q0 12 9 22t21 10q22 0 40 -24z" />
<glyph unicode="&#xf3;" horiz-adv-x="389" d="M290 312q0 57 -11.5 81.5t-41.5 24.5q-31 0 -65.5 -55t-56.5 -125.5t-22 -117.5q0 -23 1 -34t5 -31.5t16 -30.5t32 -10q25 0 59.5 53t59 124.5t24.5 120.5zM355 292q0 -68 -26 -137t-76 -118t-111 -49q-40 0 -67.5 27t-37 59.5t-9.5 65.5q0 70 26.5 139.5t75 117 t104.5 47.5q59 0 90 -40.5t31 -111.5zM256 530h-30l112 113q54 54 75 54q12 0 21.5 -10t9.5 -22q0 -11 -7.5 -19t-47.5 -34t-133 -82z" />
<glyph unicode="&#xf4;" horiz-adv-x="389" d="M290 312q0 57 -11.5 81.5t-41.5 24.5q-31 0 -65.5 -55t-56.5 -125.5t-22 -117.5q0 -23 1 -34t5 -31.5t16 -30.5t32 -10q25 0 59.5 53t59 124.5t24.5 120.5zM355 292q0 -68 -26 -137t-76 -118t-111 -49q-40 0 -67.5 27t-37 59.5t-9.5 65.5q0 70 26.5 139.5t75 117 t104.5 47.5q59 0 90 -40.5t31 -111.5zM312 697l88 -168h-33l-82 108l-135 -108h-37l161 168h38z" />
<glyph unicode="&#xf5;" horiz-adv-x="389" d="M290 312q0 57 -11.5 81.5t-41.5 24.5q-31 0 -65.5 -55t-56.5 -125.5t-22 -117.5q0 -23 1 -34t5 -31.5t16 -30.5t32 -10q25 0 59.5 53t59 124.5t24.5 120.5zM355 292q0 -68 -26 -137t-76 -118t-111 -49q-40 0 -67.5 27t-37 59.5t-9.5 65.5q0 70 26.5 139.5t75 117 t104.5 47.5q59 0 90 -40.5t31 -111.5zM137 558h-27q10 40 39.5 68t68.5 28q12 0 30.5 -6.5t41 -17t28.5 -12.5q27 -9 36 -9q33 0 55 50h26q-8 -42 -36 -71t-69 -29q-23 0 -69 22q-48 22 -64 22q-40 0 -60 -45z" />
<glyph unicode="&#xf6;" horiz-adv-x="389" d="M290 312q0 57 -11.5 81.5t-41.5 24.5q-31 0 -65.5 -55t-56.5 -125.5t-22 -117.5q0 -23 1 -34t5 -31.5t16 -30.5t32 -10q25 0 59.5 53t59 124.5t24.5 120.5zM355 292q0 -68 -26 -137t-76 -118t-111 -49q-40 0 -67.5 27t-37 59.5t-9.5 65.5q0 70 26.5 139.5t75 117 t104.5 47.5q59 0 90 -40.5t31 -111.5zM146 597q0 19 13 32t32 13t32 -13t13 -32t-13 -32t-32 -13t-32 13t-13 32zM346 597q0 19 13 32t32 13t32 -13t13 -32t-13 -32t-32 -13t-32 13t-13 32z" />
<glyph unicode="&#xf7;" d="M60 190v60h440v-60h-440zM279 -10q-21 0 -37.5 16t-16.5 38q0 21 16.5 37t37.5 16t37.5 -16t16.5 -37t-16 -37.5t-38 -16.5zM279 343q-22 0 -38.5 16t-16.5 38q0 21 17 37t38 16q20 0 36.5 -16.5t16.5 -36.5q0 -21 -16 -37.5t-37 -16.5z" />
<glyph unicode="&#xf8;" horiz-adv-x="389" d="M95 125l190 250q-10 43 -48 43q-30 0 -64 -54t-56 -122.5t-24 -114.5zM288 334l-193 -254q4 -66 52 -66q25 0 59.5 53t59 124.5t24.5 120.5v22h-2zM58 32l-49 -64l-24 17l58 75q-15 37 -15 80q0 70 26.5 139.5t75 117t104.5 47.5q50 0 80 -30l54 70l24 -17l-59 -77 q22 -38 22 -98q0 -68 -26 -137t-76 -118t-111 -49q-52 0 -84 44z" />
<glyph unicode="&#xf9;" d="M330 0h-40q-13 0 -13 10t28 98.5t28 93.5q0 6 -3 6q-1 0 -26.5 -35t-63 -82t-63.5 -69q-41 -34 -91 -34q-42 0 -42 60q0 23 65.5 187.5t65.5 180.5q0 11 -12 11q-22 0 -63 -37.5t-59 -99.5q-1 -4 -9 -4t-8 12q0 21 26.5 65t56.5 63q50 30 140 30q18 0 18 -17 q0 -6 -71.5 -179.5t-71.5 -199.5q0 -9 6.5 -14.5t12.5 -5.5q26 0 57 30t88 110q55 74 70 115l22 63l14 45l9 26.5t7 15t7 3.5h59q13 0 13 -7q0 -8 -63 -190.5t-63 -194.5q0 -13 8 -13q20 0 47 28.5t45.5 57.5t19.5 29q14 0 14 -8q0 -12 -22.5 -47t-63.5 -69t-79 -34z M393 527h-29q-76 58 -109.5 85.5t-39.5 35.5t-6 17q0 12 9 22t21 10q22 0 40 -24z" />
<glyph unicode="&#xfa;" d="M330 0h-40q-13 0 -13 10t28 98.5t28 93.5q0 6 -3 6q-1 0 -26.5 -35t-63 -82t-63.5 -69q-41 -34 -91 -34q-42 0 -42 60q0 23 65.5 187.5t65.5 180.5q0 11 -12 11q-22 0 -63 -37.5t-59 -99.5q-1 -4 -9 -4t-8 12q0 21 26.5 65t56.5 63q50 30 140 30q18 0 18 -17 q0 -6 -71.5 -179.5t-71.5 -199.5q0 -9 6.5 -14.5t12.5 -5.5q26 0 57 30t88 110q55 74 70 115l22 63l14 46l9 25.5t7 15t7 3.5h59q13 0 13 -7q0 -8 -63 -190.5t-63 -194.5q0 -13 8 -13q20 0 47 28.5t45.5 57.5t19.5 29q14 0 14 -8q0 -12 -22.5 -47t-63.5 -69t-79 -34z M321 530h-30l112 113q54 54 75 54q12 0 21.5 -10t9.5 -22q0 -11 -7.5 -19t-47.5 -34t-133 -82z" />
<glyph unicode="&#xfb;" d="M330 0h-40q-13 0 -13 10t28 98.5t28 93.5q0 6 -3 6q-1 0 -26.5 -35t-63 -82t-63.5 -69q-41 -34 -91 -34q-42 0 -42 60q0 23 65.5 187.5t65.5 180.5q0 11 -12 11q-22 0 -63 -37.5t-59 -99.5q-1 -4 -9 -4t-8 12q0 21 26.5 65t56.5 63q50 30 140 30q18 0 18 -17 q0 -6 -71.5 -179.5t-71.5 -199.5q0 -9 6.5 -14.5t12.5 -5.5q26 0 57 30t88 110q55 74 70 115l22 63l14 45l9 26.5t7 15t7 3.5h59q13 0 13 -7q0 -8 -63 -190.5t-63 -194.5q0 -13 8 -13q20 0 47 28.5t45.5 57.5t19.5 29q14 0 14 -8q0 -12 -22.5 -47t-63.5 -69t-79 -34z M377 697l88 -168h-33l-82 108l-135 -108h-37l161 168h38z" />
<glyph unicode="&#xfc;" d="M330 0h-40q-13 0 -13 10t28 98.5t28 93.5q0 6 -3 6q-1 0 -26.5 -35t-63 -82t-63.5 -69q-41 -34 -91 -34q-42 0 -42 60q0 23 65.5 187.5t65.5 180.5q0 11 -12 11q-22 0 -63 -37.5t-59 -99.5q-1 -4 -9 -4t-8 12q0 21 26.5 65t56.5 63q50 30 140 30q18 0 18 -17 q0 -6 -71.5 -179.5t-71.5 -199.5q0 -9 6.5 -14.5t12.5 -5.5q26 0 57 30t88 110q55 74 70 115l22 63l14 46l9 25.5t7 15t7 3.5h59q13 0 13 -7q0 -8 -63 -190.5t-63 -194.5q0 -13 8 -13q20 0 47 28.5t45.5 57.5t19.5 29q14 0 14 -8q0 -12 -22.5 -47t-63.5 -69t-79 -34z M221 597q0 19 13 32t32 13t32 -13t13 -32t-13 -32t-32 -13t-32 13t-13 32zM421 597q0 19 13 32t32 13t32 -13t13 -32t-13 -32t-32 -13t-32 13t-13 32z" />
<glyph unicode="&#xfd;" horiz-adv-x="407" d="M269 147q33 95 60 275q3 18 17 18q19 0 33.5 -9.5t14.5 -21.5q0 -38 -79.5 -226t-155.5 -301q-54 -80 -100 -116t-122 -36q-59 0 -59 44q0 12 12.5 25t29.5 13t40.5 -19t57.5 -19q14 0 36 18.5t45.5 51.5t40 92t16.5 128q0 41 -7 109.5t-24.5 135t-40.5 65.5 q-18 -1 -29.5 -19t-15 -39t-7 -38.5t-8.5 -17.5q-10 0 -12 4.5t-2 17.5q0 40 32.5 99t79.5 59q31 0 53 -48.5t31.5 -117t13 -114t3.5 -66.5q0 -7 -1 -20.5t-1 -21t2 -7.5t8.5 12t17 36.5t20.5 53.5zM250 530h-30l112 113q54 54 75 54q12 0 21.5 -10t9.5 -22q0 -11 -7.5 -19 t-47.5 -34t-133 -82z" />
<glyph unicode="&#xfe;" horiz-adv-x="444" d="M125 71q0 -22 19 -39.5t41 -17.5q37 0 68 37t48 88t26 96t9 71q0 88 -68 88q-56 0 -69 -21q-10 -17 -42 -148.5t-32 -153.5zM135 401l24 102l17 70l11 42q5 17 6.5 24t1.5 11q0 18 -8 22.5t-26 4.5q-31 0 -31 15q0 14 31 17q26 3 53 7l41 5q15 2 18 2q15 0 15 -9 q0 -19 -7.5 -45.5t-29.5 -97t-44 -153.5q-2 -8 6 -8q1 0 15 7.5t39 15t52 7.5q28 0 47.5 -14.5t28 -36t11.5 -38t3 -29.5q0 -40 -13.5 -94t-39 -109t-69.5 -93t-97 -38q-20 0 -38.5 4.5t-29 9.5t-11.5 5q-2 0 -6 -11l-21 -88l-14 -58l-7 -31l-4 -18q-1 -5 -1 -8 q0 -16 14.5 -21t55.5 -5q13 0 13 -13q0 -6 -4 -11t-9 -5l-18 1q-17 1 -43 1.5t-45 0.5q-26 0 -55.5 -1.5t-44.5 -1.5q-16 0 -16 17q0 12 12 12q8 0 20.5 1.5t29 7.5t18.5 16l120 482q14 54 14 59q0 7 -5 7q-9 0 -44 -22.5t-38 -22.5q-11 0 -11 10q0 9 22.5 24.5t71.5 44.5 q6 3 9 5q6 3 10 22z" />
<glyph unicode="&#xff;" horiz-adv-x="407" d="M269 147q33 95 60 275q3 18 17 18q19 0 33.5 -9.5t14.5 -21.5q0 -38 -79.5 -226t-155.5 -301q-54 -80 -100 -116t-122 -36q-59 0 -59 44q0 12 12.5 25t29.5 13t40.5 -19t57.5 -19q14 0 36 18.5t45.5 51.5t40 92t16.5 128q0 41 -7 109.5t-24.5 135t-40.5 65.5 q-18 -1 -29.5 -19t-15 -39t-7 -38.5t-8.5 -17.5q-10 0 -12 4.5t-2 17.5q0 40 32.5 99t79.5 59q31 0 53 -48.5t31.5 -117t13 -114t3.5 -66.5q0 -7 -1 -20.5t-1 -21t2 -7.5t8.5 12t17 36.5t20.5 53.5zM135 597q0 19 13 32t32 13t32 -13t13 -32t-13 -32t-32 -13t-32 13t-13 32z M335 597q0 19 13 32t32 13t32 -13t13 -32t-13 -32t-32 -13t-32 13t-13 32z" />
<glyph unicode="&#x152;" horiz-adv-x="963" d="M410 66q149 583 149 591q0 32 -91 36q-55 3 -106 -34.5t-86.5 -96t-62 -127.5t-39.5 -131t-13 -105q0 -31 6.5 -59.5t23 -57t49.5 -45.5t80 -17q78 0 90 46zM554 31h194q9 0 16 2.5t15.5 9.5t14.5 14t17 22l18 27l24 36l27 43q2 4 9 4q14 0 14 -6t-16 -83t-16 -88 q0 -14 -22 -14q-5 0 -27.5 0.5t-92 1t-188.5 0.5q-94 0 -155 -3t-79 -3q-49 0 -89.5 19t-66.5 49t-44.5 70t-26.5 80t-8 80q0 64 27.5 137t75.5 138.5t123 108.5t161 43q14 0 59.5 -4t46.5 -4h237q26 0 69 1t52 1q7 0 11.5 -4.5t4.5 -10.5q2 -34 5 -72l5 -62q2 -23 2 -29 q0 -11 -18 -11q-4 0 -12 16l-25 50q-17 34 -33 61q-10 18 -20 22.5t-26 4.5h-125q-28 0 -37 -15t-26 -82q-43 -171 -43 -181q0 -9 15 -9h119q38 0 60 47q31 69 40 69q18 0 18 -7q0 -5 -9 -33l-30 -89q-20 -60 -38 -124q-8 -30 -16 -30q-17 0 -17 9q0 1 1 8.5t2.5 22 t1.5 33.5q0 35 -10 49.5t-31 15.5q-99 3 -107 3q-4 0 -9 -5t-6 -9q-69 -278 -69 -291q0 -29 53 -29z" />
<glyph unicode="&#x153;" horiz-adv-x="593" d="M288 310q0 58 -10.5 83t-40.5 25q-31 0 -65.5 -55t-56.5 -125.5t-22 -117.5q0 -23 1 -34t5 -31.5t16 -30.5t32 -10q42 0 91.5 116.5t49.5 179.5zM341 234q82 10 120.5 54.5t38.5 83.5q0 16 -8 29t-24 13q-39 0 -71.5 -48.5t-55.5 -131.5zM259 53q-50 -65 -117 -65 q-40 0 -67.5 27t-37 59.5t-9.5 65.5q0 70 26.5 139.5t75 117t104.5 47.5q35 0 64.5 -21t42.5 -62q35 39 67 59t77 20q38 0 60.5 -17t22.5 -52q0 -46 -52 -92t-178 -70q-12 -66 -12 -82q0 -84 64 -84q24 0 49.5 19t41.5 38t18 19q12 0 12 -13q0 -6 -22 -33.5t-62.5 -56 t-78.5 -28.5q-68 0 -89 65z" />
<glyph unicode="&#x178;" horiz-adv-x="611" d="M329 355l65 72l75 84q33 36 53 56q24 24 36 41.5t14 25t2 19.5q0 31 -91 31q-5 0 -5 15q2 14 6 14q14 0 68 -2t63 -2q12 0 58 2t57 2q18 0 18 -10q0 -19 -24 -19t-38 -6t-34 -24q-21 -18 -46 -44l-48 -49l-86 -90l-115 -122q-22 -23 -33 -66q-8 -33 -20 -77l-18 -66 q-6 -22 -11 -45.5t-5 -37.5q0 -20 19.5 -26.5t69.5 -6.5q7 0 7 -9q0 -17 -7 -17q-13 0 -51.5 1t-95.5 1q-41 0 -85.5 -1t-54.5 -1q-7 0 -7 9q0 17 9 17q54 0 76 13t29 42l33 118q15 53 21 71t9 32.5t3 28.5q0 16 -57 305q-7 34 -21.5 42t-65.5 8q-13 0 -13 15q0 14 10 14 q1 0 42.5 -2t64.5 -2q30 0 87.5 2t58.5 2q11 0 11 -12q0 -17 -50 -17q-17 0 -27 -6t-10 -14q0 -7 2 -16l9 -44q7 -35 15 -84zM307 862q0 19 13 32t32 13t32 -13t13 -32t-13 -32t-32 -13t-32 13t-13 32zM507 862q0 19 13 32t32 13t32 -13t13 -32t-13 -32t-32 -13t-32 13 t-13 32z" />
<glyph unicode="&#x2c6;" horiz-adv-x="278" d="M256 697l88 -168h-33l-82 108l-135 -108h-37l161 168h38z" />
<glyph unicode="&#x2dc;" horiz-adv-x="278" d="M101 558h-27q10 40 39.5 68t68.5 28q12 0 30.5 -6.5t41 -17t28.5 -12.5q27 -9 36 -9q33 0 55 50h26q-8 -42 -36 -71t-69 -29q-23 0 -69 22q-48 22 -64 22q-40 0 -60 -45z" />
<glyph unicode="&#x2013;" horiz-adv-x="500" d="M10 203v52h500v-52h-500z" />
<glyph unicode="&#x2014;" horiz-adv-x="1000" d="M10 203v52h1000v-52h-1000z" />
<glyph unicode="&#x2018;" horiz-adv-x="259" d="M219 426q-44 0 -66.5 30.5t-22.5 76.5q0 33 13 64.5t32 53.5t39 39t34 25t17 8q11 0 11 -12q0 -5 -24 -23.5t-48 -48t-24 -60.5q0 -25 14 -37.5t31 -14.5t31 -15t14 -39q0 -18 -16.5 -32.5t-34.5 -14.5z" />
<glyph unicode="&#x2019;" horiz-adv-x="259" d="M187 713q44 0 66.5 -30.5t22.5 -76.5q0 -33 -13 -64.5t-32 -53.5t-39 -39t-34 -25t-17 -8q-11 0 -11 12q0 5 24 23.5t48 48t24 60.5q0 25 -14 37.5t-31 14.5t-31 15t-14 39q0 18 16.5 32.5t34.5 14.5z" />
<glyph unicode="&#x201a;" horiz-adv-x="259" d="M79 112q44 0 66.5 -30.5t22.5 -76.5q0 -33 -13 -64.5t-32 -53.5t-39 -39t-34 -25t-17 -8q-11 0 -11 12q0 5 24 23.5t48 48t24 60.5q0 25 -14 37.5t-31 14.5t-31 15t-14 39q0 18 16.5 32.5t34.5 14.5z" />
<glyph unicode="&#x201c;" horiz-adv-x="444" d="M407 426q-44 0 -66.5 30.5t-22.5 76.5q0 33 13 64.5t32 53.5t39 39t34 25t17 8q11 0 11 -12q0 -5 -24 -23.5t-48 -48t-24 -60.5q0 -25 14 -37.5t31 -14.5t31 -15t14 -39q0 -18 -16.5 -32.5t-34.5 -14.5zM219 426q-44 0 -66.5 30.5t-22.5 76.5q0 33 13 64.5t32 53.5t39 39 t34 25t17 8q11 0 11 -12q0 -5 -24 -23.5t-48 -48t-24 -60.5q0 -25 14 -37.5t31 -14.5t31 -15t14 -39q0 -18 -16.5 -32.5t-34.5 -14.5z" />
<glyph unicode="&#x201d;" horiz-adv-x="444" d="M187 713q44 0 66.5 -30.5t22.5 -76.5q0 -33 -13 -64.5t-32 -53.5t-39 -39t-34 -25t-17 -8q-11 0 -11 12q0 5 24 23.5t48 48t24 60.5q0 25 -14 37.5t-31 14.5t-31 15t-14 39q0 18 16.5 32.5t34.5 14.5zM375 713q44 0 66.5 -30.5t22.5 -76.5q0 -33 -13 -64.5t-32 -53.5 t-39 -39t-34 -25t-17 -8q-11 0 -11 12q0 5 24 23.5t48 48t24 60.5q0 25 -14 37.5t-31 14.5t-31 15t-14 39q0 18 16.5 32.5t34.5 14.5z" />
<glyph unicode="&#x201e;" horiz-adv-x="444" d="M79 112q44 0 66.5 -30.5t22.5 -76.5q0 -33 -13 -64.5t-32 -53.5t-39 -39t-34 -25t-17 -8q-11 0 -11 12q0 5 24 23.5t48 48t24 60.5q0 25 -14 37.5t-31 14.5t-31 15t-14 39q0 18 16.5 32.5t34.5 14.5zM267 112q44 0 66.5 -30.5t22.5 -76.5q0 -33 -13 -64.5t-32 -53.5 t-39 -39t-34 -25t-17 -8q-11 0 -11 12q0 5 24 23.5t48 48t24 60.5q0 25 -14 37.5t-31 14.5t-31 15t-14 39q0 18 16.5 32.5t34.5 14.5z" />
<glyph unicode="&#x2022;" d="M448 359q0 -70 -49.5 -119.5t-119.5 -49.5t-119 49.5t-49 119.5t49 119t119 49t119.5 -49t49.5 -119z" />
<glyph unicode="&#x2026;" horiz-adv-x="1000" d="M209 46q0 -23 -17 -39.5t-40 -16.5t-40 16.5t-17 39.5t17.5 40.5t39.5 17.5q23 0 40 -17.5t17 -40.5zM542 46q0 -23 -17 -39.5t-40 -16.5t-40 16.5t-17 39.5t17.5 40.5t39.5 17.5q23 0 40 -17.5t17 -40.5zM875 46q0 -23 -17 -39.5t-40 -16.5t-40 16.5t-17 39.5t17.5 40.5 t39.5 17.5q23 0 40 -17.5t17 -40.5z" />
<glyph unicode="&#x2039;" horiz-adv-x="333" d="M127 227q2 -4 29 -45l48 -76q22 -35 22 -42q0 -8 -9 -8q-5 0 -24 20q-25 27 -67 65l-70 63q-27 24 -27 27q0 4 35 25l97 59q62 38 107 72q29 22 35 22q10 0 10 -12q0 -10 -80 -81t-106 -89z" />
<glyph unicode="&#x203a;" horiz-adv-x="333" d="M206 231q-2 4 -29 45l-48 76q-22 35 -22 42q0 8 9 8q5 0 24 -20q25 -27 67 -65l70 -63q27 -24 27 -27q0 -4 -35 -25l-97 -59q-62 -38 -107 -72q-29 -22 -35 -22q-10 0 -10 12q0 10 80 81t106 89z" />
<glyph unicode="&#x20ac;" d="M51 293h43q6 42 16 80h-60l20 45h54q42 123 119.5 206.5t179.5 83.5q37 0 67 -13.5t46.5 -27t20.5 -13.5q2 0 11 7t13 7q9 0 9 -12q0 -2 -3 -10t-10.5 -41t-17.5 -88q-4 -16 -13 -16q-4 0 -6.5 2.5t-4.5 10t-2.5 15t-2.5 23.5t-4 29q-9 101 -93 101q-70 0 -129 -75.5 t-94 -188.5h260l-21 -45h-250q-12 -54 -15 -80h230l-21 -45h-212q-1 -10 -1 -29q0 -36 6.5 -69t20.5 -64t41.5 -49t64.5 -18q76 0 144 55q4 2 5 2q11 0 11 -12q0 -5 -5 -10q-76 -62 -181 -62q-55 0 -95 20t-61.5 54.5t-31 74.5t-9.5 88v19h-60z" />
<glyph unicode="&#x2122;" horiz-adv-x="950" d="M316 305h-190v23q44 0 53.5 6.5t9.5 38.5v307h-45q-44 0 -60 -14.5t-16 -55.5h-23v99h352v-99h-23q0 41 -16 55.5t-60 14.5h-45v-307q0 -32 9.5 -38.5t53.5 -6.5v-23zM463 688v21h120l124 -293l125 293h123v-21q-34 0 -41.5 -7.5t-7.5 -28.5v-276q0 -31 8 -38.5t41 -9.5 v-23h-165v23q34 1 43 8.5t9 38.5v288h-2l-147 -358h-9l-150 358h-2v-301q0 -20 7.5 -26.5t42.5 -7.5v-23h-127v23q35 1 42 7.5t7 26.5v290q0 23 -6 29.5t-35 6.5z" />
<glyph unicode="&#xe000;" horiz-adv-x="450" d="M0 450h450v-450h-450v450z" />
<glyph unicode="&#xfb01;" horiz-adv-x="537" d="M121 381h-87q-9 0 -9 4q0 25 10 26q76 6 90.5 9t18.5 16q40 112 71 167t84 89q70 45 147 45q38 0 67.5 -15t29.5 -50q0 -14 -15.5 -26.5t-29.5 -12.5q-21 0 -34 11t-18 24.5t-17 24.5t-32 11q-26 0 -47.5 -12.5t-36.5 -31.5t-29.5 -51.5t-24 -62.5t-21.5 -75q0 -2 -5 -20 t-5 -20q0 -17 24 -17q95 0 131 4t72 14q8 2 18 5.5t15 5t8 1.5q7 0 7 -10t-59 -183t-59 -182q0 -11 6 -11q17 0 71.5 47.5t56.5 47.5q10 0 10 -12q0 -6 -36.5 -43t-88 -73.5t-81.5 -36.5q-11 0 -18.5 10.5t-7.5 22.5q0 16 54.5 179.5t54.5 168.5q0 12 -12 12h-171 q-13 0 -18 -21q-74 -338 -107 -439.5t-82 -142.5q-57 -48 -116 -48q-63 0 -63 44q0 15 11.5 25.5t26.5 10.5q20 0 47 -18t39 -18q36 0 61 112l60 269l39 171q9 40 9 45q0 10 -9 10z" />
<glyph unicode="&#xfb02;" horiz-adv-x="537" d="M121 381h-87q-9 0 -9 4q0 25 10 26q76 6 90.5 9t18.5 16q40 112 71 167t84 89q70 45 147 45q58 0 76 -23h54q8 0 8 -16q0 -9 -99.5 -315t-99.5 -314q0 -11 6 -11q17 0 71.5 47.5t56.5 47.5q10 0 10 -12q0 -6 -36.5 -43t-88 -73.5t-81.5 -36.5q-11 0 -18.5 10.5t-7.5 22.5 q0 16 54.5 179.5t54.5 168.5q0 12 -12 12h-171q-13 0 -18 -21q-74 -338 -107 -439.5t-82 -142.5q-57 -48 -116 -48q-63 0 -63 44q0 15 11.5 25.5t26.5 10.5q20 0 47 -18t39 -18q36 0 61 112l60 269l39 171q9 40 9 45q0 10 -9 10zM428 435l62 199q-19 3 -30.5 15t-15.5 24 t-15.5 21.5t-31.5 9.5q-26 0 -47.5 -12.5t-36.5 -31.5t-29.5 -51.5t-24 -62.5t-21.5 -75q0 -2 -5 -20t-5 -20q0 -7 0.5 -9.5t3 -5t8.5 -2.5h158q14 0 20 4t10 17z" />
<glyph unicode="&#xfb03;" horiz-adv-x="870" d="M658 323q-7 -5 -8 -5q-7 0 -7 11q0 4 15.5 22.5t37.5 40.5t53 39t57 17q31 0 31 -29q0 -24 -63.5 -186.5t-63.5 -167.5q0 -12 7 -12q14 0 56 36l42 36q11 0 11 -10q0 -4 -28.5 -35.5t-72.5 -62.5t-75 -29q-29 0 -29 40q0 12 33 98l66 166q33 81 33 82q0 15 -8 15 q-9 0 -21.5 -8t-22 -16.5t-24 -23t-19.5 -18.5zM784 642q0 20 14 34t34 14t34 -14t14 -34t-14 -34t-34 -14t-34 14t-14 34zM417 381h-87q-9 0 -9 4q0 25 10 26q76 6 90.5 9t18.5 16q1 2 17 60t32 91q31 67 92 108.5t133 41.5q28 0 56.5 -13.5t28.5 -38.5q0 -51 -45 -51 q-22 0 -35 11t-17 24t-13.5 24t-26.5 11q-8 0 -14 -1.5t-19 -6.5t-24 -19.5t-24 -36.5t-26 -61.5t-23 -90.5q-2 -10 -6 -25t-6.5 -25.5t-2.5 -13.5q0 -5 7 -5h107q8 0 8 -6q0 -4 -3.5 -18t-7.5 -14h-109q-13 0 -18 -21q-74 -338 -107 -439.5t-82 -142.5q-57 -48 -116 -48 q-63 0 -63 44q0 15 11.5 25.5t26.5 10.5q20 0 47 -18t39 -18q36 0 61 112l60 269l39 171q9 40 9 45q0 10 -9 10zM121 381h-87q-9 0 -9 4q0 25 10 26q76 6 90.5 9t18.5 16q1 2 17 60t32 91q31 67 92 108.5t133 41.5q28 0 56.5 -13.5t28.5 -38.5q0 -51 -45 -51q-22 0 -35 11 t-17 24t-13.5 24t-26.5 11q-8 0 -14 -1.5t-19 -6.5t-24 -19.5t-24 -36.5t-26 -61.5t-23 -90.5q-2 -10 -6 -25t-6.5 -25.5t-2.5 -13.5q0 -5 7 -5h107q8 0 8 -6q0 -4 -3.5 -18t-7.5 -14h-109q-13 0 -18 -21q-74 -338 -107 -439.5t-82 -142.5q-57 -48 -116 -48q-63 0 -63 44 q0 15 11.5 25.5t26.5 10.5q20 0 47 -18t39 -18q36 0 61 112l60 269l39 171q9 40 9 45q0 10 -9 10z" />
<glyph unicode="&#xfb04;" horiz-adv-x="851" d="M603 22q0 16 101.5 320.5t101.5 307.5q0 18 -8 22.5t-26 4.5q-31 0 -31 15q0 14 31 17q26 3 53 7l41 5q15 2 18 2q15 0 15 -9q0 -22 -98 -314.5t-98 -301.5q0 -17 17 -17q12 0 57 47t50 47q9 0 9 -13q0 -6 -35.5 -48t-85 -84t-78.5 -42q-34 0 -34 34zM417 381h-87 q-9 0 -9 4q0 25 10 26q76 6 90.5 9t18.5 16q1 2 17 60t32 91q31 67 92 108.5t133 41.5q28 0 56.5 -13.5t28.5 -38.5q0 -51 -45 -51q-22 0 -35 11t-17 24t-13.5 24t-26.5 11q-8 0 -14 -1.5t-19 -6.5t-24 -19.5t-24 -36.5t-26 -61.5t-23 -90.5q-2 -10 -6 -25t-6.5 -25.5 t-2.5 -13.5q0 -5 7 -5h107q8 0 8 -6q0 -4 -3.5 -18t-7.5 -14h-109q-13 0 -18 -21q-74 -338 -107 -439.5t-82 -142.5q-57 -48 -116 -48q-63 0 -63 44q0 15 11.5 25.5t26.5 10.5q20 0 47 -18t39 -18q36 0 61 112l60 269l39 171q9 40 9 45q0 10 -9 10zM121 381h-87q-9 0 -9 4 q0 25 10 26q76 6 90.5 9t18.5 16q1 2 17 60t32 91q31 67 92 108.5t133 41.5q28 0 56.5 -13.5t28.5 -38.5q0 -51 -45 -51q-22 0 -35 11t-17 24t-13.5 24t-26.5 11q-8 0 -14 -1.5t-19 -6.5t-24 -19.5t-24 -36.5t-26 -61.5t-23 -90.5q-2 -10 -6 -25t-6.5 -25.5t-2.5 -13.5 q0 -5 7 -5h107q8 0 8 -6q0 -4 -3.5 -18t-7.5 -14h-109q-13 0 -18 -21q-74 -338 -107 -439.5t-82 -142.5q-57 -48 -116 -48q-63 0 -63 44q0 15 11.5 25.5t26.5 10.5q20 0 47 -18t39 -18q36 0 61 112l60 269l39 171q9 40 9 45q0 10 -9 10z" />
</font>
</defs>
</svg>
