<?xml version="1.0" standalone="no"?>
<!DOCTYPE svg PUBLIC "-//W3C//DTD SVG 1.1//EN" "http://www.w3.org/Graphics/SVG/1.1/DTD/svg11.dtd" >
<svg xmlns="http://www.w3.org/2000/svg">
<metadata>
This is a custom SVG webfont generated by Font Squirrel.
Copyright   : Copyright c Music By Design 2007 All rights reserved
Foundry     : Music By Design
</metadata>
<defs>
<font id="MusicRoman" horiz-adv-x="1062" >
<font-face units-per-em="2048" ascent="1638" descent="-410" />
<missing-glyph horiz-adv-x="530" />
<glyph unicode=" "  horiz-adv-x="530" />
<glyph unicode="&#x09;" horiz-adv-x="530" />
<glyph unicode="&#xa0;" horiz-adv-x="530" />
<glyph unicode="!" horiz-adv-x="606" d="M188 98.5q0 51.5 36 83t79 31.5t79 -31.5t36 -83t-36 -83t-79 -31.5t-79 31.5t-36 83zM203 1413q0 23 17.5 33t33.5 12t49 2q37 0 55.5 -2t36 -12t17.5 -33q0 -27 -8.5 -76t-10.5 -65q-57 -549 -57 -717q0 -57 -33 -57t-33 57q0 246 -49 717q-2 16 -10 65t-8 76z" />
<glyph unicode="&#x22;" horiz-adv-x="909" d="M180 1393q0 33 26.5 60.5t61.5 27.5q37 0 63.5 -28t26.5 -60q0 -27 -12 -96l-30 -161q-17 -93 -25 -147h-43q-8 53 -26 147l-29 161q-13 69 -13 96zM551 1393q0 33 26.5 60.5t61.5 27.5q37 0 63.5 -28t26.5 -60q0 -27 -12 -96l-30 -161q-17 -93 -25 -147h-44 q-8 53 -25 147l-30 161q-12 69 -12 96z" />
<glyph unicode="#" d="M10 449v133h236l41 266h-219v133h239l66 432h153l-65 -432h241l66 432h154l-66 -432h197v-133h-217l-41 -266h200v-133h-221l-67 -449h-154l68 449h-242l-70 -449h-153l69 449h-215zM399 582h242l41 266h-242z" />
<glyph unicode="$" d="M80 336q0 20 41 20q12 0 15 -5t7 -21q84 -289 334 -305v622q-106 57 -157.5 89t-109.5 82t-81 108.5t-23 136.5q0 158 94.5 272.5t276.5 137.5v92q0 16 5 23t11.5 8t18.5 1q18 0 25.5 -1t12.5 -5t5 -12q0 -6 -2 -33.5t-2 -66.5q88 0 179 -18.5t101 -18.5q12 0 30 18.5 t26 18.5q18 0 18 -27q0 -70 8.5 -149.5t15.5 -131t7 -53.5q0 -20 -21 -20q-31 0 -34 12q-53 143 -127 228t-205 87v-569l80 -43l80 -43q27 -14 70.5 -42t67 -48.5t54.5 -53t45.5 -64.5t25.5 -75t11 -90q0 -199 -117.5 -304t-316.5 -122v-102q0 -14 -7 -18.5t-30 -4.5 q-37 0 -37 17v25v29q0 13 1 25.5t1 20.5v8q-150 0 -350 29q-16 2 -18 25q-6 96 -13.5 171.5t-11.5 106.5t-4 33zM272 1165q0 -94 60.5 -162.5t144.5 -107.5v522q-88 -18 -146.5 -86t-58.5 -166zM549 25q119 12 179 87.5t60 194.5q0 92 -44 155.5t-195 143.5v-581z" />
<glyph unicode="%" horiz-adv-x="1933" d="M168 1093.5q0 149.5 97 246t240.5 96.5t243 -96.5t99.5 -246t-99.5 -245.5t-243 -96t-240.5 96t-97 245.5zM305 1093.5q0 -108.5 49 -198.5t153.5 -90t154 90t49.5 198.5t-49.5 198.5t-154 90t-153.5 -90t-49 -198.5zM434 0l881 1413h112l-880 -1413h-113zM1022 329.5 q0 149.5 97.5 246t240.5 96.5t242.5 -96.5t99.5 -246t-99.5 -245.5t-242.5 -96t-240.5 96t-97.5 245.5zM1159 329.5q0 -108.5 49 -198.5t153.5 -90t154 90t49.5 198.5t-49.5 198.5t-154 90t-153.5 -90t-49 -198.5z" />
<glyph unicode="&#x26;" horiz-adv-x="1705" d="M129 336q0 141 103.5 266t248.5 217q-47 51 -72.5 85t-51 89.5t-25.5 108.5q0 131 92 221t223 90q125 0 208 -64.5t83 -187.5q0 -158 -270 -291l120 -125q92 -94 151.5 -160.5t111.5 -133.5l40 57l53 78q22 33 42 74.5t20 66.5q0 49 -36.5 67.5t-147.5 26.5 q-27 2 -39 7.5t-14 10.5t-2 13q0 31 28 31q2 0 12 -1l28 -3q19 -2 51 -3.5t90.5 -2.5t132.5 -1q86 0 141 2.5t76.5 5.5t23.5 3q18 0 23.5 -7.5t5.5 -31.5q0 -23 -76 -23q-59 0 -125 -30q-14 -6 -27.5 -16.5t-30.5 -30t-31.5 -38t-40 -54.5l-44.5 -64l-56 -85l-67 -97 q25 -29 86.5 -128.5t121 -155.5t134.5 -56q39 0 73 10t53.5 19t23.5 9t12 -12t8 -20q0 -2 -12 -15q-29 -25 -104.5 -53.5t-145.5 -28.5q-72 0 -130 29t-82.5 55.5t-76 100l-69.5 98.5q-197 -281 -481 -281q-158 0 -260.5 100.5t-102.5 258.5zM295 422q0 -131 98.5 -230.5 t231.5 -99.5q174 0 311 211q-55 78 -117.5 151.5t-170.5 186.5l-132 139q-221 -149 -221 -358zM465 1182q0 -45 33.5 -103.5t58.5 -87.5l74 -84q92 55 145 112.5t53 139.5q0 63 -23.5 105.5t-60 59.5t-60 22.5t-42.5 5.5q-74 0 -126 -49t-52 -121z" />
<glyph unicode="'" horiz-adv-x="530" d="M176 1393q0 33 26.5 60.5t61.5 27.5q37 0 63.5 -28t26.5 -60q0 -27 -12 -96l-30 -161q-17 -93 -25 -147h-43q-8 53 -26 147l-30 161q-12 69 -12 96z" />
<glyph unicode="(" horiz-adv-x="645" d="M92 528.5q0 137.5 38 273.5t86 228t108.5 174t90 113t46.5 45l49 46l38 36l25 23q12 11 19.5 15.5t13.5 4.5q35 0 35 -33q0 -2 -40 -41t-96 -113.5t-111.5 -177t-95.5 -260t-40 -334t40 -334t95.5 -260t111.5 -177t96 -113.5t40 -41q0 -33 -35 -33q-6 0 -13 4t-20 15 l-25 24l-38 36l-49 46q-16 14 -46 45t-90.5 112.5t-108.5 174t-86 228.5t-38 273.5z" />
<glyph unicode=")" horiz-adv-x="645" d="M4 -397q0 2 40 41t96.5 113.5t111.5 177t95 260t40 334t-40 334t-95 260t-111.5 177t-96.5 113.5t-40 41q0 33 35 33q6 0 13 -4t20 -16l25 -23l38 -36l49 -46q16 -14 46 -45t90.5 -113t108.5 -174t86 -228t38 -273.5t-38 -273.5t-86 -228.5t-108.5 -174t-90 -112.5 t-46.5 -45l-49 -46l-38 -36l-25 -24q-12 -11 -19.5 -15t-13.5 -4q-35 0 -35 33z" />
<glyph unicode="*" horiz-adv-x="796" d="M63 1249q0 49 70 49q45 0 96.5 -28.5t73.5 -48.5l74 -70l4 4l-15 55q-11 41 -17.5 72t-6.5 59q0 45 18.5 92.5t57.5 47.5q63 0 63 -115q0 -29 -9 -63.5t-32.5 -90t-23.5 -57.5l4 -4q137 113 215 113q33 0 66.5 -12.5t33.5 -41.5q0 -49 -61.5 -74.5t-116.5 -25.5 q-6 0 -135 6l-4 -4q6 -4 45 -33.5t53 -43t40 -42t36 -55.5t10 -57q0 -23 -12 -39.5t-35 -16.5q-68 0 -113 96.5t-49 178.5h-4q-2 -6 -14.5 -37l-19.5 -47.5t-22.5 -47t-28.5 -49t-30.5 -39t-37 -29.5t-39.5 -9q-23 0 -37.5 15t-14.5 38q0 39 28 78t50.5 57.5t78.5 54.5 l63 41v-4l-5 4q-78 -6 -187.5 23.5t-109.5 99.5z" />
<glyph unicode="+" d="M90 375v133h375v375h133v-375h375v-133h-375v-375h-133v375h-375z" />
<glyph unicode="," horiz-adv-x="530" d="M115 -350q0 6 19 23l43 37q24 19 26 22q35 31 63.5 92t28.5 108q0 66 -25 66q-8 0 -23.5 -5t-27.5 -5q-53 0 -77.5 35.5t-24.5 85t36.5 84t86.5 34.5q82 0 124 -60.5t42 -143.5q0 -184 -134 -318q-27 -27 -70.5 -56.5t-66.5 -25.5q-20 2 -20 27z" />
<glyph unicode="-" horiz-adv-x="796" d="M94 471q0 68 25 68h557q18 0 22 -14.5t4 -61.5q0 -37 -4 -47t-26 -10h-551q-18 0 -22.5 14t-4.5 51z" />
<glyph unicode="." horiz-adv-x="530" d="M141 108.5q0 53.5 35 89t90.5 35.5t90 -35.5t34.5 -89t-34.5 -89t-90 -35.5t-90.5 35.5t-35 89z" />
<glyph unicode="/" horiz-adv-x="757" d="M-14 0l643 1452h143l-643 -1452h-143z" />
<glyph unicode="0" d="M80 708.5q0 122.5 22.5 242.5t71.5 232.5t141.5 182.5t215 70t215 -70t141.5 -182.5t71.5 -232.5t22.5 -242.5t-22.5 -242.5t-71.5 -232.5t-141.5 -182t-215 -69.5t-215 69.5t-141.5 182t-71.5 232.5t-22.5 242.5zM266 708.5q0 -61.5 3 -124t17.5 -170t40 -184t79 -136 t125 -59.5t125 59.5t79 136t39.5 184t17.5 170t3.5 124t-3.5 124t-17.5 170t-39.5 184.5t-79 136t-125 59t-125 -59t-79 -136t-40 -184.5t-17.5 -170t-3 -124z" />
<glyph unicode="1" d="M244 20q0 23 11 30t54 7q98 0 115.5 37t17.5 203v811q0 80 -26.5 98.5t-147.5 18.5q-25 0 -24 30q0 18 16 23q203 37 305 133q25 25 35 25q23 0 28 -2t5 -13q0 -8 -6 -150.5t-6 -246.5v-795q0 -125 26.5 -148.5t153.5 -23.5q16 0 16 -37q0 -16 -2 -20t-14 -4q-2 0 -32 1 t-96.5 2t-158.5 1q-96 0 -168 -2t-76 -2q-26 -1 -26 24z" />
<glyph unicode="2" d="M63 0q0 33 23 61q272 338 384 498t145.5 253t33.5 224q0 78 -25.5 134.5t-67.5 83t-79 38t-74 11.5q-72 0 -129 -27t-85.5 -52.5t-32.5 -25.5t-17.5 11.5t-13.5 17.5q0 16 59 73q145 135 324 136q156 0 246 -92.5t90 -245.5q0 -98 -62.5 -219t-137.5 -215l-206 -249 q-131 -155 -202 -249h497q41 0 69.5 36t35 36t15.5 -6.5t9 -14.5q0 -6 -7 -23l-31 -72q-24 -54 -50 -122h-711z" />
<glyph unicode="3" d="M143 41q0 33 26 55.5t56 22.5q37 0 92.5 -32t100.5 -32q86 0 156.5 98.5t70.5 235.5q0 139 -93 229.5t-241 102.5q-14 0 -14 20q0 14 8 21q117 51 205 146.5t88 205.5q0 104 -62.5 159.5t-166.5 55.5q-55 0 -100.5 -19.5t-71 -40t-35.5 -20.5q-18 0 -19 31q0 12 45 48 t129 72t164 36q82 0 143.5 -31t88 -76t39 -81t12.5 -62q0 -59 -19.5 -109.5t-62.5 -94.5t-76 -69.5t-94 -68.5q135 -33 223 -137.5t88 -239.5q0 -186 -179 -346t-368 -160q-45 0 -89 22.5t-44 57.5z" />
<glyph unicode="4" d="M33 541q0 96 275.5 456.5t371.5 432.5q8 6 61 6q51 0 52 -21q0 -27 -2.5 -92.5t-2.5 -101.5v-594h230q16 0 19 -4.5t3 -20.5v-94q0 -20 -12 -21h-240v-477q0 -47 -24 -47h-125q-16 0 -16 27v497h-570q-14 0 -17 8.5t-3 45.5zM147 651q0 -25 33 -24h443v665 q-109 -113 -292.5 -352.5t-183.5 -288.5z" />
<glyph unicode="5" d="M139 41q0 35 27 55.5t63 20.5q29 0 85.5 -31t93.5 -31q76 0 134 64.5t83.5 144.5t25.5 154q0 84 -20.5 142t-67.5 98t-86 61.5t-117.5 55.5t-121.5 56q-10 6 -11 27q0 8 22.5 95t59.5 216l68 232q4 14 39 14q31 0 141.5 -5t165.5 -5t77.5 6t41.5 27q2 2 7 11t12 16.5 t18 7.5q16 0 16 -19q0 -2 -5 -18l-20 -66l-32 -117q-74 -14 -144 -14q-78 0 -168 4t-102 4q-29 0 -43 -34.5t-62 -217.5q227 -86 306 -139q170 -119 176 -344q4 -154 -80 -284t-204 -198.5t-236 -68.5q-47 0 -94.5 19.5t-47.5 60.5z" />
<glyph unicode="6" d="M86 467q0 90 20.5 182t75 212t173 245t290.5 229q43 27 107.5 53.5t107.5 41t49 14.5t13.5 -12.5t7.5 -18.5q0 -12 -7.5 -19.5t-31.5 -17.5q-61 -25 -138 -77t-188.5 -177t-191.5 -284l4 -4q27 18 85 32.5t85 14.5q197 0 313.5 -126t116.5 -327q0 -203 -130 -324.5 t-335 -121.5q-18 0 -49 3t-103.5 30.5t-128 72.5t-100.5 144.5t-45 234.5zM264 416q0 -74 12.5 -136.5t40 -120t82 -91t131.5 -33.5q94 0 153.5 59.5t79 136t19.5 168.5q0 74 -9 137.5t-32.5 135t-77 113.5t-128.5 42q-80 0 -136.5 -37.5t-84 -102t-39 -130t-11.5 -141.5z " />
<glyph unicode="7" d="M117 1118q0 6 110 361q2 8 23 8q16 0 25.5 -37t27.5 -37h604q20 0 21 -16q0 -4 -6.5 -20.5t-6.5 -18.5l-256 -683l-177 -478q-58 -158 -93 -244q-4 -10 -16 -10q-8 0 -50 14t-42 20q0 23 90 229l221 514q131 308 203 517h-516q-37 0 -61.5 -33t-40 -66.5t-32.5 -33.5 q-28 0 -28 14z" />
<glyph unicode="8" d="M121 332q0 115 79 208t193 152q-266 123 -266 350q0 176 115.5 285t292.5 109q164 0 278.5 -85t114.5 -245q0 -129 -73 -208t-206 -132q133 -66 213 -151t80 -212q0 -184 -127 -302.5t-307 -118.5q-160 0 -273.5 97t-113.5 253zM260 1130q0 -29 6 -55t22 -51l26 -44 q11 -19 39 -41l42 -33q14 -11 50 -32l49 -27q12 -7 52 -28l48 -24q201 115 201 303q0 123 -71 203.5t-192 80.5q-113 0 -192.5 -70.5t-79.5 -181.5zM279 330q0 -121 66.5 -208t182.5 -87q109 0 182.5 75.5t73.5 184.5q0 72 -23.5 127t-75.5 99t-93 67.5t-117 62.5 q-18 10 -29 15q-92 -66 -129.5 -143.5t-37.5 -192.5z" />
<glyph unicode="9" d="M80 973q0 193 128 328t320 135q215 0 334 -149.5t119 -356.5q0 -133 -41 -259t-94 -210t-141.5 -175t-140.5 -133t-136 -104q-123 -90 -154 -90q-6 0 -12 12.5t-6 18.5t4 10t16.5 12t18.5 15q317 248 420 563h-4q-98 -70 -232 -70q-172 0 -285.5 129t-113.5 324zM274 977 q0 -72 11.5 -135.5t37 -128t79 -102.5t129 -38t132 39t85 102.5t42 130t13.5 136.5q0 98 -21.5 183t-86 151.5t-165.5 66.5q-74 0 -127 -38.5t-79.5 -104t-38 -130t-11.5 -132.5z" />
<glyph unicode=":" horiz-adv-x="530" d="M152 104q0 53 32.5 88t85.5 35q49 0 80 -32.5t31 -81.5q0 -51 -32 -90t-83 -39q-49 0 -81.5 35.5t-32.5 84.5zM152 711q0 53 32.5 88t85.5 35q49 0 80 -33t31 -82q0 -51 -32 -90t-83 -39q-49 0 -81.5 36t-32.5 85z" />
<glyph unicode=";" horiz-adv-x="530" d="M115 -350q0 6 19 23l43 37q24 19 26 22q35 31 63.5 92t28.5 108q0 66 -25 66q-8 0 -23.5 -5t-27.5 -5q-53 0 -77.5 35.5t-24.5 85t36.5 84t86.5 34.5q82 0 124 -60.5t42 -143.5q0 -184 -134 -318q-27 -27 -70.5 -56.5t-66.5 -25.5q-20 2 -20 27zM133 711q0 53 33 88 t86 35q49 0 79.5 -33t30.5 -82q0 -51 -31.5 -90t-82.5 -39q-49 0 -82 36t-33 85z" />
<glyph unicode="&#x37e;" horiz-adv-x="530" d="M115 -350q0 6 19 23l43 37q24 19 26 22q35 31 63.5 92t28.5 108q0 66 -25 66q-8 0 -23.5 -5t-27.5 -5q-53 0 -77.5 35.5t-24.5 85t36.5 84t86.5 34.5q82 0 124 -60.5t42 -143.5q0 -184 -134 -318q-27 -27 -70.5 -56.5t-66.5 -25.5q-20 2 -20 27zM133 711q0 53 33 88 t86 35q49 0 79.5 -33t30.5 -82q0 -51 -31.5 -90t-82.5 -39q-49 0 -82 36t-33 85z" />
<glyph unicode="&#x3c;" d="M90 385v113l883 407v-131l-715 -332l715 -331v-134z" />
<glyph unicode="=" d="M90 211v133h883v-133h-883zM90 553v133h883v-133h-883z" />
<glyph unicode="&#x3e;" d="M90 -23v132l715 331l-715 332v133l883 -407v-113z" />
<glyph unicode="?" horiz-adv-x="872" d="M145 1444q0 12 7.5 16t27.5 4q10 0 22.5 -31.5t26.5 -31.5q164 0 232.5 -17.5t120.5 -97.5q43 -68 69.5 -167t31.5 -155.5t5 -93.5q0 -55 -11 -102t-26.5 -74.5t-34 -49t-30 -30t-17.5 -10.5q-39 -8 -127 -16t-102 -17q-39 -20 -39 -184q0 -16 -28.5 -16t-28.5 20v334 q0 18 9 22.5t44 4.5h164q104 0 137 38.5t33 124.5q0 53 -10.5 98.5t-28 78t-30.5 51t-30 37.5l-18 18q-12 16 -135 25.5t-176 9.5q-35 0 -46.5 41t-11.5 170zM178 98.5q0 51.5 36 83t79 31.5t79 -31.5t36 -83t-36 -83t-79 -31.5t-79 31.5t-36 83z" />
<glyph unicode="@" horiz-adv-x="1638" d="M88 725q0 315 223.5 535.5t546.5 220.5q305 0 493.5 -153.5t188.5 -438.5q0 -221 -131 -394t-319 -173q-111 0 -148 43t-41 124h-4q-57 -86 -106.5 -126.5t-124.5 -40.5q-121 0 -193 94t-72 213q0 180 126 328.5t296 148.5q68 0 111 -40t53 -110h4l31 131h188l-149 -598 q-2 -18 0 -39.5t15.5 -42t37.5 -20.5q100 0 196.5 142.5t96.5 349.5q0 229 -144.5 362t-404.5 133q-266 0 -451.5 -190.5t-185.5 -458.5q0 -266 185.5 -456.5t451.5 -190.5q172 0 325.5 87t215.5 214h149q-102 -186 -286.5 -297t-403.5 -111q-324 0 -547 220.5t-223 533.5z M604 555q0 -168 98 -168q70 0 128.5 94t84 190.5t31.5 168.5q20 201 -98 200q-53 0 -102.5 -56t-78 -136t-46 -160t-17.5 -133z" />
<glyph unicode="A" horiz-adv-x="1366" d="M-25 31q0 27 76 26q70 0 105 105q246 711 481 1300q6 18 39 19q25 0 35 -25l96 -264l219 -577q121 -314 184 -459q25 -55 60 -77t96 -22t61 -22q0 -39 -22 -39q-2 0 -23.5 1t-87 2t-174.5 1h-136q-58 0 -87 -1t-47.5 -2t-25.5 -1h-9q-10 0 -10 37q0 25 86 24 q61 0 84.5 9.5t23.5 35.5q0 23 -28.5 103t-75.5 196l-51 127h-422q-47 0 -59.5 -6t-24.5 -37q-113 -295 -113 -354q0 -20 3 -32.5t29 -27t75 -14.5q59 0 88 -3t36 -8t7 -17q0 -33 -25 -33h-22q-23 2 -89.5 3t-174.5 1q-55 0 -91 -1t-51.5 -2t-19.5 -1q-15 0 -15 35zM387 618 q0 -16 13.5 -19t64.5 -3h352l-217 600h-4q-10 0 -109.5 -277.5t-99.5 -300.5z" />
<glyph unicode="B" horiz-adv-x="1327" d="M70 1434q0 27 18 26q4 0 51 -2t116 -4t126 -2q25 0 121 4t149 4q498 0 498 -340q0 -92 -54.5 -169t-133.5 -113q-47 -23 -92 -37l-59 -20q-15 -5 -15 -11t39 -14q172 -35 272 -130.5t100 -252.5q0 -147 -112.5 -262t-333.5 -115q-6 0 -112.5 2t-235.5 2h-147 q-62 0 -94 -1t-49.5 -2t-24.5 -1h-9q-16 0 -16 27q0 14 2 19t15 10t40 5q90 0 116.5 21.5t28.5 68.5q6 154 7 324v502q0 100 -5 289q-2 88 -36.5 112.5t-147.5 24.5q-22 0 -22 35zM483 174q0 -70 22.5 -93.5t108.5 -23.5q170 0 270.5 83t100.5 245q0 172 -101.5 260 t-258.5 88h-142v-559zM483 795h160q137 0 211 79.5t74 217.5q0 27 -3 55.5t-20.5 77.5t-47.5 83.5t-91 62.5t-145 28q-98 0 -118 -21.5t-20 -146.5v-436z" />
<glyph unicode="C" horiz-adv-x="1554" d="M94 684q0 356 225.5 575.5t532.5 219.5q154 0 256 -19.5t147 -39t60 -19.5q20 0 42.5 17.5t37 17.5t14.5 -25q0 -55 10.5 -133t19.5 -134.5t9 -60.5q0 -27 -39 -26q-16 0 -23 16q-70 178 -180 265t-301 87q-98 0 -196.5 -47t-182.5 -134t-136 -231.5t-52 -320.5 q0 -162 54 -294t143.5 -210.5t194 -120.5t212.5 -42q133 0 264 81.5t211 258.5q6 16 33 16q23 0 23 -25q0 -10 -14.5 -127.5t-14.5 -142.5q0 -29 -29 -37q-248 -78 -563 -78q-195 0 -348.5 72t-238.5 183.5t-128 229t-43 228.5z" />
<glyph unicode="D" horiz-adv-x="1705" d="M70 1434q0 27 18 26q4 0 58.5 -2t131 -4t134.5 -2q59 0 147 4t113 4q246 0 380 -26.5t259 -110.5q135 -90 203.5 -247.5t68.5 -313.5q0 -342 -221 -551q-98 -90 -249.5 -152.5t-326.5 -62.5q-2 0 -115.5 2t-258.5 2h-147q-62 0 -94 -1t-49.5 -2t-24.5 -1h-9q-16 0 -16 27 q0 14 2 19t15 10t40 5q141 0 145 90q6 154 7 324v502q0 100 -5 289q-2 88 -36.5 112.5t-147.5 24.5q-22 0 -22 35zM483 154q0 -53 46 -75t147 -22q287 0 479 187q185 179 185 478q0 13 -1 26q-6 219 -85.5 358t-182.5 203q-139 90 -385 90q-82 0 -118 -2t-58.5 -22.5 t-24.5 -43t-2 -86.5v-1091z" />
<glyph unicode="E" horiz-adv-x="1402" d="M53 1434q0 27 19 26q4 0 58 -2t131 -4t134 -2q131 0 378 4t310 4q74 0 78 -16q23 -82 46 -153l34 -101q10 -31 10 -35q0 -14 -30 -14q-14 0 -30.5 18.5t-70 73.5t-129.5 119q-55 47 -141 47q-74 0 -307 -13q-35 -2 -47.5 -35.5t-12.5 -121.5v-471h138q221 0 241 112 q12 74 20.5 107t12.5 39t12 6q39 0 39 -14v-308q0 -70 5 -148.5t5 -95t-26.5 -16.5t-30.5 23q-23 162 -68 197.5t-198 35.5h-150v-528q0 -59 21.5 -83t79.5 -24h487q27 0 66 34t66.5 70l64.5 88l43 60q12 12 26 13q33 0 33 -15q0 -10 -57.5 -160.5t-71.5 -150.5h-846h-146 q-62 0 -94 -1t-49.5 -2t-24.5 -1h-9q-16 0 -17 27q0 14 2 19t11.5 10t29.5 5q111 0 142.5 20.5t33.5 69.5q6 154 7 324v502q0 100 -5 289q-2 88 -38.5 112.5t-161.5 24.5q-23 0 -23 35z" />
<glyph unicode="F" horiz-adv-x="1251" d="M53 1434q0 27 19 26q4 0 58 -2t131 -4t134 -2q131 0 378 4t310 4q74 0 78 -16q23 -82 46 -153l34 -101q10 -31 10 -35q0 -14 -30 -14q-14 0 -30.5 18.5t-70 73.5t-129.5 119q-55 47 -141 47q-74 0 -307 -13q-35 -2 -47.5 -35.5t-12.5 -121.5v-484h138q221 0 241 113 q12 74 20.5 106.5t12.5 39t12 6.5q39 0 39 -15v-307q0 -70 5 -148.5t5 -95t-26.5 -16.5t-30.5 23q-23 162 -68 197.5t-198 35.5h-150v-213q0 -170 6 -324q2 -33 11.5 -49t48.5 -28.5t117 -12.5q37 0 54 -5t20 -10t3 -19q0 -10 -1 -15.5t-9 -8.5t-26 -3h-10q-7 0 -25.5 1 t-49 2t-94.5 1h-147h-140q-60 0 -89 -1t-46.5 -2t-24.5 -1h-9q-16 0 -17 27q0 14 2 19t11.5 10t29.5 5q111 0 142.5 20.5t33.5 69.5q6 154 7 324v502q0 100 -5 289q-2 88 -38.5 112.5t-161.5 24.5q-23 0 -23 35z" />
<glyph unicode="G" horiz-adv-x="1705" d="M94 684q0 356 225.5 575.5t532.5 219.5q199 0 331 -31t234 -102q20 -14 35 -15q6 0 30.5 19.5t33.5 19.5q10 0 12 -13.5t2 -76.5q0 -98 3 -158.5t5 -85t2 -32.5q0 -20 -43 -21q-16 0 -61 147q-43 131 -179.5 213t-351.5 82q-98 0 -196.5 -47t-182.5 -134t-136 -231.5 t-52 -320.5q0 -162 54 -294t143.5 -210.5t194 -120.5t212.5 -42q172 0 255 29.5t83 117.5v311q0 35 -36 48.5t-152 13.5q-59 0 -88 5t-33 10t-4 20q0 10 1 15t9 8t27 3h14q12 0 36.5 -1t62.5 -2t107 -1h152h141q60 0 88.5 1t46 2t24.5 1h10q16 0 16 -26q0 -14 -2 -19.5 t-11.5 -10.5t-29.5 -5q-113 0 -144.5 -21.5t-31.5 -70.5v-281q0 -33 28.5 -57.5t28.5 -32.5q0 -12 -6 -18.5t-29 -14.5q-217 -78 -653 -78q-195 0 -348.5 72t-238.5 183.5t-128 229t-43 228.5z" />
<glyph unicode="H" horiz-adv-x="1781" d="M39 1434q0 27 18 26q4 0 58.5 -2t131.5 -4t134 -2t135 2t132 4t59 2q18 0 18 -26q0 -35 -23 -35q-135 0 -174 -23.5t-41 -113.5q-4 -188 -4 -289v-209h813v209q0 100 -4 289q-2 90 -41 113.5t-174 23.5q-23 0 -22 35q0 27 18 26q4 0 58.5 -2t132 -4t135 -2t134.5 2t131 4 t58 2q18 0 19 -26q0 -35 -23 -35q-135 0 -174 -23.5t-41 -113.5q-4 -188 -4 -289v-502q0 -170 6 -324q2 -33 11.5 -49t48.5 -28.5t116 -12.5q27 0 40.5 -5t15.5 -10t2 -19q0 -27 -17 -27h-9q-7 0 -24.5 1t-49 2t-94.5 1h-146h-148q-63 0 -94 -1t-49 -2t-26 -1h-9 q-16 0 -16 27q0 14 2 19t15 10t40 5q111 0 142.5 20.5t33.5 69.5q6 154 6 324v231h-813v-231q0 -170 6 -324q2 -33 11.5 -49t48.5 -28.5t117 -12.5q27 0 40 -5t15 -10t2 -19q0 -27 -16 -27h-10q-7 0 -25.5 1t-49 2t-94.5 1h-147h-147q-62 0 -93.5 -1t-49 -2t-24.5 -1h-10 q-16 0 -16 27q0 14 2 19t15.5 10t39.5 5q111 0 142.5 20.5t33.5 69.5q6 154 7 324v502q0 100 -5 289q-2 90 -40.5 113.5t-174.5 23.5q-22 0 -22 35z" />
<glyph unicode="I" horiz-adv-x="757" d="M35 1434q0 27 18 26q4 0 58.5 -2t131 -4t134 -2t135.5 2t132 4t58 2q18 0 19 -26q0 -35 -23 -35q-135 0 -174 -23.5t-41 -113.5q-4 -188 -4 -289v-502q0 -170 6 -324q2 -33 11.5 -49t48.5 -28.5t117 -12.5q27 0 40 -5t15 -10t2 -19q0 -27 -17 -27h-9q-7 0 -25.5 1t-49 2 t-94.5 1h-147h-147q-62 0 -94 -1t-49 -2t-25 -1h-9q-16 0 -16 27q0 14 2 19t15.5 10t39.5 5q111 0 142.5 20.5t33.5 69.5q6 154 6 324v502q0 100 -4 289q-2 90 -40.5 113.5t-174.5 23.5q-22 0 -22 35z" />
<glyph unicode="J" horiz-adv-x="757" d="M-203 -289q0 47 32 83t89 36q53 0 126 -58.5t103 -58.5q39 0 65 20.5t47.5 100.5t21.5 221v918q0 100 -5 289q-2 90 -40.5 113.5t-174.5 23.5q-23 0 -22 35q0 27 18 26q4 0 58.5 -2t131.5 -4t134 -2t122.5 2t108.5 4t47 2q18 0 19 -26q0 -35 -23 -35q-102 0 -134 -24.5 t-34 -112.5q-4 -188 -4 -289v-727q0 -457 -370 -629q-94 -43 -162 -43q-76 0 -115 40t-39 97z" />
<glyph unicode="K" horiz-adv-x="1554" d="M39 1434q0 27 18 26q4 0 58.5 -2t131.5 -4t134 -2t135 2t132 4t59 2q18 0 18 -26q0 -35 -23 -35q-135 0 -174 -23.5t-41 -113.5q-4 -188 -4 -289v-248q51 0 71.5 7t51.5 38q379 385 449.5 462t70.5 111q0 18 -5 28.5t-36.5 19t-97.5 8.5q-25 0 -24.5 30.5t20.5 30.5 q23 0 132.5 -4t123.5 -4q25 0 112 4t107.5 4t20.5 -30q0 -18 -4.5 -24.5t-22.5 -6.5q-82 0 -135 -28t-164 -138l-395 -399q-29 -33 -29 -37t45 -54l537 -571q51 -53 99 -79.5t73.5 -31t70.5 -4.5q41 0 52.5 -8t11.5 -26q0 -27 -21 -27h-10q-8 0 -28.5 1t-53 2t-98.5 1h-154 h-148q-65 0 -96.5 -1t-50 -2t-25.5 -1h-9q-16 0 -17 41q0 20 109 20q59 0 59 43q0 29 -26 58q-420 461 -459 491q-31 25 -107 25v-203q0 -170 6 -324q2 -33 11.5 -49t48.5 -28.5t117 -12.5q27 0 40 -5t15 -10t2 -19q0 -27 -16 -27h-10q-7 0 -25.5 1t-49 2t-94.5 1h-147h-147 q-62 0 -93.5 -1t-49 -2t-24.5 -1h-10q-16 0 -16 27q0 14 2 19t15.5 10t39.5 5q111 0 142.5 20.5t33.5 69.5q6 154 7 324v502q0 100 -5 289q-2 90 -40.5 113.5t-174.5 23.5q-22 0 -22 35z" />
<glyph unicode="L" horiz-adv-x="1402" d="M49 1434q0 27 19 26q4 0 56 -2t126 -4t131 -2t135 2t132 4t59 2q18 0 18 -26q0 -35 -23 -35q-135 0 -174 -23.5t-41 -113.5q-4 -188 -4 -289v-502q0 -170 6 -324q2 -53 47.5 -68.5t168.5 -15.5q94 0 146 2.5t116.5 11.5t101.5 28.5t77 52t67.5 84t52.5 123.5q4 10 7 21 t4 17.5t3 10.5t5 6t9 2q29 0 36 -5t7 -20q0 -4 -11 -54l-32 -145q-20 -95 -34 -186q-2 -16 -21 -16h-17q-15 0 -62.5 1t-128.5 2t-249 1h-391h-146q-62 0 -94 -1t-49.5 -2t-24.5 -1h-9q-16 0 -17 27q0 14 2 19t12.5 10t32.5 5q111 0 142.5 20.5t33.5 69.5q6 154 7 324v502 q0 100 -5 289q-2 90 -38.5 113.5t-165.5 23.5q-23 0 -23 35z" />
<glyph unicode="M" horiz-adv-x="1955" d="M-10 35q0 23 92 22q123 0 133 90l51 1008q4 60 4 93q0 22 -2 32q-4 20 -28.5 57t-46.5 47q-33 14 -152 15q-25 0 -25 30.5t22.5 30.5t125 -4t112.5 -4q31 0 93.5 4t72.5 4q14 0 22.5 -15t20.5 -59q4 -14 7 -22q29 -98 215 -513t249 -544q295 694 455 1131q8 23 25 22 l88 -4q90 -4 118 -4q20 0 120 4t104 4q23 0 22 -35q0 -27 -24 -26q-137 0 -172 -18.5t-35 -90.5q0 -57 6 -209l17 -426l20 -501q2 -49 34.5 -73t77.5 -24q53 0 81 -4t32 -9t4 -13q0 -35 -22 -35h-25q-25 2 -99.5 3t-201.5 1h-130q-56 0 -85 -1t-45 -2t-24 -1h-11 q-23 0 -22 33q0 29 98 28q94 0 115.5 22.5t21.5 92.5q0 66 -47 1167h-4l-279 -683q-188 -454 -196 -472q-27 -66 -55 -143q-18 -45 -24.5 -56.5t-19.5 -11.5q-6 0 -11 4.5t-12 19.5l-14 32l-22 51q-14 35 -31 70l-141 314l-219 490q-98 219 -102 220q-2 -96 -8.5 -260 t-8.5 -236q-12 -457 -12 -520q0 -100 117 -101q57 0 74.5 -7t17.5 -23q0 -31 -21 -31h-4q-14 4 -215 4h-98q-43 0 -67.5 -1t-42 -1t-24.5 -1t-13 -1h-7q-20 0 -20 39z" />
<glyph unicode="N" horiz-adv-x="1781" d="M10 1432q0 29 23 28q4 0 88 -4t106 -4q14 0 90 4t93 4q4 0 16 -12q10 -10 237 -270l402 -453l383 -406q20 381 20 754q0 117 -13 183.5t-50 97t-76 38t-117 7.5q-27 0 -26 28q0 33 22 33q12 0 139.5 -4t157.5 -4q27 0 147 4t122 4q16 0 16 -26q0 -35 -18 -35 q-127 0 -167 -30t-61 -140q-8 -49 -22.5 -555t-14.5 -674q0 -18 -7 -23.5t-23 -5.5q-8 0 -77 76l-366 404l-694 755q0 -59 -2 -166.5t-3 -195.5t-1 -166q0 -133 2 -253t4 -188.5t2 -78.5q0 -100 160 -101q51 0 73.5 -4t26.5 -9t4 -17q0 -31 -20 -31h-21q-18 2 -83.5 3 t-176.5 1h-99q-44 0 -69.5 -1t-45 -1t-28 -1t-14.5 -1h-8q-20 0 -21 39q0 23 93 22q129 0 139 90q25 467 24 1020q0 78 -4 88q-12 31 -74.5 87.5t-93.5 56.5h-75q-19 0 -19 33z" />
<glyph unicode="O" horiz-adv-x="1705" d="M94 684q0 356 225.5 575.5t532.5 219.5q340 0 550 -203t210 -582q0 -90 -25.5 -185t-84 -192.5t-143.5 -173t-216 -124t-291 -48.5q-195 0 -348.5 72t-238.5 183.5t-128 229t-43 228.5zM338 723q0 -113 28.5 -229.5t86 -224t162 -176t237.5 -68.5q516 0 516 700 q0 92 -16.5 185.5t-56.5 187.5t-97 165.5t-147 116.5t-199 45q-135 0 -235.5 -58t-151.5 -138t-82 -187.5t-38 -179t-7 -139.5z" />
<glyph unicode="P" horiz-adv-x="1290" d="M41 23q0 14 2 19t15.5 10t39.5 5q111 0 142.5 20.5t33.5 69.5q6 154 7 324v502q0 100 -5 289q-2 88 -36.5 112.5t-147.5 24.5q-23 0 -22 35q0 27 18 26q4 0 51 -2t116 -4t126 -2q6 0 56 2t119 4t116 2q139 0 243.5 -34.5t158.5 -83t88 -110t42 -102t8 -75.5 q0 -213 -132 -328t-349 -115q-143 0 -248 21q0 -322 4 -445q2 -37 8.5 -56t28 -38.5t67.5 -28t124 -8.5q27 0 40 -5t15 -10t2 -19q0 -27 -16 -27h-15q-12 0 -37.5 1t-63.5 2t-106 1h-153h-147q-62 0 -93.5 -1t-49 -2t-24.5 -1h-10q-16 0 -16 27zM483 752q0 -41 22.5 -59.5 t94.5 -18.5q172 0 281.5 96t109.5 268q0 160 -93 260.5t-243 100.5q-121 0 -147 -24q-25 -22 -25 -129v-17v-477z" />
<glyph unicode="Q" horiz-adv-x="1744" d="M104 698q0 193 74 348.5t188.5 246.5t242.5 138.5t249 47.5q328 0 555 -205t227 -529q0 -512 -532 -737q-6 -2 -14.5 -6t-11.5 -5t-7 -3t-6 -4t-3 -5t-1 -8q0 -10 18.5 -34.5t60.5 -58.5t96 -64.5t136 -52t172 -21.5q16 0 17 -33q0 -25 -19 -26q-117 -10 -151 -11 q-479 0 -719 322q-4 6 -30 16l-81 34q-55 24 -114 54q-127 63 -237 222t-110 374zM348 731q0 -188 46 -330.5t124 -223.5t171 -121t198 -40q96 0 175 33t131 84t91 122t59.5 137.5t34 142t16.5 125t3 94.5q0 170 -41 299t-99.5 197.5t-135.5 110.5t-135 53t-114 11 q-145 0 -251.5 -60t-164 -164.5t-83 -220.5t-25.5 -249z" />
<glyph unicode="R" horiz-adv-x="1441" d="M70 1434q0 27 18 26q4 0 51 -2t116 -4t126 -2q18 0 123.5 4t175.5 4q96 0 183 -18.5t168 -58.5t129 -116.5t48 -181.5q0 -143 -76.5 -228t-252.5 -155q-23 -8 -23 -16t32 -63.5t103.5 -159t157.5 -207.5q117 -141 159 -172t130 -33q14 0 14 -24q0 -31 -25 -31h-12 q-12 2 -51 3t-104 1h-54q-25 0 -38 -1t-24 -1t-15.5 -1t-8.5 -1h-6q-25 0 -37 16q-88 113 -216 316.5t-163 238.5q-57 57 -99 71q-36 12 -97 11h-19v-178q0 -170 6 -324q2 -33 11.5 -49t48.5 -28.5t117 -12.5q27 0 40 -5t15 -10t2 -19q0 -27 -16 -27h-10q-7 0 -25.5 1t-49 2 t-94.5 1h-147h-132q-56 0 -84 -1t-44.5 -2t-23.5 -1h-9q-16 0 -16 27q0 14 2 19t15 10t40 5q90 0 116.5 21.5t28.5 68.5q6 154 7 324v502q0 100 -5 289q-2 88 -36.5 112.5t-147.5 24.5q-22 0 -22 35zM483 711h168q174 0 255 97t81 251q0 150 -90 245t-260 95 q-98 0 -126 -23.5t-28 -122.5v-542z" />
<glyph unicode="S" horiz-adv-x="1138" d="M117 336q0 20 41 20q12 0 15 -5t7 -21q88 -305 361 -305q135 0 209.5 77.5t74.5 204.5q0 113 -73.5 184.5t-294.5 188.5q-66 35 -99.5 54.5t-82 56t-72 71.5t-41 86t-17.5 115q0 174 116 295t331 121q84 0 174 -18.5t102.5 -18.5t29.5 18.5t26 18.5q18 0 18 -27 q0 -70 8 -149.5t15.5 -131t7.5 -53.5q0 -20 -21 -20q-31 0 -34 12q-53 145 -128 230t-208 85q-111 0 -191 -71.5t-80 -188.5q0 -63 27 -114.5t55.5 -75t77.5 -55.5q47 -31 121 -69l127 -65q53 -27 113.5 -67.5t98.5 -82.5t63.5 -103.5t25.5 -135.5q0 -215 -136 -320.5 t-360 -105.5q-156 0 -360 29q-16 2 -19 25q-6 96 -13 171.5t-11 106.5t-4 33z" />
<glyph unicode="T" horiz-adv-x="1593" d="M-16 1147q0 2 5 13t29 80l64 181q2 6 7 30t10 38t14 14q16 0 52 -25.5t83 -25.5h1102q43 0 79.5 25.5t47.5 25.5q8 0 13 -10t19 -61q2 -4 2 -7q29 -102 52.5 -170.5t31 -87t7.5 -20.5q0 -4 -11.5 -10.5t-19.5 -6.5q-18 0 -29 15q-74 133 -153.5 189.5t-192.5 56.5h-250 q-27 0 -38 -26t-11 -103v-791q0 -170 6 -324q2 -33 11.5 -49t48 -28.5t116.5 -12.5q27 0 40.5 -5t15.5 -10t2 -19q0 -27 -17 -27h-9q-7 0 -25.5 1t-49 2t-94.5 1h-147h-147q-62 0 -94 -1t-49.5 -2t-24.5 -1h-9q-16 0 -16 27q0 14 2 19t15 10t40 5q111 0 142.5 20.5 t33.5 69.5q6 154 6 324v791q0 63 -9 90.5t-24.5 33t-56.5 5.5h-223q-102 0 -181 -67t-153 -179q-8 -12 -35 -12q-28 0 -28 14z" />
<glyph unicode="U" horiz-adv-x="1705" d="M39 1434q0 27 18 26q4 0 58.5 -2t131.5 -4t134 -2t135 2t132 4t59 2q18 0 18 -26q0 -35 -23 -35q-135 0 -174 -23.5t-41 -113.5q-4 -188 -4 -289v-371q0 -227 108.5 -370.5t350.5 -143.5q446 0 447 621v405q0 55 -2.5 94t-11.5 70t-16 51.5t-27.5 33.5t-34 20.5 t-48.5 11.5t-57 4h-74q-16 0 -16 30.5t16 30.5q4 0 112.5 -4t188.5 -4q37 0 146.5 4t120.5 4q16 0 22 -6t6 -29q0 -27 -18 -26q-61 0 -87 -1t-61 -8.5t-46 -20.5t-24.5 -42t-16.5 -67.5t-3 -102.5v-485q0 -160 -39 -285t-99 -201.5t-141 -126t-157 -69t-154 -19.5 q-131 0 -236.5 34t-169 88t-106.5 126t-59 142.5t-16 142.5v469q0 100 -5 289q-2 90 -40.5 113.5t-174.5 23.5q-22 0 -22 35z" />
<glyph unicode="V" horiz-adv-x="1517" d="M-41 1432q0 29 27 28q14 0 115.5 -4t201.5 -4q51 0 182 4t142 4q16 0 19 -6t3 -27q0 -29 -22 -28q-115 0 -156 -13.5t-41 -62.5q0 -61 188 -555l62 -167l91 -243q40 -102 50 -102q16 0 191 379q199 440 229 571q12 45 12 74q0 43 -17 68.5t-54 36t-62.5 12.5t-72.5 2 q-23 0 -23 31q0 20 7 25t22 5q16 0 135 -4t139 -4q45 0 137 4t117 4q23 0 23 -28q0 -33 -17 -33q-106 0 -152 -32t-92 -130q-53 -113 -166.5 -378t-166.5 -372q-41 -84 -108.5 -235.5t-104.5 -221t-58 -69.5q-14 0 -24 9.5t-36 61.5t-71 165q-68 168 -168 451l-169 471 q-69 187 -87 212q-35 45 -65.5 56.5t-132.5 11.5q-27 0 -27 33z" />
<glyph unicode="W" horiz-adv-x="2238" d="M-4 1430q0 23 4 26.5t20 3.5q8 0 117 -4t162 -4q35 0 147.5 4t137.5 4q18 0 18 -35q0 -27 -20 -26q-53 0 -75 -1t-46.5 -6.5t-31.5 -17.5t-7 -33q0 -43 24.5 -140t163.5 -609q86 -313 111 -313q8 0 20.5 16t39.5 71l61 122l104 209l152 294q37 70 37 107q0 33 -33 145 q-33 111 -69 133.5t-150 22.5q-16 0 -16.5 30.5t10.5 30.5q49 0 150 -4t153 -4q49 0 148 4t149 4q23 0 22 -24q0 -37 -18 -37q-55 0 -79 -1t-50.5 -8.5t-34.5 -21.5t-8 -41q0 -78 252 -901l12 -38q6 -19 9 -32.5t7 -27t7 -21.5t6.5 -14t6.5 -9t7 -3q10 0 137 323.5 t201 538.5q41 123 41 164q0 57 -31 74.5t-98 17.5q-49 0 -59.5 4t-10.5 29q0 29 19 28q20 0 115 -4t132 -4q31 0 123 4t115 4q27 0 27 -30.5t-19 -30.5q-43 0 -67.5 -3t-60.5 -18.5t-64.5 -53.5t-53.5 -101l-175 -436l-183 -450q-76 -187 -117 -306q-23 -61 -43 -62 q-33 0 -43 31q-90 244 -307 934q-2 8 -6 20q-8 29 -19 29q-8 0 -86 -154l-417 -815q-20 -45 -50 -45q-8 0 -13 2t-10 8.5t-8 12.5t-6.5 18.5t-6.5 21.5t-8 27l-9 33l-190 635q-78 268 -114 405.5t-44 161.5q-23 74 -53.5 89.5t-141.5 15.5q-16 0 -16 31z" />
<glyph unicode="X" horiz-adv-x="1478" d="M-14 23q0 20 8 27t37 7q74 0 115.5 17.5t82.5 70.5l381 494q33 43 33 53q0 18 -126 226l-226 360q-53 84 -101.5 102.5t-146.5 18.5q-14 0 -14 28q0 33 24 33q47 0 142.5 -4t128.5 -4q61 0 188 4t143 4q18 0 19 -28q0 -12 -1 -18.5t-7.5 -10.5t-11.5 -4h-19 q-74 0 -98.5 -8.5t-24.5 -47.5q0 -16 51 -102q225 -365 228 -364q16 0 213 276q68 94 67 156q0 90 -94 90q-49 0 -60.5 4t-11.5 27q0 31 23 30q14 0 111.5 -4t131.5 -4q47 0 166 4t121 4q20 0 21 -33q0 -29 -19 -28q-102 0 -146 -19.5t-97 -76.5q-117 -129 -343 -424 q-43 -55 -43 -66q0 -25 244 -418l156 -250q33 -53 71.5 -70.5t110.5 -17.5q66 0 66 -18q0 -31 -2 -37t-17 -6h-11q-7 0 -25.5 1t-48 2t-89.5 1h-137h-129q-55 0 -84 -1t-46.5 -2t-25.5 -1h-12q-14 0 -17.5 8t-3.5 35q0 18 97 18q53 0 53 62q0 12 -8 31.5t-32 60.5l-50 85 l-78 130l-100 168q-23 39 -33 39q-4 0 -11 -8.5t-21.5 -29t-26.5 -34.5q-59 -76 -164 -232.5t-105 -197.5q0 -74 127 -74q53 0 70.5 -4t17.5 -20q0 -37 -20 -37h-12q-8 0 -25.5 1t-47.5 2t-86 1h-130h-108q-46 0 -68.5 -1t-37 -2t-20.5 -1h-8q-18 0 -18 27z" />
<glyph unicode="Y" horiz-adv-x="1366" d="M-18 1432q0 29 34 28q43 0 129 -4t129 -4q45 0 139.5 4t139.5 4q25 0 33 -5t8 -25.5t-8 -25.5t-43 -5q-113 0 -113 -64q0 -41 279 -563q6 -14 18 -35q23 -45 33 -45q12 0 86 139q242 442 241 496q0 72 -92 72q-61 0 -75.5 6t-14.5 27q0 29 27 28q10 0 106.5 -4t112.5 -4 q20 0 112.5 4t141.5 4q27 0 27 -28q0 -20 -13.5 -26.5t-62.5 -6.5q-59 0 -100.5 -21.5t-59.5 -46t-41 -69.5l-324 -588q-33 -59 -40 -88t-7 -115q0 -170 7 -324q2 -33 11 -49t48 -28.5t117 -12.5q27 0 40 -5t15 -10t2 -19q0 -27 -16 -27h-10q-7 0 -25.5 1t-49 2t-94.5 1 h-147h-146q-62 0 -94 -1t-49.5 -2t-24.5 -1h-10q-16 0 -16 27q0 14 2 19t15.5 10t39.5 5q111 0 142.5 20.5t33.5 69.5q6 154 7 324q0 102 -19 131l-383 725q-25 47 -54.5 59.5t-84.5 12.5q-41 0 -50 5t-9 28z" />
<glyph unicode="Z" horiz-adv-x="1402" d="M29 14q0 20 35.5 68.5t169.5 214.5l280 360l200 266l153 202l96 127q45 60 60 85t15 33q0 14 -17 17.5t-108 3.5q-270 0 -362 -5.5t-156 -31.5q-82 -33 -131 -98.5t-94 -168.5q-12 -25 -37 -24q-29 0 -29 14q0 6 23 87l51 191q29 110 41 171q4 20 21 20q27 0 28 -16 q8 -55 36 -66.5t118 -11.5h874q31 0 31 -14q0 -4 -1 -8.5t-3 -9.5t-6 -11l-11 -16l-17 -23l-24 -32l-32 -42l-41 -56l-51 -71l-586 -784q-221 -289 -221 -307q0 -16 59 -17q453 0 586 15q82 8 150.5 58t168.5 190q4 4 10 11l7 10q2 3 5 8t5 7l5 6q3 3 5 4t5 2t7.5 2t8.5 1h8 q20 0 20 -17q0 -6 -44 -131t-72 -198q-10 -29 -33 -29h-891q-90 0 -159.5 -2t-104.5 -2h-26q-7 0 -14 2t-9 6t-2 10z" />
<glyph unicode="[" horiz-adv-x="645" d="M217 -379q0 61 2 218t2 272v837q0 115 -2 271.5t-2 218.5q0 23 27 22h372q18 0 19 -24q0 -18 -10.5 -23.5t-63.5 -5.5q-111 0 -148.5 -18.5t-43.5 -67.5q-14 -104 -15 -225v-1133q0 -121 15 -225q6 -49 44 -67.5t148 -18.5q53 0 63.5 -4t10.5 -25q0 -25 -19 -24h-372 q-27 -1 -27 22z" />
<glyph unicode="\" d="M70 1452h151l772 -1452h-153z" />
<glyph unicode="]" horiz-adv-x="645" d="M10 -377q0 20 10.5 24.5t63.5 4.5q111 0 148.5 18.5t43.5 67.5q14 104 15 225v1133q0 121 -15 225q-6 49 -43.5 67.5t-148.5 18.5q-53 0 -63.5 5t-10.5 24q0 25 19 24h372q27 0 27 -22q0 -61 -2 -218t-2 -272v-837q0 -115 2 -271.5t2 -218.5q0 -23 -27 -22h-372 q-19 -1 -19 24z" />
<glyph unicode="^" d="M90 573l363 840h159l361 -840h-148l-293 715l-294 -715h-148z" />
<glyph unicode="_" horiz-adv-x="1024" d="M0 -154h1024v-102h-1024v102z" />
<glyph unicode="`" horiz-adv-x="569" d="M-39 1360q0 76 72 76q43 0 84 -47l301 -304h-80l-318 199q-59 37 -59 76z" />
<glyph unicode="a" horiz-adv-x="909" d="M74 643q0 43 28.5 77t139.5 107q106 70 144 86.5t77 16.5q29 0 67.5 -11.5t82.5 -36t74 -73.5t30 -115v-583q0 -41 35 -41q23 0 53.5 23.5t34.5 23.5q8 0 17 -8.5t9 -14.5q0 -20 -77.5 -71.5t-126.5 -51.5q-51 0 -72 27t-41 92q-90 -70 -144.5 -94.5t-119.5 -24.5 q-106 0 -151.5 58.5t-45.5 124.5q0 88 91 161.5t372 178.5v186q0 72 -61.5 117t-110.5 45q-33 0 -89.5 -39t-56.5 -55q0 -12 13.5 -45t13.5 -57.5t-23.5 -51.5t-76.5 -27q-45 0 -65.5 25.5t-20.5 50.5zM266 184q0 -53 23.5 -90t72.5 -37q55 0 122 40t67 69v248q0 20 -14 20 q-10 0 -93.5 -39t-109.5 -61q-41 -31 -54.5 -61t-13.5 -89z" />
<glyph unicode="b" horiz-adv-x="1099" d="M43 1430q0 25 16 28q72 12 139.5 35t103.5 38t42 15q12 0 12 -22v-8q-2 -6 -3 -23.5t-3 -46.5t-3 -86t-1 -131v-391q109 96 248 96q174 0 303 -119t129 -358q0 -125 -41 -222.5t-107.5 -152.5t-140 -83t-149.5 -28q-90 0 -193.5 40t-122.5 40q-31 0 -49 -29.5t-30 -29.5 q-16 0 -17 26q0 12 2 45t2 60v1069q0 137 -18.5 171t-100.5 42q-18 5 -18 25zM346 297q0 -272 225 -272q260 0 260 403q0 444 -272 444q-98 0 -155.5 -54t-57.5 -148v-373z" />
<glyph unicode="c" horiz-adv-x="909" d="M74 434q0 223 131 355.5t334 132.5q98 0 169.5 -24t103.5 -58.5t46 -63t14 -49.5q0 -25 -28.5 -56.5t-79.5 -31.5q-47 0 -62.5 22.5t-33.5 110.5q-18 96 -127 96q-117 0 -203 -102t-86 -332q0 -47 11 -95t44 -110.5t109 -102.5t184 -40q51 0 110.5 27.5t96.5 58.5 q6 6 13 14.5t12.5 13.5t9.5 5q6 0 18 -9.5t12 -19.5q0 -14 -16 -31q-154 -174 -358 -174q-184 0 -304 125t-120 338z" />
<glyph unicode="d" horiz-adv-x="1099" d="M86 410q0 238 140.5 376t314.5 138q104 0 213 -45v313q0 137 -18.5 171t-100.5 42q-18 4 -19 25q0 25 17 28q72 12 139.5 35t103 38t42.5 15q12 0 12 -22v-8q-2 -6 -3 -23.5t-3 -46.5t-3 -86t-1 -131v-1055q0 -27 2 -39t11 -27.5t32.5 -21.5t62.5 -6q16 0 16 -23 q0 -29 -14 -30q-84 -16 -145.5 -31.5l-80 -20t-24.5 -4.5q-23 0 -22 21q0 14 3 41.5t3 46.5q-129 -109 -281 -109q-186 0 -291.5 125.5t-105.5 313.5zM264 492q0 -125 25.5 -216.5t58.5 -134.5t80 -67.5t71.5 -27.5t53.5 -3q76 0 138.5 43t62.5 135v479q0 25 -7.5 48.5 t-26 54.5t-63.5 49t-112 18q-82 0 -141.5 -39.5t-87 -103t-40 -122t-12.5 -113.5z" />
<glyph unicode="e" horiz-adv-x="948" d="M86 438q0 213 123 352.5t287 139.5q96 0 167.5 -32t108.5 -75t58.5 -98t26.5 -89t5 -61q0 -23 -24 -22h-584q-8 -51 -8 -117q0 -117 91 -227.5t244.5 -110.5t239.5 123q2 4 5 8l7 9q3 4 5 7l4 6q2 3 5 4t5 1q10 0 21.5 -9t11.5 -16q0 -4 -10.5 -28.5t-37 -64.5 t-63.5 -76.5t-101.5 -63.5t-140.5 -27q-217 0 -331.5 124t-114.5 343zM266 614h340q70 0 70 68q0 106 -55.5 150.5t-124.5 44.5q-191 -1 -230 -263z" />
<glyph unicode="f" horiz-adv-x="645" d="M51 817q0 23 64 35q66 14 84 31.5t22 83.5q16 240 97 369.5t257 176.5q66 16 125 17q49 0 89 -21.5t40 -66.5t-25.5 -73t-70.5 -28q-55 0 -112.5 47.5t-90.5 47.5q-137 0 -137 -297v-265h254q20 0 21 -43q0 -51 -56 -51q-2 0 -96 5.5t-123 5.5v-621q0 -37 2 -52.5 t11.5 -35t31 -26.5t58.5 -7q57 0 70.5 -4t13.5 -20q0 -18 -6.5 -23.5t-24.5 -5.5q-35 0 -109.5 2t-124.5 2q-72 0 -122 -1t-70.5 -2t-24.5 -1q-18 0 -18 27q0 16 7 21t36 5q66 0 85 19.5t19 85.5v571q0 66 -39 66h-112q-8 0 -12.5 1t-8.5 7t-4 18z" />
<glyph unicode="g" d="M78 -365q0 59 30.5 119t60.5 93.5t87 89.5q-49 4 -86 40.5t-37 83.5q0 84 38 133.5t120 106.5q-160 82 -160 291q0 141 109.5 238.5t253 97.5t247.5 -80q96 61 174 61q86 0 120 -34.5t34 -79.5q0 -25 -23.5 -48.5t-54.5 -23.5q-29 0 -76 58.5t-63 58.5q-20 0 -78 -27 q29 -31 53.5 -94.5t24.5 -104.5q0 -166 -97.5 -259t-267.5 -93q-98 0 -147 23q-84 -47 -84 -131q0 -68 96 -68h303q80 0 136.5 -20.5t83 -46t41 -66.5t16.5 -60.5t2 -50.5q0 -111 -56.5 -192.5t-147.5 -124.5t-188.5 -62.5t-199.5 -19.5q-264 -1 -264 192zM195 -274 q0 -14 3 -31t19 -47.5t44 -53t88.5 -40t139.5 -17.5q176 0 259 56.5t83 175.5q0 90 -51 125.5t-157 35.5h-295q-8 0 -39 -26.5t-62.5 -76.5t-31.5 -101zM309 559q0 -104 43 -174t142 -70q180 0 180 312q0 27 -3 54.5t-17.5 78.5t-53.5 82.5t-98 31.5q-193 0 -193 -315z" />
<glyph unicode="h" horiz-adv-x="1138" d="M27 18q0 20 11 25.5t66 5.5q53 0 74 49q12 29 12 377v717q0 137 -18 171t-100 42q-18 4 -19 25q0 25 17 28q72 12 139 35t103 38t42 15q12 0 13 -22l-2 -8q0 -6 -2.5 -23.5t-3.5 -46.5t-2 -86t-1 -131v-430q92 63 164 93t158 30q39 0 73.5 -8.5t85 -35t81 -94 t30.5 -170.5v-491q0 -23 6.5 -36t37 -25.5t89.5 -12.5q20 0 21 -26q0 -8 -1 -12.5t-8.5 -9.5t-19.5 -5q-25 0 -86 2t-121 2q-74 0 -123 -1t-69.5 -2t-22.5 -1q-14 0 -14 24q0 29 29 29q76 0 96 13.5t20 62.5v367q0 168 -42 242.5t-187 74.5q-66 0 -128.5 -24.5t-68.5 -51.5 v-543q0 -92 14.5 -116.5t80.5 -24.5q41 0 50 -4t9 -22q0 -27 -21 -27h-16q-16 2 -58 3t-106 1q-84 0 -145.5 -1t-89 -2t-31.5 -1q-16 -1 -16 22z" />
<glyph unicode="i" horiz-adv-x="569" d="M27 18q0 20 11 25.5t66 5.5q63 0 84 49q12 29 13 295v281q0 59 -24.5 86.5t-96.5 36.5q-18 2 -19 24q0 25 17 29q80 16 139 35.5t84 33.5l41 22q16 9 23 9q12 0 12 -22v-6q-2 -8 -3 -25.5t-3 -46.5t-3 -86t-1 -131v-443q0 -92 14 -116.5t80 -24.5q35 0 42 -4t7 -22 q0 -27 -21 -27h-16q-16 2 -55 3t-99 1q-84 0 -146 -1t-92 -2t-38 -1q-16 -1 -16 22zM176 1343q0 43 31 76t76 33t75.5 -33t30.5 -76t-30.5 -75.5t-75.5 -32.5t-76 32.5t-31 75.5z" />
<glyph unicode="j" horiz-adv-x="530" d="M-16 -520q0 12 14 25.5t37.5 29.5t36.5 29q61 59 91 138t34 139.5t4 181.5v651q0 59 -24.5 86.5t-96.5 36.5q-18 2 -19 24q0 25 17 29q80 16 139 35.5t84 33.5l41 22q16 9 23 9q12 0 12 -22v-6q-2 -8 -3 -25.5t-3 -46.5t-3 -86t-1 -131v-662q0 -76 -35 -157.5t-85 -145 t-102.5 -116t-88.5 -81t-42 -28.5q-14 0 -22 13.5t-8 23.5zM176 1343q0 43 31 76t76 33t75.5 -33t30.5 -76t-30.5 -75.5t-75.5 -32.5t-76 32.5t-31 75.5z" />
<glyph unicode="k" horiz-adv-x="1024" d="M31 18q0 31 10 31q111 0 133 29q16 23 16 397v717q0 137 -18 171t-100 42q-18 4 -19 25q0 25 17 28q72 12 139 35t103 38t42 15q12 0 13 -22l-2 -8q0 -6 -2.5 -23.5t-3.5 -46.5t-2 -86t-1 -131v-766q45 0 115 54t203 192q39 33 39 69q0 35 -25.5 45.5t-81.5 10.5 q-16 0 -20 5t-4 21q0 27 20 27q35 0 103.5 -2t103.5 -2q33 0 96.5 2t93.5 2q18 0 19 -21q0 -25 -9.5 -28.5t-56.5 -3.5q-51 0 -149 -86l-178 -159q-57 -52 -72.5 -68.5t-15.5 -22.5q0 -12 297 -351q61 -68 92.5 -83t117.5 -15q16 0 22.5 -6t6.5 -26.5t-22 -20.5q-6 0 -78 2 t-170 2q-39 0 -115 -2t-80 -2q-12 0 -15 5t-3 24q0 25 22 24q14 0 42 6t28 17q0 4 -1 7t-6 10l-10 14q-5 7 -16.5 20.5l-24.5 28.5l-34 37l-43 51l-55 64l-68 79q-23 27 -68 27v-269q0 -49 27 -70.5t119 -21.5q10 0 10 -26.5t-23 -26.5h-16q-16 2 -58 3t-106 1 q-86 0 -146.5 -1t-87 -2t-28.5 -1q-16 -1 -16 22z" />
<glyph unicode="l" horiz-adv-x="569" d="M37 18q0 20 11 25.5t67 5.5q53 0 73 49q12 29 13 377v717q0 137 -18.5 171t-100.5 42q-18 4 -19 25q0 25 17 28q72 12 139.5 35t103 38t42.5 15q12 0 12 -22v-8q-2 -6 -3 -23.5t-3 -46.5t-3 -86t-1 -131v-1039q0 -92 14 -116.5t80 -24.5q41 0 50 -4t9 -22q0 -27 -20 -27 h-17q-16 2 -58 3t-106 1q-84 0 -145 -1t-89 -2t-32 -1q-16 -1 -16 22z" />
<glyph unicode="m" horiz-adv-x="1705" d="M33 18q0 20 8 25.5t49 5.5q63 0 84 49q12 29 12 295v281q0 59 -24.5 86.5t-95.5 36.5q-18 2 -19 24q0 25 16 29q80 16 139.5 35.5t84.5 33.5l41 22q16 9 22 9t6 -22q0 -4 -1 -21.5t-2 -49.5t-1 -66q49 37 167 84t194 47q141 0 223 -134l61 38q41 26 62.5 38.5t55.5 28.5 t66.5 22.5t67.5 6.5q270 0 271 -250v-545q0 -23 6 -36t36.5 -25.5t90.5 -12.5q20 0 20 -26q0 -8 -1 -12.5t-8 -9.5t-19 -5q-25 0 -86.5 2t-120.5 2q-74 0 -123 -1t-69.5 -2t-22.5 -1q-14 0 -15 25q0 29 29 28q76 0 96.5 13.5t20.5 62.5v530q0 16 -6.5 39t-24.5 54.5 t-64.5 53t-113.5 21.5q-61 0 -135 -46t-74 -66v-525q0 -92 14.5 -116.5t79.5 -24.5q41 0 50.5 -4t9.5 -22q0 -27 -21 -27h-9q-7 0 -20.5 1t-35 2t-61.5 1h-89q-74 0 -123 -1t-69.5 -2t-22.5 -1q-14 0 -14 24q0 29 28 29q76 0 96.5 13.5t20.5 66.5v530q0 35 -6 59.5 t-25.5 52.5t-64.5 42t-113 14q-61 0 -135 -46t-74 -66v-525q0 -92 14.5 -116.5t79.5 -24.5q41 0 50.5 -4t9.5 -22q0 -27 -21 -27h-16q-16 2 -58 3t-106 1q-84 0 -141.5 -1t-82 -2t-32.5 -1q-16 -1 -16 22z" />
<glyph unicode="n" horiz-adv-x="1138" d="M16 18q0 20 11.5 25.5t66.5 5.5q63 0 84 49q12 29 12 295v281q0 59 -24.5 86.5t-95.5 36.5q-18 2 -19 24q0 25 17 29q80 16 139 35.5t84 33.5l41 22q16 9 22 9t6 -22q0 -2 -1 -21.5t-2 -53.5t-1 -73q70 47 110 70.5t100.5 47.5t111.5 24q39 0 73.5 -8.5t85 -35t81 -94 t30.5 -170.5v-491q0 -23 6.5 -36t37 -25.5t89.5 -12.5q20 0 21 -26q0 -8 -1 -12.5t-8.5 -9.5t-19.5 -5q-25 0 -86 2t-121 2q-74 0 -123 -1t-69.5 -2t-22.5 -1q-14 0 -14 24q0 29 29 29q76 0 96 13.5t20 62.5v367q0 168 -42 242.5t-187 74.5q-53 0 -120.5 -36t-76.5 -58v-525 q0 -92 14.5 -116.5t80.5 -24.5q41 0 50 -4t9 -22q0 -27 -21 -27h-16q-16 2 -58 3t-106 1q-84 0 -146.5 -1t-92 -2t-37.5 -1q-17 -1 -17 22z" />
<glyph unicode="o" horiz-adv-x="1099" d="M74 446q0 203 135 339.5t340 136.5q207 0 342 -134.5t135 -341.5q0 -215 -131 -345t-346 -130q-209 0 -342 135t-133 340zM268 446q0 -76 11.5 -141t39 -133t87 -107.5t143.5 -39.5q86 0 145.5 39.5t87 107.5t38.5 133.5t11 140.5q0 174 -67.5 298t-214.5 124 q-100 0 -166 -65.5t-90.5 -155.5t-24.5 -201z" />
<glyph unicode="p" horiz-adv-x="1099" d="M35 -512q0 29 18 29q90 0 108.5 18.5t18.5 93.5v963q0 137 -18.5 171t-100.5 42q-18 2 -18 24q0 25 16 29q72 12 139.5 34.5t103.5 38t42 15.5q8 0 8 -28q0 -10 -3 -53.5t-3 -69.5l93 63q28 18 84.5 39t113.5 21q184 0 286.5 -141.5t102.5 -330.5q0 -223 -113.5 -349 t-341.5 -126q-45 0 -81.5 4.5t-50 6.5t-49.5 12t-44 12v-373q0 -78 23.5 -97t142.5 -19q10 0 10 -23q0 -31 -20 -31q-4 0 -35 2.5t-81 3.5t-103 1q-41 0 -118 -3.5t-110 -3.5q-20 0 -20 25zM346 182q0 -61 59.5 -109t180.5 -48q90 0 148.5 59t77.5 134t19 163 q0 76 -12 147.5t-39.5 145.5t-86 119t-140.5 45q-72 0 -139.5 -50.5t-67.5 -111.5v-494z" />
<glyph unicode="q" horiz-adv-x="1099" d="M86 434q0 207 124 347.5t329 140.5q92 0 187 -21.5t105 -21.5q20 0 49 21.5t31 21.5q18 0 19 -29q0 -18 -2 -117.5t-5 -302.5t-3 -473v-369q0 -78 19 -98t116 -20q10 0 10 -25q0 -29 -31 -29q-10 0 -95 3t-169 3q-61 0 -101 -1t-58.5 -3t-22.5 -2q-10 0 -10 31q0 23 8 23 q121 0 144.5 15t23.5 85v399q-33 -12 -118 -26.5t-136 -14.5q-147 0 -242 66q-88 68 -130 176t-42 221zM281 520q0 -481 329 -481q143 0 144 43v545q0 117 -81 179t-159 62t-130 -42t-71.5 -108.5t-25.5 -110.5t-6 -87z" />
<glyph unicode="r" horiz-adv-x="796" d="M33 22.5q0 26.5 63 26.5q66 0 85.5 19.5t19.5 85.5v520q0 59 -24.5 86.5t-96.5 36.5q-18 2 -19 24q0 25 17 29q80 16 139 35.5t84 33.5l41 22q16 9 23 9q8 0 8 -20q0 -2 -5.5 -61.5t-5.5 -125.5q160 178 287 179q57 0 94 -30t37 -85q0 -41 -28.5 -71.5t-71.5 -30.5 q-45 0 -87 38.5t-71 38.5q-63 0 -141 -88q-14 -16 -14 -59v-465q0 -37 2 -52.5t11 -35t30.5 -26.5t58.5 -7q57 0 70.5 -4t13.5 -20q0 -18 -6 -23.5t-25 -5.5q-35 0 -109.5 2t-123.5 2q-98 0 -166 -2t-72 -2q-18 0 -18 26.5z" />
<glyph unicode="s" horiz-adv-x="757" d="M55 219q0 12 37 12q14 0 34 -32l40 -71q20 -38 68.5 -70.5t115.5 -32.5q98 0 142.5 57t44.5 125q0 59 -47.5 99t-115 64.5t-135 53.5t-114.5 84t-47 135q0 123 90 201t221 78q147 0 221 -19q31 -6 31 -57q2 -47 12.5 -101.5t10.5 -62.5q0 -16 -23 -16q-31 0 -41 28 q-72 174 -213 174q-74 0 -119 -41t-45 -112q0 -88 96 -137q47 -23 119 -50.5t104.5 -44t71.5 -47t53.5 -75t14.5 -111.5q0 -45 -13.5 -87t-47 -88t-104.5 -75t-169 -29q-12 0 -101 8.5t-134 8.5q-10 0 -11 10q0 8 -23.5 108.5t-23.5 112.5z" />
<glyph unicode="t" horiz-adv-x="681" d="M51 809q0 18 12 29q80 61 141.5 125.5t87 95.5t42.5 31q25 0 24 -27q0 -8 -3 -64.5t-3 -124.5h316q20 0 20 -43q0 -51 -55 -51q-2 0 -38 3t-101.5 5.5t-141.5 2.5v-431q0 -174 33 -234t147 -60q31 0 64 12t53.5 23.5t22.5 11.5q6 0 14 -12.5t8 -20.5q0 -10 -26.5 -33.5 t-94 -49.5t-151.5 -26q-236 0 -236 254v539q0 27 -20 27h-103q-12 0 -12 18z" />
<glyph unicode="u" horiz-adv-x="1099" d="M10 848q0 41 23 41q4 0 43 -3t78 -3q41 0 105.5 3t72.5 3q10 0 13 -4t3 -25v-553q0 -121 46 -181t155 -60q63 0 133 32.5t70 75.5v531q0 82 -22.5 102t-104.5 20q-66 0 -66 21q0 41 14 41q2 0 53.5 -3t125.5 -3q27 0 78 3t77 3q29 0 29 -29q0 -2 -2 -21l-5 -51 q-3 -31 -5 -68.5t-4 -83.5t-2 -87v-385q0 -76 51 -76q16 0 49 4t39 4q12 0 12 -39q0 -10 -10 -14t-58 -12q-76 -12 -132 -25.5t-77.5 -21t-25.5 -7.5q-25 0 -25 29q0 16 7 78q-72 -53 -157 -83t-149 -30q-145 0 -202.5 86t-57.5 258v320q0 131 -22.5 161.5t-104.5 30.5 q-45 1 -45 21z" />
<glyph unicode="v" horiz-adv-x="948" d="M-35 864.5q0 22.5 23 22.5q33 0 97.5 -2t96.5 -2q20 0 122 2t122 2q16 0 16 -29q0 -25 -20 -24q-119 0 -119 -50q0 -45 83 -263t126 -308q147 328 186 424t39 137q0 59 -137 60q-18 0 -18 28q0 25 26.5 25t87 -2t88.5 -2q31 0 90.5 2t90.5 2q18 0 18 -25q0 -20 -20 -22 q-88 -14 -115 -40t-76 -147q-43 -104 -134 -305t-97 -215q-68 -162 -92 -162q-4 0 -9.5 2t-9.5 8.5l-8 13.5t-10 19l-12 23q-5 10 -14 31l-15 34q-31 63 -93 232l-114 307q-51 139 -64 156q-23 33 -71 32q-41 0 -52.5 6.5t-11.5 29z" />
<glyph unicode="w" horiz-adv-x="1441" d="M-16 854v16q0 16 22 17q33 0 97.5 -2t97.5 -2q8 0 104 2t119 2q16 0 16 -29q0 -25 -20 -24q-109 0 -109 -48q0 -18 98.5 -274t106.5 -287h4q6 18 54 113l91 181q42 87 42 102q0 27 -24 99.5t-38 96.5q-10 16 -53 17q-29 0 -37 6t-8 22q0 25 26 25q12 0 58.5 -2t101.5 -2 q41 0 104.5 2t92.5 2q18 0 18 -25q0 -29 -24 -28q-92 0 -92.5 -31t83.5 -286t93 -292h4q12 35 65 166l97 244q43 113 43 147q0 20 -19.5 30.5t-69.5 21.5q-27 4 -26.5 28.5t26.5 24.5q2 0 53.5 -2t123.5 -2q45 0 88 2t45 2q18 0 18 -25q0 -29 -31 -28q-74 0 -99.5 -24 t-65.5 -120l-88 -217l-131 -328q-60 -150 -68 -159q-10 -14 -25 -15q-23 0 -30 29l-87 266q-57 180 -90 275l-153 -322q-23 -45 -44 -93l-32 -73q-10 -25 -20.5 -46t-18.5 -28.5t-16 -7.5q-14 0 -26.5 22.5t-45.5 110.5q-16 47 -29 76q-229 596 -233 602q-31 51 -113 52 q-26 0 -26 20z" />
<glyph unicode="x" horiz-adv-x="909" d="M-10 22.5q0 26.5 35 26.5q18 0 48.5 10.5t45.5 26.5q6 6 33 39l82 101l118 143q27 29 27 47l-12 28q-168 301 -222 355q-35 35 -104 35q-20 0 -21 30q0 23 29 23q33 0 96.5 -2t96.5 -2q31 0 92 2t92 2q18 0 18 -31q0 -20 -20 -22q-43 -12 -52.5 -18.5t-9.5 -20.5 q0 -27 140 -258q4 6 27 36l41 56l38 55q20 31 32.5 56.5t12.5 39.5q0 53 -88 54q-18 0 -18 26.5t20 26.5q23 0 78 -2t94 -2q53 0 96.5 2t45.5 2q6 0 12 -9.5t6 -17.5q0 -18 -25 -26q-84 -16 -126.5 -61.5t-196.5 -272.5q-6 -12 -6 -27q0 -2 213 -364q37 -59 143 -60 q16 0 17 -31q0 -16 -5.5 -19t-17.5 -3q-35 0 -108.5 2t-108.5 2q-31 0 -96.5 -2t-96.5 -2q-27 0 -26.5 26.5t22.5 26.5q74 0 74 43q0 37 -139 273q-106 -131 -145.5 -188.5t-39.5 -88.5q0 -20 32 -29.5t59 -9.5q31 0 30 -31q0 -23 -20 -22q-29 0 -88.5 2t-89.5 2 q-29 0 -80 -2t-72 -2q-12 0 -12 26.5z" />
<glyph unicode="y" horiz-adv-x="985" d="M-41 862q0 25 23 25q6 0 95 -2t132 -2q37 0 104.5 2t98.5 2q25 0 24.5 -26.5t-20.5 -26.5q-100 0 -101 -46q0 -123 203 -643q264 545 264 619q0 70 -157 70q-20 0 -20.5 26.5t18.5 26.5q33 0 99 -2t99 -2q31 0 94.5 2t96.5 2q14 0 14 -27q0 -25 -35 -26 q-55 -4 -80.5 -21.5t-48.5 -69.5q-31 -74 -204 -444.5t-197 -433.5q-74 -186 -132.5 -283.5t-89 -118t-71.5 -20.5q-49 0 -82 36t-33 85q0 45 37 77.5t82 32.5q29 0 61.5 -17t40.5 -17q29 0 81.5 111.5t52.5 180.5q0 47 -72 230q-76 197 -139.5 400.5t-71.5 223.5 q-18 47 -148 48q-18 -1 -18 28z" />
<glyph unicode="z" horiz-adv-x="909" d="M80 16q0 6 12 27q168 299 506 778q-139 4 -160 4q-55 0 -85.5 -3t-71.5 -13t-70 -38t-47 -71q-16 -41 -27.5 -51t-27.5 -10q-23 0 -23 18q0 8 22.5 98.5t28.5 155.5q0 20 21 21q8 0 17 -7t20 -18l14 -14q14 -10 160 -10q100 0 202 3l167 5q65 2 71 2q18 0 18 -10 q0 -6 -21 -35l-83 -114q-61 -85 -131 -195q-2 -4 -123 -184l-193 -294h281q88 0 126 11.5t67 62.5l67 113q27 45 39 49q6 2 14 2q23 0 23 -23q0 -2 -10.5 -35.5t-26.5 -95l-29 -114.5q-8 -35 -59 -35q-2 0 -74.5 2t-140.5 2h-447q-26 0 -26 16z" />
<glyph unicode="{" horiz-adv-x="645" d="M78 528.5q0 12.5 9 17.5t32.5 10t40.5 11q37 14 62.5 61.5t25.5 121.5v391q0 190 71.5 254.5t243.5 64.5q12 0 17.5 -1t9.5 -7t4 -18q0 -18 -6 -22.5t-25 -4.5q-86 0 -126 -50t-40 -159v-395q0 -125 -34.5 -185.5t-143.5 -85.5v-8q111 -27 144.5 -93t33.5 -198v-372 q0 -109 40 -159t126 -50q12 0 17.5 -1t9.5 -7t4 -19q0 -18 -6 -22t-25 -4q-172 0 -243.5 64.5t-71.5 254.5v381q0 76 -25.5 124t-62.5 64q-16 8 -40 13.5t-33 10.5t-9 17.5z" />
<glyph unicode="|" d="M465 0v1436h133v-1436h-133z" />
<glyph unicode="}" horiz-adv-x="645" d="M51 -375q0 18 6 22.5t25 4.5q86 0 126 50t40 159v395q0 125 34.5 185.5t143.5 84.5v9q-111 27 -144.5 93t-33.5 197v373q0 109 -40 159t-126 50q-12 0 -17.5 1t-9.5 7t-4 19q0 18 6 22t25 4q172 0 243.5 -64.5t71.5 -254.5v-381q0 -76 26 -124t62 -65q16 -8 40 -13 t33 -10t9 -17.5t-9 -17.5t-32.5 -10t-40.5 -11q-37 -14 -62.5 -61.5t-25.5 -121.5v-391q0 -190 -71.5 -254.5t-243.5 -64.5q-12 0 -17.5 1t-9.5 7t-4 18z" />
<glyph unicode="~" d="M90 440q39 70 67.5 110t85 77t126.5 37q66 0 176 -70t143 -70q37 0 74 34t54 63l52 90l105 -97q-39 -70 -67.5 -109.5t-85 -76.5t-126.5 -37q-66 0 -176 69.5t-143 69.5q-37 0 -74 -33.5t-54 -62.5l-52 -90z" />
<glyph unicode="&#xa1;" horiz-adv-x="606" d="M188 819q0 51 36 83t79 32t79 -32t36 -83t-36 -82.5t-79 -31.5t-79 31.5t-36 82.5zM195 -496q0 27 8 76t10 66q57 549 57 716q0 57 33 57.5t33 -57.5q0 -246 49 -716q2 -16 10 -65.5t8 -76.5q0 -23 -17 -33t-33.5 -12t-49.5 -2q-37 0 -55.5 2t-35.5 12t-17 33z" />
<glyph unicode="&#xa2;" d="M139 436q0 223 131 355.5t334 132.5q37 0 94 -9q4 14 17 53l22 67q10 30 13 34q4 10 16 10q8 0 28.5 -8t20.5 -16l-51 -152q94 -29 135 -82t41 -92q0 -8 -8 -27.5t-36 -40t-65 -20.5q-49 0 -67.5 29.5t-32.5 128.5h-4l-227 -680q70 -33 166 -33q51 0 110.5 27.5 t95.5 58.5q6 6 13.5 14.5t12.5 13.5t9 5q6 0 18.5 -9.5t12.5 -19.5q0 -14 -16 -31q-154 -174 -359 -174q-57 0 -108 15l-25 -70q-4 -10 -8 -22.5t-6 -19.5t-5 -15.5t-4 -13.5t-3.5 -10t-4.5 -8t-4 -5t-4 -3t-4 -1q-10 0 -33.5 8t-23.5 14q0 8 59 168q-115 47 -182.5 158.5 t-67.5 269.5zM317 434q0 -184 123 -280l238 702q-29 14 -72 14q-117 0 -203 -102.5t-86 -333.5z" />
<glyph unicode="&#xa3;" d="M-23 153.5q0 73.5 49.5 128t123.5 54.5q25 0 47 -3t46.5 -12.5t38 -15.5t43.5 -21l42 -22q35 84 34 156q0 117 -36 188h-285q-14 0 -18.5 4t-4.5 19v67q0 16 19 17h229q-174 244 -174 364q0 162 141.5 273.5t309.5 111.5q197 0 301 -99t104 -212q0 -74 -34.5 -130 t-104.5 -56q-45 0 -82 28.5t-37 73.5q0 49 46 99.5t46 82.5q0 63 -67.5 107.5t-153.5 44.5q-117 0 -195.5 -70.5t-78.5 -185.5q0 -72 91 -233.5t103 -198.5h348q14 0 18.5 -4t4.5 -19v-63q0 -20 -19 -21h-327q6 -27 6 -76q0 -106 -102 -303q113 -68 247 -67q80 0 138.5 29.5 t88 71.5t47 85t27 73t13.5 30q8 0 30.5 -5.5t22.5 -11.5q0 -29 -17.5 -94.5t-53.5 -151.5t-111.5 -148.5t-173.5 -62.5q-156 0 -328 131q-57 -68 -100 -95t-119 -27q-74 0 -128.5 48t-54.5 121.5zM47 156q0 -45 35 -75t82 -30q82 0 153 105q-111 96 -170 96 q-43 0 -71.5 -26.5t-28.5 -69.5z" />
<glyph unicode="&#xa4;" d="M41 504l20 94h95q-2 27 -2 78q0 57 2 88h-115l20 94h105q14 115 47 216.5t89 191.5t145.5 143t203.5 53q70 0 124 -18.5t85 -35.5t41 -17q18 0 41 17t37 17t14 -24q0 -53 9.5 -130t19.5 -133.5t10 -60.5q0 -27 -39 -26q-16 0 -22 16q-41 174 -107.5 258t-181.5 84 q-111 0 -209 -145.5t-125 -405.5h524l-20 -94h-512v-80q0 -57 2 -86h475l-20 -94h-445q29 -211 125 -344t252 -133q150 0 275 114q4 4 8 4q10 0 19 -9t9 -19.5t-6 -16.5q-129 -129 -350 -129q-125 0 -222 48.5t-154.5 130t-91.5 169t-48 185.5h-127z" />
<glyph unicode="&#xa5;" d="M-53 1432q0 29 35 28q25 0 102.5 -4t124.5 -4q49 0 137 4t121 4q25 0 33 -5t8 -25q0 -31 -12 -31q-166 0 -166 -64q0 -33 184 -508l14 -39q8 -23 15 -37l12 -30q6 -14 10 -21.5t8 -7.5q23 0 101 199q160 399 160 436q0 72 -121 72q-25 0 -33 7t-8 26q0 29 26 28 q10 0 96.5 -4t102.5 -4q27 0 104.5 4t88.5 4q27 0 26 -28q0 -33 -29 -33q-117 0 -163 -113l-238 -577h250v-95h-287q-20 -59 -20 -165h307v-95h-307v-207q0 -47 38 -68.5t150 -21.5q27 0 40 -5t15 -10t2 -19q0 -27 -16 -27h-9q-7 0 -25.5 1t-49.5 2t-94 1h-148h-146 q-62 0 -94 -1t-49.5 -2t-24.5 -1h-9q-16 0 -16 27q0 14 2 19t15 10t40 5q113 0 148.5 21.5t35.5 68.5v207h-307v95h307q0 72 -5 97t-28 68h-274v95h240l-252 618q-31 72 -152 72q-16 0 -16 33z" />
<glyph unicode="&#xa6;" d="M465 0v582h133v-582h-133zM465 854v582h133v-582h-133z" />
<glyph unicode="&#xa7;" d="M111 782q0 195 184 402q14 80 55 136t98.5 85t112.5 41t115 12q72 0 139.5 -32.5t67.5 -94.5q0 -31 -22.5 -54.5t-53.5 -23.5q-59 0 -127 66.5t-117 66.5q-68 0 -105.5 -46t-37.5 -113q0 -76 55 -158t133 -159l156 -159q78 -83 133 -195t55 -230q0 -285 -207 -500 q-45 -127 -146 -185.5t-230 -58.5q-68 0 -126.5 31t-58.5 90q0 33 28 53.5t62 20.5q53 0 124 -53.5t108 -53.5q61 0 107 56.5t46 119.5q0 84 -56 178.5t-137 180.5l-162 175q-81 89 -137 194.5t-56 207.5zM217 870q0 -100 85 -219t214 -259t180 -226q66 -115 58 -248l4 -4 q104 172 104 295q0 98 -51 196.5t-126 181.5l-153 165q-78 82 -142 178t-83 188q-90 -117 -90 -248z" />
<glyph unicode="&#xa8;" horiz-adv-x="569" d="M-20 1221q0 39 30.5 69.5t69.5 30.5q41 0 71.5 -30.5t30.5 -69.5q0 -41 -30.5 -72t-71.5 -31q-39 0 -69.5 31t-30.5 72zM387 1221q0 39 31 69.5t69 30.5q41 0 72 -30.5t31 -69.5q0 -41 -31 -72t-72 -31q-39 0 -69.5 31t-30.5 72z" />
<glyph unicode="&#xa9;" horiz-adv-x="1720" d="M88 725q0 315 223.5 535.5t547 220.5t547.5 -220.5t224 -535.5q0 -313 -224 -533.5t-547.5 -220.5t-547 220.5t-223.5 533.5zM221 725q0 -266 185.5 -456.5t451.5 -190.5t452.5 190.5t186.5 456.5t-186.5 457.5t-452.5 191.5t-451.5 -190.5t-185.5 -458.5zM455 717 q0 193 118.5 310.5t309.5 117.5q125 0 299 -55v-222h-66q-10 98 -64.5 156.5t-150.5 58.5q-137 0 -208.5 -101t-71.5 -243q0 -152 76.5 -262t220.5 -110q154 0 223 153l63 -22q-41 -100 -134 -151.5t-214 -51.5q-178 0 -289.5 120t-111.5 302z" />
<glyph unicode="&#xaa;" horiz-adv-x="614" d="M45 973q0 121 311 223v94q0 27 -41 50.5t-65.5 23.5t-53 -17.5t-28.5 -31.5q0 -4 10 -26.5t10 -35.5q0 -57 -86 -57q-57 0 -57 68q0 37 35 66.5t110 72.5q61 33 115 33q84 0 134 -40t50 -79v-307q0 -66 31 -66q18 0 39 13.5t25 13.5q20 0 20 -21q0 -12 -53 -50t-76 -38 q-86 0 -121 72q-113 -72 -194 -72q-41 0 -78 35t-37 76zM188 993q0 -27 16.5 -40t37.5 -13q41 0 77.5 24.5t36.5 47.5v131q-12 0 -59 -22.5t-68 -39.5q-41 -31 -41 -88z" />
<glyph unicode="&#xab;" horiz-adv-x="1138" d="M33 471q0 6 13 14.5t45 22.5t54 27q147 82 254 157.5t144 110.5t39 35q8 0 17 -6.5t9 -14.5q0 -41 -129 -166t-219 -180q113 -74 230.5 -193.5t117.5 -158.5q0 -8 -9 -14.5t-17 -6.5q-14 0 -50 35t-139.5 115t-247.5 160q-23 12 -54.5 26.5t-44.5 22.5t-13 14zM489 471 q0 6 13.5 14.5t45.5 22.5t54 27q147 82 254 157.5t143.5 110.5t38.5 35q8 0 17.5 -6.5t9.5 -14.5q0 -41 -129 -166t-219 -180q113 -74 230.5 -193.5t117.5 -158.5q0 -8 -9 -14.5t-18 -6.5q-14 0 -50 35t-139.5 115t-246.5 160q-23 12 -54.5 26.5t-45 22.5t-13.5 14z" />
<glyph unicode="&#xac;" d="M90 553v133h883v-471h-133v338h-750z" />
<glyph unicode="&#xad;" horiz-adv-x="796" d="M94 471q0 68 25 68h557q18 0 22 -14.5t4 -61.5q0 -37 -4 -47t-26 -10h-551q-18 0 -22.5 14t-4.5 51z" />
<glyph unicode="&#xae;" horiz-adv-x="1720" d="M88 725q0 315 223.5 535.5t547 220.5t547.5 -220.5t224 -535.5q0 -313 -224 -533.5t-547.5 -220.5t-547 220.5t-223.5 533.5zM221 725q0 -266 185.5 -456.5t451.5 -190.5t452.5 190.5t186.5 456.5t-186.5 457.5t-452.5 191.5t-451.5 -190.5t-185.5 -458.5zM518 338v53h39 q39 4 49 14.5t10 53.5v571q0 43 -15 58.5t-46 17.5h-37v53h328q66 0 113 -6t101 -24.5t82.5 -61.5t28.5 -111q0 -92 -64.5 -147t-158.5 -68v-4q109 -16 187 -196q41 -98 61.5 -124t52.5 -26h21v-53h-60q-102 0 -132.5 23.5t-76.5 123.5q-8 20 -14 33q-59 141 -84.5 169 t-118.5 28h-34v-258q2 -37 15 -50.5t44 -15.5h37v-53h-328zM750 768h47q109 0 167 35t58 139q0 92 -60.5 128t-166.5 36q-25 0 -35 -17.5t-10 -33.5v-287z" />
<glyph unicode="&#xaf;" horiz-adv-x="569" d="M2 1169v107h565v-107h-565z" />
<glyph unicode="&#x2c9;" horiz-adv-x="569" d="M2 1169v107h565v-107h-565z" />
<glyph unicode="&#xb0;" horiz-adv-x="819" d="M98 1128q-2 127 89.5 217.5t222.5 90.5q129 0 220 -90.5t91 -217.5t-91 -217t-220 -90q-131 0 -221.5 90t-90.5 217zM205 1128q0 -98 58.5 -155.5t146.5 -57.5t146 58.5t58 155t-59 154.5t-147.5 58t-146.5 -58.5t-56 -154.5z" />
<glyph unicode="&#xb1;" d="M90 0v133h883v-133h-883zM90 481v133h375v269h133v-269h375v-133h-375v-268h-133v268h-375z" />
<glyph unicode="&#xb2;" horiz-adv-x="636" d="M41 573v60q358 346 358 541q0 94 -43 130.5t-98 36.5q-59 0 -108 -30l-50 -33q-20 0 -20 25q0 10 24.5 39.5t87 61.5t138.5 32q100 0 159.5 -55.5t59.5 -147.5q0 -41 -9.5 -80t-34 -83t-44 -75.5t-62.5 -82.5l-65 -74l-77 -81l-73 -77h230q45 0 78.5 34t44.5 34 q23 0 22 -17q0 -4 -4 -16.5t-19.5 -52t-31.5 -89.5h-463z" />
<glyph unicode="&#xb3;" horiz-adv-x="636" d="M72 610q0 68 53 68q25 0 60.5 -23.5t64.5 -23.5q49 0 87 47t38 123q0 92 -51.5 144t-143.5 52q-14 0 -14 23q0 18 10 22q70 20 121 72.5t51 120.5q0 47 -33.5 81t-97.5 34q-49 0 -90 -25t-43 -25q-12 0 -12 27q0 12 29.5 38t85 48.5t112.5 22.5q59 0 101 -17.5t61.5 -43 t28 -48t8.5 -41.5q0 -68 -40 -113t-118 -92q78 -20 131 -78.5t53 -136.5q0 -119 -120.5 -216t-245.5 -97q-31 0 -58.5 14t-27.5 43z" />
<glyph unicode="&#xb4;" horiz-adv-x="569" d="M129 1085l301 304q41 47 84 47q72 0 72 -76q0 -39 -60 -76l-317 -199h-80z" />
<glyph unicode="&#xb5;" d="M-8 848q0 41 22 41q4 0 43 -3t78 -3q41 0 105.5 3t72.5 3q10 0 13.5 -4t3.5 -25v-553q0 -121 46 -181t154 -60q63 0 133 32.5t70 75.5v531q0 82 -22.5 102t-104.5 20q-66 0 -65 21q0 41 14 41q2 0 53 -3t125 -3q25 0 78 3t78 3q29 0 29 -29q0 -2 -2.5 -21.5t-4.5 -50 t-5 -68.5t-5 -84t-2 -87v-385q0 -76 51 -76q16 0 49 4t39 4q12 0 13 -39q0 -10 -10.5 -14t-57.5 -12q-76 -12 -132 -25.5t-77.5 -21t-25.5 -7.5q-25 0 -25 29q0 16 6 78q-72 -53 -157 -83t-148 -30q-80 0 -125 25q-14 -29 -14 -139q0 -131 19.5 -211t37.5 -112t18 -46 q0 -45 -71 -45q-39 0 -99.5 55.5t-60.5 91.5q0 25 17.5 144t17.5 235v666q0 131 -22.5 161.5t-104.5 30.5q-45 1 -45 21z" />
<glyph unicode="&#x3bc;" d="M-8 848q0 41 22 41q4 0 43 -3t78 -3q41 0 105.5 3t72.5 3q10 0 13.5 -4t3.5 -25v-553q0 -121 46 -181t154 -60q63 0 133 32.5t70 75.5v531q0 82 -22.5 102t-104.5 20q-66 0 -65 21q0 41 14 41q2 0 53 -3t125 -3q25 0 78 3t78 3q29 0 29 -29q0 -2 -2.5 -21.5t-4.5 -50 t-5 -68.5t-5 -84t-2 -87v-385q0 -76 51 -76q16 0 49 4t39 4q12 0 13 -39q0 -10 -10.5 -14t-57.5 -12q-76 -12 -132 -25.5t-77.5 -21t-25.5 -7.5q-25 0 -25 29q0 16 6 78q-72 -53 -157 -83t-148 -30q-80 0 -125 25q-14 -29 -14 -139q0 -131 19.5 -211t37.5 -112t18 -46 q0 -45 -71 -45q-39 0 -99.5 55.5t-60.5 91.5q0 25 17.5 144t17.5 235v666q0 131 -22.5 161.5t-104.5 30.5q-45 1 -45 21z" />
<glyph unicode="&#xb6;" horiz-adv-x="1241" d="M106 1063q0 193 105.5 295t284.5 102h639v-61h-64q-43 0 -55 -31t-12 -125v-1427q0 -94 12 -125t55 -31h64v-61h-713v61h84q43 0 55 30.5t12 125.5v848h-77q-178 0 -284 102t-106 297zM377 993q0 -139 42 -204.5t154 -63.5v674q-115 2 -155.5 -59.5t-40.5 -209.5v-137z M707 -340h163v1739h-163v-1739z" />
<glyph unicode="&#xb7;" horiz-adv-x="530" d="M139 440.5q0 53.5 35 89t90 35.5t90 -35.5t35 -89t-35 -89.5t-90 -36t-90 36t-35 89.5z" />
<glyph unicode="&#x2219;" horiz-adv-x="530" d="M139 440.5q0 53.5 35 89t90 35.5t90 -35.5t35 -89t-35 -89.5t-90 -36t-90 36t-35 89.5z" />
<glyph unicode="&#xb8;" horiz-adv-x="569" d="M80 -408l29 64q82 -25 131 -25t83.5 20.5t34.5 65.5q0 37 -23.5 58.5t-62.5 21.5q-41 0 -86 -10l-14 10l86 203h72l-54 -133q27 6 60 6q72 0 122 -36t50 -105q0 -172 -258 -172q-80 -1 -170 32z" />
<glyph unicode="&#xb9;" horiz-adv-x="636" d="M106 1315q0 25 21 26q156 27 215 86q8 8 31 9q33 0 33 -18.5t-6.5 -89.5t-6.5 -116v-499q0 -25 2 -37t12.5 -26.5t35 -20.5t65.5 -6q12 0 12 -37q0 -16 -12 -17h-21q-20 2 -67 3t-115 1q-72 0 -121 -2l-51 -2q-16 0 -16 27t14 27q80 0 96.5 19.5t16.5 102.5v478 q0 47 -18.5 56t-98.5 9q-21 0 -21 27z" />
<glyph unicode="&#xba;" horiz-adv-x="696" d="M33 1149q0 123 90 205t225 82t225.5 -81t90.5 -206q0 -131 -87.5 -209t-228.5 -78q-139 0 -227 81t-88 206zM199 1148.5q0 -233.5 149.5 -233.5t149.5 233.5t-149.5 233.5t-149.5 -233.5z" />
<glyph unicode="&#xbb;" horiz-adv-x="1138" d="M74 125q0 41 129 166t219 180q-113 74 -230.5 193.5t-117.5 158.5q0 8 9 14.5t17 6.5q14 0 50 -35t139.5 -115t247.5 -159q23 -12 54.5 -26.5t44.5 -23t13 -14.5t-13 -14t-45 -22.5t-54 -26.5q-147 -82 -254 -158t-144 -111t-39 -35q-8 0 -17 6.5t-9 14.5zM530 125 q0 41 129 166t220 180q-113 74 -231 193.5t-118 158.5q0 8 9.5 14.5t17.5 6.5q14 0 50 -35t139.5 -115t246.5 -159q23 -12 54.5 -26.5t45 -23t13.5 -14.5t-13.5 -14t-45 -22.5t-54.5 -26.5q-147 -82 -253.5 -158t-143.5 -111t-39 -35q-8 0 -17.5 6.5t-9.5 14.5z" />
<glyph unicode="&#xbc;" horiz-adv-x="1593" d="M106 1315q0 25 21 26q156 27 215 86q8 8 31 9q33 0 33 -18.5t-6.5 -89.5t-6.5 -116v-499q0 -25 2 -37t12.5 -26.5t35 -20.5t65.5 -6q12 0 12 -37q0 -16 -12 -17h-21q-20 2 -67 3t-115 1q-72 0 -121 -2l-51 -2q-16 0 -16 27t14 27q80 0 96.5 19.5t16.5 102.5v478 q0 47 -18.5 56t-98.5 9q-21 0 -21 27zM268 0l881 1413h113l-881 -1413h-113zM840 309q0 43 127 210t286 319q4 2 14.5 13t14.5 14t13.5 8.5t17.5 7.5t18 2q53 0 53 -60q0 -16 -3 -44.5t-3 -51.5v-365h146q18 0 18 -16v-78q0 -12 -24 -12h-140v-270q0 -23 -18 -23h-96 q-18 0 -19 23v270h-393q-8 2 -10 8t-2 45zM958 377q0 -14 25 -15h262v375q-68 -53 -177.5 -190t-109.5 -170z" />
<glyph unicode="&#xbd;" horiz-adv-x="1593" d="M106 1315q0 25 21 26q156 27 215 86q8 8 31 9q33 0 33 -18.5t-6.5 -89.5t-6.5 -116v-499q0 -25 2 -37t12.5 -26.5t35 -20.5t65.5 -6q12 0 12 -37q0 -16 -12 -17h-21q-20 2 -67 3t-115 1q-72 0 -121 -2l-51 -2q-16 0 -16 27t14 27q80 0 96.5 19.5t16.5 102.5v478 q0 47 -18.5 56t-98.5 9q-21 0 -21 27zM299 0l881 1413h112l-880 -1413h-113zM993 0v59q358 346 359 541q0 94 -43 131t-99 37q-59 0 -108 -31l-49 -32q-20 0 -21 24q0 10 24.5 40t87 61.5t138.5 31.5q100 0 159.5 -55t59.5 -148q0 -41 -9 -79.5t-33.5 -82.5l-44 -76 t-62.5 -82l-66 -75l-77 -81q-54 -56 -72 -77h229q45 0 79 34t44 34q23 0 22 -16q0 -4 -4 -16.5t-19 -52.5l-32 -89h-463z" />
<glyph unicode="&#xbe;" horiz-adv-x="1593" d="M72 610q0 68 53 68q25 0 60.5 -23.5t64.5 -23.5q49 0 87 47t38 123q0 92 -51.5 144t-143.5 52q-14 0 -14 23q0 18 10 22q70 20 121 72.5t51 120.5q0 47 -33.5 81t-97.5 34q-49 0 -90 -25t-43 -25q-12 0 -12 27q0 12 29.5 38t85 48.5t112.5 22.5q59 0 101 -17.5t61.5 -43 t28 -48t8.5 -41.5q0 -68 -40 -113t-118 -92q78 -20 131 -78.5t53 -136.5q0 -119 -120.5 -216t-245.5 -97q-31 0 -58.5 14t-27.5 43zM227 0l881 1413h113l-881 -1413h-113zM840 309q0 43 127 210t286 319q4 2 14.5 13t14.5 14t13.5 8.5t17.5 7.5t18 2q53 0 53 -60 q0 -16 -3 -44.5t-3 -51.5v-365h146q18 0 18 -16v-78q0 -12 -24 -12h-140v-270q0 -23 -18 -23h-96q-18 0 -19 23v270h-393q-8 2 -10 8t-2 45zM958 377q0 -14 25 -15h262v375q-68 -53 -177.5 -190t-109.5 -170z" />
<glyph unicode="&#xbf;" horiz-adv-x="872" d="M184 37q0 55 11.5 102t27 75t33.5 49.5t29.5 29.5t17.5 10q39 8 127 16.5t102 16.5q39 20 39 184q0 16 29 16.5t29 -20.5v-334q0 -18 -9.5 -22t-44.5 -4h-163q-104 0 -137 -39t-33 -125q0 -53 10 -98.5t27.5 -78t31 -51t29.5 -36.5l18 -19q12 -16 135 -25.5t177 -9.5 q35 0 46 -41t11 -170q0 -12 -7 -16t-28 -4q-10 0 -22.5 31.5t-26.5 31.5q-164 0 -232.5 17.5t-119.5 97.5q-43 68 -69.5 167t-32 155.5t-5.5 93.5zM469 819q0 51 36 83t79 32t78.5 -32t35.5 -83t-35.5 -82.5t-78.5 -31.5t-79 31.5t-36 82.5z" />
<glyph unicode="&#xc0;" horiz-adv-x="1366" d="M-25 31q0 27 76 26q70 0 105 105q246 711 481 1300q6 18 39 19q25 0 35 -25l96 -264l219 -577q121 -314 184 -459q25 -55 60 -77t96 -22t61 -22q0 -39 -22 -39q-2 0 -23.5 1t-87 2t-174.5 1h-136q-58 0 -87 -1t-47.5 -2t-25.5 -1h-9q-10 0 -10 37q0 25 86 24 q61 0 84.5 9.5t23.5 35.5q0 23 -28.5 103t-75.5 196l-51 127h-422q-47 0 -59.5 -6t-24.5 -37q-113 -295 -113 -354q0 -20 3 -32.5t29 -27t75 -14.5q59 0 88 -3t36 -8t7 -17q0 -33 -25 -33h-22q-23 2 -89.5 3t-174.5 1q-55 0 -91 -1t-51.5 -2t-19.5 -1q-15 0 -15 35z M360 1933q0 76 72 76q43 0 84 -47l301 -303h-80l-317 199q-60 36 -60 75zM387 618q0 -16 13.5 -19t64.5 -3h352l-217 600h-4q-10 0 -109.5 -277.5t-99.5 -300.5z" />
<glyph unicode="&#xc1;" horiz-adv-x="1366" d="M-25 31q0 27 76 26q70 0 105 105q246 711 481 1300q6 18 39 19q25 0 35 -25l96 -264l219 -577q121 -314 184 -459q25 -55 60 -77t96 -22t61 -22q0 -39 -22 -39q-2 0 -23.5 1t-87 2t-174.5 1h-136q-58 0 -87 -1t-47.5 -2t-25.5 -1h-9q-10 0 -10 37q0 25 86 24 q61 0 84.5 9.5t23.5 35.5q0 23 -28.5 103t-75.5 196l-51 127h-422q-47 0 -59.5 -6t-24.5 -37q-113 -295 -113 -354q0 -20 3 -32.5t29 -27t75 -14.5q59 0 88 -3t36 -8t7 -17q0 -33 -25 -33h-22q-23 2 -89.5 3t-174.5 1q-55 0 -91 -1t-51.5 -2t-19.5 -1q-15 0 -15 35zM387 618 q0 -16 13.5 -19t64.5 -3h352l-217 600h-4q-10 0 -109.5 -277.5t-99.5 -300.5zM590 1658l301 304q41 47 84 47q72 0 72 -76q0 -39 -60 -76l-317 -199h-80z" />
<glyph unicode="&#xc2;" horiz-adv-x="1366" d="M-25 31q0 27 76 26q70 0 105 105q246 711 481 1300q6 18 39 19q25 0 35 -25l96 -264l219 -577q121 -314 184 -459q25 -55 60 -77t96 -22t61 -22q0 -39 -22 -39q-2 0 -23.5 1t-87 2t-174.5 1h-136q-58 0 -87 -1t-47.5 -2t-25.5 -1h-9q-10 0 -10 37q0 25 86 24 q61 0 84.5 9.5t23.5 35.5q0 23 -28.5 103t-75.5 196l-51 127h-422q-47 0 -59.5 -6t-24.5 -37q-113 -295 -113 -354q0 -20 3 -32.5t29 -27t75 -14.5q59 0 88 -3t36 -8t7 -17q0 -33 -25 -33h-22q-23 2 -89.5 3t-174.5 1q-55 0 -91 -1t-51.5 -2t-19.5 -1q-15 0 -15 35z M336 1661l254 340h127l256 -340h-72l-248 211l-250 -211h-67zM387 618q0 -16 13.5 -19t64.5 -3h352l-217 600h-4q-10 0 -109.5 -277.5t-99.5 -300.5z" />
<glyph unicode="&#xc3;" horiz-adv-x="1366" d="M-25 31q0 27 76 26q70 0 105 105q246 711 481 1300q6 18 39 19q25 0 35 -25l96 -264l219 -577q121 -314 184 -459q25 -55 60 -77t96 -22t61 -22q0 -39 -22 -39q-2 0 -23.5 1t-87 2t-174.5 1h-136q-58 0 -87 -1t-47.5 -2t-25.5 -1h-9q-10 0 -10 37q0 25 86 24 q61 0 84.5 9.5t23.5 35.5q0 23 -28.5 103t-75.5 196l-51 127h-422q-47 0 -59.5 -6t-24.5 -37q-113 -295 -113 -354q0 -20 3 -32.5t29 -27t75 -14.5q59 0 88 -3t36 -8t7 -17q0 -33 -25 -33h-22q-23 2 -89.5 3t-174.5 1q-55 0 -91 -1t-51.5 -2t-19.5 -1q-15 0 -15 35z M348 1677q18 90 66.5 155.5t130.5 65.5q47 0 162 -47q115 -49 155.5 -49t66 28t29.5 71h62q-18 -90 -66.5 -156t-130.5 -66q-47 0 -161 47q-115 49 -156 49.5t-66.5 -27.5t-29.5 -71h-62zM387 618q0 -16 13.5 -19t64.5 -3h352l-217 600h-4q-10 0 -109.5 -277.5t-99.5 -300.5 z" />
<glyph unicode="&#xc4;" horiz-adv-x="1366" d="M-25 31q0 27 76 26q70 0 105 105q246 711 481 1300q6 18 39 19q25 0 35 -25l96 -264l219 -577q121 -314 184 -459q25 -55 60 -77t96 -22t61 -22q0 -39 -22 -39q-2 0 -23.5 1t-87 2t-174.5 1h-136q-58 0 -87 -1t-47.5 -2t-25.5 -1h-9q-10 0 -10 37q0 25 86 24 q61 0 84.5 9.5t23.5 35.5q0 23 -28.5 103t-75.5 196l-51 127h-422q-47 0 -59.5 -6t-24.5 -37q-113 -295 -113 -354q0 -20 3 -32.5t29 -27t75 -14.5q59 0 88 -3t36 -8t7 -17q0 -33 -25 -33h-22q-23 2 -89.5 3t-174.5 1q-55 0 -91 -1t-51.5 -2t-19.5 -1q-15 0 -15 35zM387 618 q0 -16 13.5 -19t64.5 -3h352l-217 600h-4q-10 0 -109.5 -277.5t-99.5 -300.5zM379 1794q0 39 30.5 69.5t69.5 30.5q41 0 71.5 -30.5t30.5 -69.5q0 -41 -30.5 -72t-71.5 -31q-39 0 -69.5 31t-30.5 72zM786 1794q0 39 31 69.5t69 30.5q41 0 72 -30.5t31 -69.5q0 -41 -31 -72 t-72 -31q-39 0 -69.5 31t-30.5 72z" />
<glyph unicode="&#xc5;" horiz-adv-x="1366" d="M-25 31q0 27 76 26q70 0 105 105q246 711 481 1300q6 18 39 19q25 0 35 -25l96 -264l219 -577q121 -314 184 -459q25 -55 60 -77t96 -22t61 -22q0 -39 -22 -39q-2 0 -23.5 1t-87 2t-174.5 1h-136q-58 0 -87 -1t-47.5 -2t-25.5 -1h-9q-10 0 -10 37q0 25 86 24 q61 0 84.5 9.5t23.5 35.5q0 23 -28.5 103t-75.5 196l-51 127h-422q-47 0 -59.5 -6t-24.5 -37q-113 -295 -113 -354q0 -20 3 -32.5t29 -27t75 -14.5q59 0 88 -3t36 -8t7 -17q0 -33 -25 -33h-22q-23 2 -89.5 3t-174.5 1q-55 0 -91 -1t-51.5 -2t-19.5 -1q-15 0 -15 35zM387 618 q0 -16 13.5 -19t64.5 -3h352l-217 600h-4q-10 0 -109.5 -277.5t-99.5 -300.5zM462 1767q0 82 61.5 141.5t147.5 59.5q88 0 149.5 -58.5t61.5 -142.5q0 -86 -60.5 -144.5t-150.5 -58.5q-88 0 -148.5 59.5t-60.5 143.5zM536 1767q0 -57 41 -99t94.5 -42t95.5 42t42 99 q0 55 -41 97t-96.5 42t-95.5 -41t-40 -98z" />
<glyph unicode="&#xc6;" horiz-adv-x="2048" d="M-25 23q0 20 11.5 27t46.5 7q49 0 70.5 5.5t50 32t63.5 87.5l262 459l195 334l121 207q53 92 71.5 128t18.5 44q0 16 -7.5 24t-47 14.5t-119.5 6.5q-18 0 -19 24q0 37 27 37q2 0 37 -2t132 -4t249 -2q135 0 373.5 4t283.5 4q74 0 78 -16q23 -82 46 -153l34 -101 q10 -31 10 -35q0 -14 -31 -14q-14 0 -30.5 18.5t-69.5 73.5t-129 119q-55 47 -158 47q-238 0 -278.5 -18.5t-40.5 -131.5v-491h106q221 0 242 112q12 74 20.5 107t12.5 39t12 6q39 0 39 -14v-308q0 -70 5 -148.5t5 -95t-26.5 -16.5t-30.5 23q-23 162 -68 197.5t-199 35.5 h-118v-528q0 -59 21.5 -83t78.5 -24h391q27 0 66 34t66.5 70l64.5 88l43 60q12 12 26 13q33 0 33 -15q0 -10 -57 -160.5t-72 -150.5h-749h-147q-62 0 -94 -1t-49.5 -2t-24.5 -1h-9q-16 0 -16 27q0 14 2 19t11 10t30 5q111 0 142.5 20.5t33.5 69.5q6 154 6 324v225h-406 q-33 0 -75 -69q-268 -442 -269 -510q0 -23 13.5 -37t43 -19.5t50 -6.5t59.5 -1q16 0 17 -26q0 -31 -23 -31q-6 0 -24.5 1t-67.5 2t-127 1q-74 0 -122 -1t-68.5 -2t-26.5 -1q-21 0 -21 27zM625 764q0 -6 28 -6h369v641h-8q-31 -31 -355 -561q-34 -58 -34 -74z" />
<glyph unicode="&#xc7;" horiz-adv-x="1554" d="M94 684q0 356 225.5 575.5t532.5 219.5q154 0 256 -19.5t147 -39t60 -19.5q20 0 42.5 17.5t37 17.5t14.5 -25q0 -55 10.5 -133t19.5 -134.5t9 -60.5q0 -27 -39 -26q-16 0 -23 16q-70 178 -180 265t-301 87q-98 0 -196.5 -47t-182.5 -134t-136 -231.5t-52 -320.5 q0 -162 54 -294t143.5 -210.5t194 -120.5t212.5 -42q133 0 264 81.5t211 258.5q6 16 33 16q23 0 23 -25q0 -10 -14.5 -127.5t-14.5 -142.5q0 -29 -29 -37q-248 -78 -563 -78q-195 0 -348.5 72t-238.5 183.5t-128 229t-43 228.5zM574 -408l29 64q82 -25 131 -25t83.5 20.5 t34.5 65.5q0 37 -23.5 58.5t-62.5 21.5q-41 0 -86 -10l-14 10l86 203h72l-54 -133q27 6 60 6q72 0 122 -36t50 -105q0 -172 -258 -172q-80 -1 -170 32z" />
<glyph unicode="&#xc8;" horiz-adv-x="1402" d="M53 1434q0 27 19 26q4 0 58 -2t131 -4t134 -2q131 0 378 4t310 4q74 0 78 -16q23 -82 46 -153l34 -101q10 -31 10 -35q0 -14 -30 -14q-14 0 -30.5 18.5t-70 73.5t-129.5 119q-55 47 -141 47q-74 0 -307 -13q-35 -2 -47.5 -35.5t-12.5 -121.5v-471h138q221 0 241 112 q12 74 20.5 107t12.5 39t12 6q39 0 39 -14v-308q0 -70 5 -148.5t5 -95t-26.5 -16.5t-30.5 23q-23 162 -68 197.5t-198 35.5h-150v-528q0 -59 21.5 -83t79.5 -24h487q27 0 66 34t66.5 70l64.5 88l43 60q12 12 26 13q33 0 33 -15q0 -10 -57.5 -160.5t-71.5 -150.5h-846h-146 q-62 0 -94 -1t-49.5 -2t-24.5 -1h-9q-16 0 -17 27q0 14 2 19t11.5 10t29.5 5q111 0 142.5 20.5t33.5 69.5q6 154 7 324v502q0 100 -5 289q-2 88 -38.5 112.5t-161.5 24.5q-23 0 -23 35zM379 1933q0 76 72 76q43 0 84 -47l301 -303h-80l-318 199q-59 36 -59 75z" />
<glyph unicode="&#xc9;" horiz-adv-x="1402" d="M53 1434q0 27 19 26q4 0 58 -2t131 -4t134 -2q131 0 378 4t310 4q74 0 78 -16q23 -82 46 -153l34 -101q10 -31 10 -35q0 -14 -30 -14q-14 0 -30.5 18.5t-70 73.5t-129.5 119q-55 47 -141 47q-74 0 -307 -13q-35 -2 -47.5 -35.5t-12.5 -121.5v-471h138q221 0 241 112 q12 74 20.5 107t12.5 39t12 6q39 0 39 -14v-308q0 -70 5 -148.5t5 -95t-26.5 -16.5t-30.5 23q-23 162 -68 197.5t-198 35.5h-150v-528q0 -59 21.5 -83t79.5 -24h487q27 0 66 34t66.5 70l64.5 88l43 60q12 12 26 13q33 0 33 -15q0 -10 -57.5 -160.5t-71.5 -150.5h-846h-146 q-62 0 -94 -1t-49.5 -2t-24.5 -1h-9q-16 0 -17 27q0 14 2 19t11.5 10t29.5 5q111 0 142.5 20.5t33.5 69.5q6 154 7 324v502q0 100 -5 289q-2 88 -38.5 112.5t-161.5 24.5q-23 0 -23 35zM547 1658l301 304q41 47 84 47q72 0 72 -76q0 -39 -60 -76l-317 -199h-80z" />
<glyph unicode="&#xca;" horiz-adv-x="1402" d="M53 1434q0 27 19 26q4 0 58 -2t131 -4t134 -2q131 0 378 4t310 4q74 0 78 -16q23 -82 46 -153l34 -101q10 -31 10 -35q0 -14 -30 -14q-14 0 -30.5 18.5t-70 73.5t-129.5 119q-55 47 -141 47q-74 0 -307 -13q-35 -2 -47.5 -35.5t-12.5 -121.5v-471h138q221 0 241 112 q12 74 20.5 107t12.5 39t12 6q39 0 39 -14v-308q0 -70 5 -148.5t5 -95t-26.5 -16.5t-30.5 23q-23 162 -68 197.5t-198 35.5h-150v-528q0 -59 21.5 -83t79.5 -24h487q27 0 66 34t66.5 70l64.5 88l43 60q12 12 26 13q33 0 33 -15q0 -10 -57.5 -160.5t-71.5 -150.5h-846h-146 q-62 0 -94 -1t-49.5 -2t-24.5 -1h-9q-16 0 -17 27q0 14 2 19t11.5 10t29.5 5q111 0 142.5 20.5t33.5 69.5q6 154 7 324v502q0 100 -5 289q-2 88 -38.5 112.5t-161.5 24.5q-23 0 -23 35zM385 1661l254 340h127l256 -340h-72l-248 211l-249 -211h-68z" />
<glyph unicode="&#xcb;" horiz-adv-x="1402" d="M53 1434q0 27 19 26q4 0 58 -2t131 -4t134 -2q131 0 378 4t310 4q74 0 78 -16q23 -82 46 -153l34 -101q10 -31 10 -35q0 -14 -30 -14q-14 0 -30.5 18.5t-70 73.5t-129.5 119q-55 47 -141 47q-74 0 -307 -13q-35 -2 -47.5 -35.5t-12.5 -121.5v-471h138q221 0 241 112 q12 74 20.5 107t12.5 39t12 6q39 0 39 -14v-308q0 -70 5 -148.5t5 -95t-26.5 -16.5t-30.5 23q-23 162 -68 197.5t-198 35.5h-150v-528q0 -59 21.5 -83t79.5 -24h487q27 0 66 34t66.5 70l64.5 88l43 60q12 12 26 13q33 0 33 -15q0 -10 -57.5 -160.5t-71.5 -150.5h-846h-146 q-62 0 -94 -1t-49.5 -2t-24.5 -1h-9q-16 0 -17 27q0 14 2 19t11.5 10t29.5 5q111 0 142.5 20.5t33.5 69.5q6 154 7 324v502q0 100 -5 289q-2 88 -38.5 112.5t-161.5 24.5q-23 0 -23 35zM398 1794q0 39 30.5 69.5t69.5 30.5q41 0 71.5 -30.5t30.5 -69.5q0 -41 -30.5 -72 t-71.5 -31q-39 0 -69.5 31t-30.5 72zM805 1794q0 39 31 69.5t69 30.5q41 0 72 -30.5t31 -69.5q0 -41 -31 -72t-72 -31q-39 0 -69.5 31t-30.5 72z" />
<glyph unicode="&#xcc;" horiz-adv-x="757" d="M35 1434q0 27 18 26q4 0 58.5 -2t131 -4t134 -2t135.5 2t132 4t58 2q18 0 19 -26q0 -35 -23 -35q-135 0 -174 -23.5t-41 -113.5q-4 -188 -4 -289v-502q0 -170 6 -324q2 -33 11.5 -49t48.5 -28.5t117 -12.5q27 0 40 -5t15 -10t2 -19q0 -27 -17 -27h-9q-7 0 -25.5 1t-49 2 t-94.5 1h-147h-147q-62 0 -94 -1t-49 -2t-25 -1h-9q-16 0 -16 27q0 14 2 19t15.5 10t39.5 5q111 0 142.5 20.5t33.5 69.5q6 154 6 324v502q0 100 -4 289q-2 90 -40.5 113.5t-174.5 23.5q-22 0 -22 35zM55 1933q0 76 72 76q43 0 84 -47l301 -303h-80l-317 199q-60 36 -60 75z " />
<glyph unicode="&#xcd;" horiz-adv-x="757" d="M35 1434q0 27 18 26q4 0 58.5 -2t131 -4t134 -2t135.5 2t132 4t58 2q18 0 19 -26q0 -35 -23 -35q-135 0 -174 -23.5t-41 -113.5q-4 -188 -4 -289v-502q0 -170 6 -324q2 -33 11.5 -49t48.5 -28.5t117 -12.5q27 0 40 -5t15 -10t2 -19q0 -27 -17 -27h-9q-7 0 -25.5 1t-49 2 t-94.5 1h-147h-147q-62 0 -94 -1t-49 -2t-25 -1h-9q-16 0 -16 27q0 14 2 19t15.5 10t39.5 5q111 0 142.5 20.5t33.5 69.5q6 154 6 324v502q0 100 -4 289q-2 90 -40.5 113.5t-174.5 23.5q-22 0 -22 35zM264 1658l301 304q41 47 84 47q72 0 72 -76q0 -39 -60 -76l-317 -199 h-80z" />
<glyph unicode="&#xce;" horiz-adv-x="757" d="M35 1434q0 27 18 26q4 0 58.5 -2t131 -4t134 -2t135.5 2t132 4t58 2q18 0 19 -26q0 -35 -23 -35q-135 0 -174 -23.5t-41 -113.5q-4 -188 -4 -289v-502q0 -170 6 -324q2 -33 11.5 -49t48.5 -28.5t117 -12.5q27 0 40 -5t15 -10t2 -19q0 -27 -17 -27h-9q-7 0 -25.5 1t-49 2 t-94.5 1h-147h-147q-62 0 -94 -1t-49 -2t-25 -1h-9q-16 0 -16 27q0 14 2 19t15.5 10t39.5 5q111 0 142.5 20.5t33.5 69.5q6 154 6 324v502q0 100 -4 289q-2 90 -40.5 113.5t-174.5 23.5q-22 0 -22 35zM41 1661l254 340h127l256 -340h-72l-248 211l-249 -211h-68z" />
<glyph unicode="&#xcf;" horiz-adv-x="757" d="M35 1434q0 27 18 26q4 0 58.5 -2t131 -4t134 -2t135.5 2t132 4t58 2q18 0 19 -26q0 -35 -23 -35q-135 0 -174 -23.5t-41 -113.5q-4 -188 -4 -289v-502q0 -170 6 -324q2 -33 11.5 -49t48.5 -28.5t117 -12.5q27 0 40 -5t15 -10t2 -19q0 -27 -17 -27h-9q-7 0 -25.5 1t-49 2 t-94.5 1h-147h-147q-62 0 -94 -1t-49 -2t-25 -1h-9q-16 0 -16 27q0 14 2 19t15.5 10t39.5 5q111 0 142.5 20.5t33.5 69.5q6 154 6 324v502q0 100 -4 289q-2 90 -40.5 113.5t-174.5 23.5q-22 0 -22 35zM74 1794q0 39 30.5 69.5t69.5 30.5q41 0 71.5 -30.5t30.5 -69.5 q0 -41 -30.5 -72t-71.5 -31q-39 0 -69.5 31t-30.5 72zM481 1794q0 39 31 69.5t69 30.5q41 0 72 -30.5t31 -69.5q0 -41 -31 -72t-72 -31q-39 0 -69.5 31t-30.5 72z" />
<glyph unicode="&#xd0;" horiz-adv-x="1705" d="M31 733v62h250v178q0 100 -5 289q-2 88 -36.5 112.5t-147.5 24.5q-23 0 -22 35q0 27 18 26q4 0 58.5 -2t131 -4t134.5 -2q59 0 147 4t113 4q246 0 380 -26.5t259 -110.5q135 -90 203.5 -247.5t68.5 -313.5q0 -342 -221 -551q-98 -90 -249.5 -152.5t-326.5 -62.5 q-2 0 -115.5 2t-258.5 2h-147q-62 0 -94 -1t-49.5 -2t-24.5 -1h-9q-16 0 -16 27q0 14 2 19t15 10t40 5q141 0 145 90q6 154 7 324v262h-250zM483 154q0 -53 46 -75t147 -22q287 0 479.5 186.5t183.5 504.5q-6 219 -85.5 358t-182.5 203q-139 90 -385 90q-82 0 -118 -2 t-58.5 -22.5t-24.5 -43t-2 -86.5v-450h336v-62h-336v-579z" />
<glyph unicode="&#xd1;" horiz-adv-x="1781" d="M10 1432q0 29 23 28q4 0 88 -4t106 -4q14 0 90 4t93 4q4 0 16 -12q10 -10 237 -270l402 -453l383 -406q20 381 20 754q0 117 -13 183.5t-50 97t-76 38t-117 7.5q-27 0 -26 28q0 33 22 33q12 0 139.5 -4t157.5 -4q27 0 147 4t122 4q16 0 16 -26q0 -35 -18 -35 q-127 0 -167 -30t-61 -140q-8 -49 -22.5 -555t-14.5 -674q0 -18 -7 -23.5t-23 -5.5q-8 0 -77 76l-366 404l-694 755q0 -59 -2 -166.5t-3 -195.5t-1 -166q0 -133 2 -253t4 -188.5t2 -78.5q0 -100 160 -101q51 0 73.5 -4t26.5 -9t4 -17q0 -31 -20 -31h-21q-18 2 -83.5 3 t-176.5 1h-99q-44 0 -69.5 -1t-45 -1t-28 -1t-14.5 -1h-8q-20 0 -21 39q0 23 93 22q129 0 139 90q25 467 24 1020q0 78 -4 88q-12 31 -74.5 87.5t-93.5 56.5h-75q-19 0 -19 33zM555 1677q18 90 66 155.5t130 65.5q47 0 162 -47q115 -49 156 -49t66.5 27.5t29.5 70.5h62 q-18 -90 -66.5 -155.5t-130.5 -65.5q-47 0 -162 47q-115 49 -155.5 49t-66.5 -27.5t-30 -70.5h-61z" />
<glyph unicode="&#xd2;" horiz-adv-x="1705" d="M94 684q0 356 225.5 575.5t532.5 219.5q340 0 550 -203t210 -582q0 -90 -25.5 -185t-84 -192.5t-143.5 -173t-216 -124t-291 -48.5q-195 0 -348.5 72t-238.5 183.5t-128 229t-43 228.5zM338 723q0 -113 28.5 -229.5t86 -224t162 -176t237.5 -68.5q516 0 516 700 q0 92 -16.5 185.5t-56.5 187.5t-97 165.5t-147 116.5t-199 45q-135 0 -235.5 -58t-151.5 -138t-82 -187.5t-38 -179t-7 -139.5zM530 1933q0 76 72 76q43 0 84 -47l301 -303h-80l-317 199q-60 36 -60 75z" />
<glyph unicode="&#xd3;" horiz-adv-x="1705" d="M94 684q0 356 225.5 575.5t532.5 219.5q340 0 550 -203t210 -582q0 -90 -25.5 -185t-84 -192.5t-143.5 -173t-216 -124t-291 -48.5q-195 0 -348.5 72t-238.5 183.5t-128 229t-43 228.5zM338 723q0 -113 28.5 -229.5t86 -224t162 -176t237.5 -68.5q516 0 516 700 q0 92 -16.5 185.5t-56.5 187.5t-97 165.5t-147 116.5t-199 45q-135 0 -235.5 -58t-151.5 -138t-82 -187.5t-38 -179t-7 -139.5zM698 1658l301 304q41 47 84 47q72 0 72 -76q0 -39 -60 -76l-317 -199h-80z" />
<glyph unicode="&#xd4;" horiz-adv-x="1705" d="M94 684q0 356 225.5 575.5t532.5 219.5q340 0 550 -203t210 -582q0 -90 -25.5 -185t-84 -192.5t-143.5 -173t-216 -124t-291 -48.5q-195 0 -348.5 72t-238.5 183.5t-128 229t-43 228.5zM338 723q0 -113 28.5 -229.5t86 -224t162 -176t237.5 -68.5q516 0 516 700 q0 92 -16.5 185.5t-56.5 187.5t-97 165.5t-147 116.5t-199 45q-135 0 -235.5 -58t-151.5 -138t-82 -187.5t-38 -179t-7 -139.5zM537 1661l254 340h127l256 -340h-72l-248 211l-250 -211h-67z" />
<glyph unicode="&#xd5;" horiz-adv-x="1705" d="M94 684q0 356 225.5 575.5t532.5 219.5q340 0 550 -203t210 -582q0 -90 -25.5 -185t-84 -192.5t-143.5 -173t-216 -124t-291 -48.5q-195 0 -348.5 72t-238.5 183.5t-128 229t-43 228.5zM338 723q0 -113 28.5 -229.5t86 -224t162 -176t237.5 -68.5q516 0 516 700 q0 92 -16.5 185.5t-56.5 187.5t-97 165.5t-147 116.5t-199 45q-135 0 -235.5 -58t-151.5 -138t-82 -187.5t-38 -179t-7 -139.5zM518 1677q18 90 66 155.5t130 65.5q47 0 162 -47q115 -49 156 -49t66.5 27.5t29.5 70.5h62q-18 -90 -66.5 -155.5t-130.5 -65.5q-47 0 -162 47 q-115 49 -155.5 49t-66.5 -27.5t-30 -70.5h-61z" />
<glyph unicode="&#xd6;" horiz-adv-x="1705" d="M94 684q0 356 225.5 575.5t532.5 219.5q340 0 550 -203t210 -582q0 -90 -25.5 -185t-84 -192.5t-143.5 -173t-216 -124t-291 -48.5q-195 0 -348.5 72t-238.5 183.5t-128 229t-43 228.5zM338 723q0 -113 28.5 -229.5t86 -224t162 -176t237.5 -68.5q516 0 516 700 q0 92 -16.5 185.5t-56.5 187.5t-97 165.5t-147 116.5t-199 45q-135 0 -235.5 -58t-151.5 -138t-82 -187.5t-38 -179t-7 -139.5zM549 1794q0 39 30.5 69.5t69.5 30.5q41 0 71.5 -30.5t30.5 -69.5q0 -41 -30.5 -72t-71.5 -31q-39 0 -69.5 31t-30.5 72zM956 1794q0 39 31 69.5 t69 30.5q41 0 72 -30.5t31 -69.5q0 -41 -31 -72t-72 -31q-39 0 -69.5 31t-30.5 72z" />
<glyph unicode="&#xd7;" d="M90 92l350 350l-350 353l92 88l350 -348l349 348l90 -86l-348 -355l350 -350l-92 -92l-351 354l-350 -354z" />
<glyph unicode="&#xd8;" horiz-adv-x="1705" d="M80 18l201 193q-92 104 -139.5 231t-47.5 242q0 356 225.5 575.5t532.5 219.5q324 0 524 -179l183 187l65 -55l-194 -187q182 -205 182 -551q0 -90 -25.5 -185t-84 -192.5t-143.5 -173t-216 -124t-291 -48.5q-317 0 -518 185l-193 -193zM338 723q0 -203 80 -381l837 836 q-141 248 -403 247q-135 0 -235.5 -58t-151.5 -138t-82 -187.5t-38 -179t-7 -139.5zM453 274q139 -250 399 -249q516 0 516 700q0 215 -80 383z" />
<glyph unicode="&#xd9;" horiz-adv-x="1705" d="M39 1434q0 27 18 26q4 0 58.5 -2t131.5 -4t134 -2t135 2t132 4t59 2q18 0 18 -26q0 -35 -23 -35q-135 0 -174 -23.5t-41 -113.5q-4 -188 -4 -289v-371q0 -227 108.5 -370.5t350.5 -143.5q446 0 447 621v405q0 55 -2.5 94t-11.5 70t-16 51.5t-27.5 33.5t-34 20.5 t-48.5 11.5t-57 4h-74q-16 0 -16 30.5t16 30.5q4 0 112.5 -4t188.5 -4q37 0 146.5 4t120.5 4q16 0 22 -6t6 -29q0 -27 -18 -26q-61 0 -87 -1t-61 -8.5t-46 -20.5t-24.5 -42t-16.5 -67.5t-3 -102.5v-485q0 -160 -39 -285t-99 -201.5t-141 -126t-157 -69t-154 -19.5 q-131 0 -236.5 34t-169 88t-106.5 126t-59 142.5t-16 142.5v469q0 100 -5 289q-2 90 -40.5 113.5t-174.5 23.5q-22 0 -22 35zM530 1933q0 76 72 76q43 0 84 -47l301 -303h-80l-317 199q-60 36 -60 75z" />
<glyph unicode="&#xda;" horiz-adv-x="1705" d="M39 1434q0 27 18 26q4 0 58.5 -2t131.5 -4t134 -2t135 2t132 4t59 2q18 0 18 -26q0 -35 -23 -35q-135 0 -174 -23.5t-41 -113.5q-4 -188 -4 -289v-371q0 -227 108.5 -370.5t350.5 -143.5q446 0 447 621v405q0 55 -2.5 94t-11.5 70t-16 51.5t-27.5 33.5t-34 20.5 t-48.5 11.5t-57 4h-74q-16 0 -16 30.5t16 30.5q4 0 112.5 -4t188.5 -4q37 0 146.5 4t120.5 4q16 0 22 -6t6 -29q0 -27 -18 -26q-61 0 -87 -1t-61 -8.5t-46 -20.5t-24.5 -42t-16.5 -67.5t-3 -102.5v-485q0 -160 -39 -285t-99 -201.5t-141 -126t-157 -69t-154 -19.5 q-131 0 -236.5 34t-169 88t-106.5 126t-59 142.5t-16 142.5v469q0 100 -5 289q-2 90 -40.5 113.5t-174.5 23.5q-22 0 -22 35zM780 1658l301 304q41 47 84 47q72 0 72 -76q0 -39 -60 -76l-317 -199h-80z" />
<glyph unicode="&#xdb;" horiz-adv-x="1705" d="M39 1434q0 27 18 26q4 0 58.5 -2t131.5 -4t134 -2t135 2t132 4t59 2q18 0 18 -26q0 -35 -23 -35q-135 0 -174 -23.5t-41 -113.5q-4 -188 -4 -289v-371q0 -227 108.5 -370.5t350.5 -143.5q446 0 447 621v405q0 55 -2.5 94t-11.5 70t-16 51.5t-27.5 33.5t-34 20.5 t-48.5 11.5t-57 4h-74q-16 0 -16 30.5t16 30.5q4 0 112.5 -4t188.5 -4q37 0 146.5 4t120.5 4q16 0 22 -6t6 -29q0 -27 -18 -26q-61 0 -87 -1t-61 -8.5t-46 -20.5t-24.5 -42t-16.5 -67.5t-3 -102.5v-485q0 -160 -39 -285t-99 -201.5t-141 -126t-157 -69t-154 -19.5 q-131 0 -236.5 34t-169 88t-106.5 126t-59 142.5t-16 142.5v469q0 100 -5 289q-2 90 -40.5 113.5t-174.5 23.5q-22 0 -22 35zM537 1661l254 340h127l256 -340h-72l-248 211l-250 -211h-67z" />
<glyph unicode="&#xdc;" horiz-adv-x="1705" d="M39 1434q0 27 18 26q4 0 58.5 -2t131.5 -4t134 -2t135 2t132 4t59 2q18 0 18 -26q0 -35 -23 -35q-135 0 -174 -23.5t-41 -113.5q-4 -188 -4 -289v-371q0 -227 108.5 -370.5t350.5 -143.5q446 0 447 621v405q0 55 -2.5 94t-11.5 70t-16 51.5t-27.5 33.5t-34 20.5 t-48.5 11.5t-57 4h-74q-16 0 -16 30.5t16 30.5q4 0 112.5 -4t188.5 -4q37 0 146.5 4t120.5 4q16 0 22 -6t6 -29q0 -27 -18 -26q-61 0 -87 -1t-61 -8.5t-46 -20.5t-24.5 -42t-16.5 -67.5t-3 -102.5v-485q0 -160 -39 -285t-99 -201.5t-141 -126t-157 -69t-154 -19.5 q-131 0 -236.5 34t-169 88t-106.5 126t-59 142.5t-16 142.5v469q0 100 -5 289q-2 90 -40.5 113.5t-174.5 23.5q-22 0 -22 35zM549 1794q0 39 30.5 69.5t69.5 30.5q41 0 71.5 -30.5t30.5 -69.5q0 -41 -30.5 -72t-71.5 -31q-39 0 -69.5 31t-30.5 72zM956 1794q0 39 31 69.5 t69 30.5q41 0 72 -30.5t31 -69.5q0 -41 -31 -72t-72 -31q-39 0 -69.5 31t-30.5 72z" />
<glyph unicode="&#xdd;" horiz-adv-x="1366" d="M-18 1432q0 29 34 28q43 0 129 -4t129 -4q45 0 139.5 4t139.5 4q25 0 33 -5t8 -25.5t-8 -25.5t-43 -5q-113 0 -113 -64q0 -41 279 -563q6 -14 18 -35q23 -45 33 -45q12 0 86 139q242 442 241 496q0 72 -92 72q-61 0 -75.5 6t-14.5 27q0 29 27 28q10 0 106.5 -4t112.5 -4 q20 0 112.5 4t141.5 4q27 0 27 -28q0 -20 -13.5 -26.5t-62.5 -6.5q-59 0 -100.5 -21.5t-59.5 -46t-41 -69.5l-324 -588q-33 -59 -40 -88t-7 -115q0 -170 7 -324q2 -33 11 -49t48 -28.5t117 -12.5q27 0 40 -5t15 -10t2 -19q0 -27 -16 -27h-10q-7 0 -25.5 1t-49 2t-94.5 1 h-147h-146q-62 0 -94 -1t-49.5 -2t-24.5 -1h-10q-16 0 -16 27q0 14 2 19t15.5 10t39.5 5q111 0 142.5 20.5t33.5 69.5q6 154 7 324q0 102 -19 131l-383 725q-25 47 -54.5 59.5t-84.5 12.5q-41 0 -50 5t-9 28zM672 1658l301 304q41 47 84 47q72 0 72 -76q0 -39 -60 -76 l-317 -199h-80z" />
<glyph unicode="&#xde;" horiz-adv-x="1290" d="M41 23q0 14 2 19t15.5 10t39.5 5q111 0 142.5 20.5t33.5 69.5q6 154 7 324v502q0 100 -5 289q-2 88 -36.5 112.5t-147.5 24.5q-23 0 -22 35q0 27 18 26q4 0 51 -2t116 -4t126 -2t135 2t132 4t59 2q18 0 18 -26q0 -35 -23 -35q-137 0 -178 -24.5t-41 -112.5 q0 -135 39 -136q6 0 20.5 2t46.5 5.5t83 3.5q139 0 243.5 -23.5t158.5 -57.5t88 -81t42 -83t8 -73q0 -410 -481 -409q-63 0 -146 10t-102 10v-213q0 -109 37 -134.5t195 -25.5q27 0 40 -5t15 -10t2 -19q0 -27 -16 -27h-15q-12 0 -37.5 1t-63.5 2t-106 1h-153h-147 q-62 0 -93.5 -1t-49 -2t-24.5 -1h-10q-16 0 -16 27zM483 524q0 -53 117 -53q391 0 391 328q0 125 -95 200.5t-257 75.5q-53 0 -80 -3t-51.5 -26.5t-24.5 -70.5v-451z" />
<glyph unicode="&#xdf;" horiz-adv-x="1099" d="M55 20q0 18 5.5 23.5t25.5 5.5q76 0 95.5 30t19.5 159v462q0 63 -20.5 75.5t-106.5 12.5q-12 0 -15.5 5.5t-3.5 23.5q0 4 1 7t5.5 5t6.5 4.5t9 4.5t9 4q49 20 78 78.5t54.5 172t37.5 148.5q43 131 138 210t231 79q162 0 226 -75t64 -155q0 -211 -272 -280l-41 -12 q0 -4 13.5 -9.5t47 -21.5t72.5 -43q125 -86 192.5 -226.5t67.5 -295.5q0 -195 -91 -318t-189 -123q-80 0 -130 51.5t-50 137.5q0 76 31.5 108.5t74.5 32.5q23 0 45.5 -21.5t22.5 -56.5q0 -41 -35 -70.5t-35 -60.5q0 -68 82 -67q43 0 83 49t40 164q0 190 -94.5 420.5 t-243.5 316.5q-12 6 -12 24q0 20 12 27q117 45 164 92q68 70 67 174q0 80 -36.5 128t-112.5 48q-115 0 -168 -118.5t-53 -386.5v-826q0 -49 21.5 -68.5t100.5 -19.5q10 0 11 -29q0 -25 -25 -24q-33 0 -94.5 2t-93.5 2q-66 0 -126.5 -2t-80.5 -2q-16 0 -20.5 4t-4.5 20z" />
<glyph unicode="&#xe0;" horiz-adv-x="909" d="M74 643q0 43 28.5 77t139.5 107q106 70 144 86.5t77 16.5q29 0 67.5 -11.5t82.5 -36t74 -73.5t30 -115v-583q0 -41 35 -41q23 0 53.5 23.5t34.5 23.5q8 0 17 -8.5t9 -14.5q0 -20 -77.5 -71.5t-126.5 -51.5q-51 0 -72 27t-41 92q-90 -70 -144.5 -94.5t-119.5 -24.5 q-106 0 -151.5 58.5t-45.5 124.5q0 88 91 161.5t372 178.5v186q0 72 -61.5 117t-110.5 45q-33 0 -89.5 -39t-56.5 -55q0 -12 13.5 -45t13.5 -57.5t-23.5 -51.5t-76.5 -27q-45 0 -65.5 25.5t-20.5 50.5zM131 1360q0 76 72 76q43 0 84 -47l301 -304h-80l-318 199 q-59 37 -59 76zM266 184q0 -53 23.5 -90t72.5 -37q55 0 122 40t67 69v248q0 20 -14 20q-10 0 -93.5 -39t-109.5 -61q-41 -31 -54.5 -61t-13.5 -89z" />
<glyph unicode="&#xe1;" horiz-adv-x="909" d="M74 643q0 43 28.5 77t139.5 107q106 70 144 86.5t77 16.5q29 0 67.5 -11.5t82.5 -36t74 -73.5t30 -115v-583q0 -41 35 -41q23 0 53.5 23.5t34.5 23.5q8 0 17 -8.5t9 -14.5q0 -20 -77.5 -71.5t-126.5 -51.5q-51 0 -72 27t-41 92q-90 -70 -144.5 -94.5t-119.5 -24.5 q-106 0 -151.5 58.5t-45.5 124.5q0 88 91 161.5t372 178.5v186q0 72 -61.5 117t-110.5 45q-33 0 -89.5 -39t-56.5 -55q0 -12 13.5 -45t13.5 -57.5t-23.5 -51.5t-76.5 -27q-45 0 -65.5 25.5t-20.5 50.5zM266 184q0 -53 23.5 -90t72.5 -37q55 0 122 40t67 69v248q0 20 -14 20 q-10 0 -93.5 -39t-109.5 -61q-41 -31 -54.5 -61t-13.5 -89zM299 1085l301 304q41 47 84 47q72 0 72 -76q0 -39 -60 -76l-317 -199h-80z" />
<glyph unicode="&#xe2;" horiz-adv-x="909" d="M74 643q0 43 28.5 77t139.5 107q106 70 144 86.5t77 16.5q29 0 67.5 -11.5t82.5 -36t74 -73.5t30 -115v-583q0 -41 35 -41q23 0 53.5 23.5t34.5 23.5q8 0 17 -8.5t9 -14.5q0 -20 -77.5 -71.5t-126.5 -51.5q-51 0 -72 27t-41 92q-90 -70 -144.5 -94.5t-119.5 -24.5 q-106 0 -151.5 58.5t-45.5 124.5q0 88 91 161.5t372 178.5v186q0 72 -61.5 117t-110.5 45q-33 0 -89.5 -39t-56.5 -55q0 -12 13.5 -45t13.5 -57.5t-23.5 -51.5t-76.5 -27q-45 0 -65.5 25.5t-20.5 50.5zM137 1087l254 340h127l256 -340h-72l-247 211l-250 -211h-68zM266 184 q0 -53 23.5 -90t72.5 -37q55 0 122 40t67 69v248q0 20 -14 20q-10 0 -93.5 -39t-109.5 -61q-41 -31 -54.5 -61t-13.5 -89z" />
<glyph unicode="&#xe3;" horiz-adv-x="909" d="M74 643q0 43 28.5 77t139.5 107q106 70 144 86.5t77 16.5q29 0 67.5 -11.5t82.5 -36t74 -73.5t30 -115v-583q0 -41 35 -41q23 0 53.5 23.5t34.5 23.5q8 0 17 -8.5t9 -14.5q0 -20 -77.5 -71.5t-126.5 -51.5q-51 0 -72 27t-41 92q-90 -70 -144.5 -94.5t-119.5 -24.5 q-106 0 -151.5 58.5t-45.5 124.5q0 88 91 161.5t372 178.5v186q0 72 -61.5 117t-110.5 45q-33 0 -89.5 -39t-56.5 -55q0 -12 13.5 -45t13.5 -57.5t-23.5 -51.5t-76.5 -27q-45 0 -65.5 25.5t-20.5 50.5zM119 1104q18 90 66 155.5t130 65.5q47 0 162 -47q115 -49 156 -49 t66.5 27.5t29.5 70.5h62q-18 -90 -66.5 -155.5t-130.5 -65.5q-47 0 -162 47q-115 49 -155.5 49t-66.5 -27.5t-30 -70.5h-61zM266 184q0 -53 23.5 -90t72.5 -37q55 0 122 40t67 69v248q0 20 -14 20q-10 0 -93.5 -39t-109.5 -61q-41 -31 -54.5 -61t-13.5 -89z" />
<glyph unicode="&#xe4;" horiz-adv-x="909" d="M74 643q0 43 28.5 77t139.5 107q106 70 144 86.5t77 16.5q29 0 67.5 -11.5t82.5 -36t74 -73.5t30 -115v-583q0 -41 35 -41q23 0 53.5 23.5t34.5 23.5q8 0 17 -8.5t9 -14.5q0 -20 -77.5 -71.5t-126.5 -51.5q-51 0 -72 27t-41 92q-90 -70 -144.5 -94.5t-119.5 -24.5 q-106 0 -151.5 58.5t-45.5 124.5q0 88 91 161.5t372 178.5v186q0 72 -61.5 117t-110.5 45q-33 0 -89.5 -39t-56.5 -55q0 -12 13.5 -45t13.5 -57.5t-23.5 -51.5t-76.5 -27q-45 0 -65.5 25.5t-20.5 50.5zM266 184q0 -53 23.5 -90t72.5 -37q55 0 122 40t67 69v248q0 20 -14 20 q-10 0 -93.5 -39t-109.5 -61q-41 -31 -54.5 -61t-13.5 -89zM150 1221q0 39 30.5 69.5t69.5 30.5q41 0 71.5 -30.5t30.5 -69.5q0 -41 -30.5 -72t-71.5 -31q-39 0 -69.5 31t-30.5 72zM557 1221q0 39 31 69.5t69 30.5q41 0 72 -30.5t31 -69.5q0 -41 -31 -72t-72 -31 q-39 0 -69.5 31t-30.5 72z" />
<glyph unicode="&#xe5;" horiz-adv-x="909" d="M74 643q0 43 28.5 77t139.5 107q106 70 144 86.5t77 16.5q29 0 67.5 -11.5t82.5 -36t74 -73.5t30 -115v-583q0 -41 35 -41q23 0 53.5 23.5t34.5 23.5q8 0 17 -8.5t9 -14.5q0 -20 -77.5 -71.5t-126.5 -51.5q-51 0 -72 27t-41 92q-90 -70 -144.5 -94.5t-119.5 -24.5 q-106 0 -151.5 58.5t-45.5 124.5q0 88 91 161.5t372 178.5v186q0 72 -61.5 117t-110.5 45q-33 0 -89.5 -39t-56.5 -55q0 -12 13.5 -45t13.5 -57.5t-23.5 -51.5t-76.5 -27q-45 0 -65.5 25.5t-20.5 50.5zM266 184q0 -53 23.5 -90t72.5 -37q55 0 122 40t67 69v248q0 20 -14 20 q-10 0 -93.5 -39t-109.5 -61q-41 -31 -54.5 -61t-13.5 -89zM233 1235q0 82 61.5 141.5t147.5 59.5q88 0 149.5 -58.5t61.5 -142.5q0 -86 -60.5 -144.5t-150.5 -58.5q-88 0 -148.5 59.5t-60.5 143.5zM307 1235q0 -57 41 -99t94.5 -42t95.5 42t42 99q0 55 -41 97t-96.5 42 t-95.5 -41t-40 -98z" />
<glyph unicode="&#xe6;" horiz-adv-x="1327" d="M74 643q0 43 28.5 77t139.5 107q106 70 144 86.5t77 16.5q49 0 115.5 -31t101.5 -78q109 109 258 109q90 0 159.5 -34t102.5 -82t48.5 -86t15.5 -60q0 -16 -15 -21l-532 -162v-137q0 -244 252 -244q88 0 149.5 24t83 51.5t36.5 51t24 23.5q29 0 28.5 -14.5t-10.5 -42 t-38 -67.5t-67.5 -75t-109.5 -59.5t-154 -24.5q-207 0 -319 150q-6 -4 -43 -33t-49 -37l-45 -28q-33 -20 -54.5 -27.5t-53.5 -16t-62 -8.5q-106 0 -151.5 58.5t-45.5 124.5q0 88 91 161.5t372 178.5v186q0 72 -61.5 117t-110.5 45q-33 0 -89.5 -39t-56.5 -55q0 -12 13.5 -45 t13.5 -57.5t-23.5 -51.5t-76.5 -27q-45 0 -65.5 25.5t-20.5 50.5zM266 184q0 -53 23.5 -90t72.5 -37q55 0 122 40t67 69v248q0 20 -14 20q-10 0 -93.5 -39t-109.5 -61q-41 -31 -54.5 -61t-13.5 -89zM717 543l338 108q16 4 16 37q0 80 -50 130t-126 50q-72 0 -125 -40 t-53 -128v-157z" />
<glyph unicode="&#xe7;" horiz-adv-x="909" d="M74 434q0 223 131 355.5t334 132.5q98 0 169.5 -24t103.5 -58.5t46 -63t14 -49.5q0 -25 -28.5 -56.5t-79.5 -31.5q-47 0 -62.5 22.5t-33.5 110.5q-18 96 -127 96q-117 0 -203 -102t-86 -332q0 -47 11 -95t44 -110.5t109 -102.5t184 -40q51 0 110.5 27.5t96.5 58.5 q6 6 13 14.5t12.5 13.5t9.5 5q6 0 18 -9.5t12 -19.5q0 -14 -16 -31q-154 -174 -358 -174q-184 0 -304 125t-120 338zM250 -408l29 64q82 -25 131 -25t83.5 20.5t34.5 65.5q0 37 -23.5 58.5t-62.5 21.5q-41 0 -86 -10l-14 10l86 203h72l-54 -133q27 6 60 6q72 0 122 -36 t50 -105q0 -172 -258 -172q-80 -1 -170 32z" />
<glyph unicode="&#xe8;" horiz-adv-x="948" d="M86 438q0 213 123 352.5t287 139.5q96 0 167.5 -32t108.5 -75t58.5 -98t26.5 -89t5 -61q0 -23 -24 -22h-584q-8 -51 -8 -117q0 -117 91 -227.5t244.5 -110.5t239.5 123q2 4 5 8l7 9q3 4 5 7l4 6q2 3 5 4t5 1q10 0 21.5 -9t11.5 -16q0 -4 -10.5 -28.5t-37 -64.5 t-63.5 -76.5t-101.5 -63.5t-140.5 -27q-217 0 -331.5 124t-114.5 343zM213 1360q0 76 72 76q43 0 84 -47l301 -304h-80l-318 199q-59 37 -59 76zM266 614h340q70 0 70 68q0 106 -55.5 150.5t-124.5 44.5q-191 -1 -230 -263z" />
<glyph unicode="&#xe9;" horiz-adv-x="948" d="M86 438q0 213 123 352.5t287 139.5q96 0 167.5 -32t108.5 -75t58.5 -98t26.5 -89t5 -61q0 -23 -24 -22h-584q-8 -51 -8 -117q0 -117 91 -227.5t244.5 -110.5t239.5 123q2 4 5 8l7 9q3 4 5 7l4 6q2 3 5 4t5 1q10 0 21.5 -9t11.5 -16q0 -4 -10.5 -28.5t-37 -64.5 t-63.5 -76.5t-101.5 -63.5t-140.5 -27q-217 0 -331.5 124t-114.5 343zM266 614h340q70 0 70 68q0 106 -55.5 150.5t-124.5 44.5q-191 -1 -230 -263zM360 1085l301 304q41 47 84 47q72 0 72 -76q0 -39 -60 -76l-317 -199h-80z" />
<glyph unicode="&#xea;" horiz-adv-x="948" d="M86 438q0 213 123 352.5t287 139.5q96 0 167.5 -32t108.5 -75t58.5 -98t26.5 -89t5 -61q0 -23 -24 -22h-584q-8 -51 -8 -117q0 -117 91 -227.5t244.5 -110.5t239.5 123q2 4 5 8l7 9q3 4 5 7l4 6q2 3 5 4t5 1q10 0 21.5 -9t11.5 -16q0 -4 -10.5 -28.5t-37 -64.5 t-63.5 -76.5t-101.5 -63.5t-140.5 -27q-217 0 -331.5 124t-114.5 343zM178 1087l254 340h127l256 -340h-72l-247 211l-250 -211h-68zM266 614h340q70 0 70 68q0 106 -55.5 150.5t-124.5 44.5q-191 -1 -230 -263z" />
<glyph unicode="&#xeb;" horiz-adv-x="948" d="M86 438q0 213 123 352.5t287 139.5q96 0 167.5 -32t108.5 -75t58.5 -98t26.5 -89t5 -61q0 -23 -24 -22h-584q-8 -51 -8 -117q0 -117 91 -227.5t244.5 -110.5t239.5 123q2 4 5 8l7 9q3 4 5 7l4 6q2 3 5 4t5 1q10 0 21.5 -9t11.5 -16q0 -4 -10.5 -28.5t-37 -64.5 t-63.5 -76.5t-101.5 -63.5t-140.5 -27q-217 0 -331.5 124t-114.5 343zM266 614h340q70 0 70 68q0 106 -55.5 150.5t-124.5 44.5q-191 -1 -230 -263zM170 1221q0 39 30.5 69.5t69.5 30.5q41 0 71.5 -30.5t30.5 -69.5q0 -41 -30.5 -72t-71.5 -31q-39 0 -69.5 31t-30.5 72z M577 1221q0 39 31 69.5t69 30.5q41 0 72 -30.5t31 -69.5q0 -41 -31 -72t-72 -31q-39 0 -69.5 31t-30.5 72z" />
<glyph unicode="&#xec;" horiz-adv-x="569" d="M-39 1360q0 76 72 76q43 0 84 -47l301 -304h-80l-318 199q-59 37 -59 76zM27 18q0 20 11 25.5t66 5.5q63 0 84 49q12 29 13 295v281q0 59 -24.5 86.5t-96.5 36.5q-18 2 -19 24q0 25 17 29q80 16 139 35.5t84 33.5l41 22q16 9 23 9q12 0 12 -22v-6q-2 -8 -3 -25.5 t-3 -46.5t-3 -86t-1 -131v-443q0 -92 14 -116.5t80 -24.5q35 0 42 -4t7 -22q0 -27 -21 -27h-16q-16 2 -55 3t-99 1q-84 0 -146 -1t-92 -2t-38 -1q-16 -1 -16 22z" />
<glyph unicode="&#xed;" horiz-adv-x="569" d="M27 18q0 20 11 25.5t66 5.5q63 0 84 49q12 29 13 295v281q0 59 -24.5 86.5t-96.5 36.5q-18 2 -19 24q0 25 17 29q80 16 139 35.5t84 33.5l41 22q16 9 23 9q12 0 12 -22v-6q-2 -8 -3 -25.5t-3 -46.5t-3 -86t-1 -131v-443q0 -92 14 -116.5t80 -24.5q35 0 42 -4t7 -22 q0 -27 -21 -27h-16q-16 2 -55 3t-99 1q-84 0 -146 -1t-92 -2t-38 -1q-16 -1 -16 22zM129 1085l301 304q41 47 84 47q72 0 72 -76q0 -39 -60 -76l-317 -199h-80z" />
<glyph unicode="&#xee;" horiz-adv-x="569" d="M-33 1087l254 340h127l256 -340h-72l-247 211l-250 -211h-68zM27 18q0 20 11 25.5t66 5.5q63 0 84 49q12 29 13 295v281q0 59 -24.5 86.5t-96.5 36.5q-18 2 -19 24q0 25 17 29q80 16 139 35.5t84 33.5l41 22q16 9 23 9q12 0 12 -22v-6q-2 -8 -3 -25.5t-3 -46.5t-3 -86 t-1 -131v-443q0 -92 14 -116.5t80 -24.5q35 0 42 -4t7 -22q0 -27 -21 -27h-16q-16 2 -55 3t-99 1q-84 0 -146 -1t-92 -2t-38 -1q-16 -1 -16 22z" />
<glyph unicode="&#xef;" horiz-adv-x="569" d="M27 18q0 20 11 25.5t66 5.5q63 0 84 49q12 29 13 295v281q0 59 -24.5 86.5t-96.5 36.5q-18 2 -19 24q0 25 17 29q80 16 139 35.5t84 33.5l41 22q16 9 23 9q12 0 12 -22v-6q-2 -8 -3 -25.5t-3 -46.5t-3 -86t-1 -131v-443q0 -92 14 -116.5t80 -24.5q35 0 42 -4t7 -22 q0 -27 -21 -27h-16q-16 2 -55 3t-99 1q-84 0 -146 -1t-92 -2t-38 -1q-16 -1 -16 22zM-20 1221q0 39 30.5 69.5t69.5 30.5q41 0 71.5 -30.5t30.5 -69.5q0 -41 -30.5 -72t-71.5 -31q-39 0 -69.5 31t-30.5 72zM387 1221q0 39 31 69.5t69 30.5q41 0 72 -30.5t31 -69.5 q0 -41 -31 -72t-72 -31q-39 0 -69.5 31t-30.5 72z" />
<glyph unicode="&#xf0;" horiz-adv-x="1099" d="M74 446q0 203 135 339.5t340 136.5q137 0 239 -72l5 4q-27 213 -187 373l-293 -209l-53 55l289 205q-80 68 -169 107.5t-137 50t-48 14.5q0 31 20 31q78 0 204 -38t220 -102l291 205l53 -55l-281 -197q324 -270 324 -731q0 -145 -46 -264t-119 -187.5t-153.5 -104.5 t-158.5 -36q-209 0 -342 135t-133 340zM268 446q0 -76 11.5 -141t39 -133t87 -107.5t143.5 -39.5q86 0 145.5 39.5t87 107.5t38.5 133.5t11 140.5q0 174 -67.5 298t-214.5 124q-100 0 -166 -65.5t-90.5 -155.5t-24.5 -201z" />
<glyph unicode="&#xf1;" horiz-adv-x="1138" d="M16 18q0 20 11.5 25.5t66.5 5.5q63 0 84 49q12 29 12 295v281q0 59 -24.5 86.5t-95.5 36.5q-18 2 -19 24q0 25 17 29q80 16 139 35.5t84 33.5l41 22q16 9 22 9t6 -22q0 -2 -1 -21.5t-2 -53.5t-1 -73q70 47 110 70.5t100.5 47.5t111.5 24q39 0 73.5 -8.5t85 -35t81 -94 t30.5 -170.5v-491q0 -23 6.5 -36t37 -25.5t89.5 -12.5q20 0 21 -26q0 -8 -1 -12.5t-8.5 -9.5t-19.5 -5q-25 0 -86 2t-121 2q-74 0 -123 -1t-69.5 -2t-22.5 -1q-14 0 -14 24q0 29 29 29q76 0 96 13.5t20 62.5v367q0 168 -42 242.5t-187 74.5q-53 0 -120.5 -36t-76.5 -58v-525 q0 -92 14.5 -116.5t80.5 -24.5q41 0 50 -4t9 -22q0 -27 -21 -27h-16q-16 2 -58 3t-106 1q-84 0 -146.5 -1t-92 -2t-37.5 -1q-17 -1 -17 22zM234 1104q18 90 66 155.5t130 65.5q47 0 162 -47q115 -49 156 -49t66.5 27.5t29.5 70.5h62q-18 -90 -66.5 -155.5t-130.5 -65.5 q-47 0 -162 47q-115 49 -155.5 49t-66.5 -27.5t-30 -70.5h-61z" />
<glyph unicode="&#xf2;" horiz-adv-x="1099" d="M74 446q0 203 135 339.5t340 136.5q207 0 342 -134.5t135 -341.5q0 -215 -131 -345t-346 -130q-209 0 -342 135t-133 340zM227 1360q0 76 72 76q43 0 84 -47l301 -304h-80l-317 199q-60 37 -60 76zM268 446q0 -76 11.5 -141t39 -133t87 -107.5t143.5 -39.5 q86 0 145.5 39.5t87 107.5t38.5 133.5t11 140.5q0 174 -67.5 298t-214.5 124q-100 0 -166 -65.5t-90.5 -155.5t-24.5 -201z" />
<glyph unicode="&#xf3;" horiz-adv-x="1099" d="M74 446q0 203 135 339.5t340 136.5q207 0 342 -134.5t135 -341.5q0 -215 -131 -345t-346 -130q-209 0 -342 135t-133 340zM268 446q0 -76 11.5 -141t39 -133t87 -107.5t143.5 -39.5q86 0 145.5 39.5t87 107.5t38.5 133.5t11 140.5q0 174 -67.5 298t-214.5 124 q-100 0 -166 -65.5t-90.5 -155.5t-24.5 -201zM395 1085l301 304q41 47 84 47q72 0 72 -76q0 -39 -60 -76l-317 -199h-80z" />
<glyph unicode="&#xf4;" horiz-adv-x="1099" d="M74 446q0 203 135 339.5t340 136.5q207 0 342 -134.5t135 -341.5q0 -215 -131 -345t-346 -130q-209 0 -342 135t-133 340zM233 1087l254 340h127l256 -340h-71l-248 211l-250 -211h-68zM268 446q0 -76 11.5 -141t39 -133t87 -107.5t143.5 -39.5q86 0 145.5 39.5t87 107.5 t38.5 133.5t11 140.5q0 174 -67.5 298t-214.5 124q-100 0 -166 -65.5t-90.5 -155.5t-24.5 -201z" />
<glyph unicode="&#xf5;" horiz-adv-x="1099" d="M74 446q0 203 135 339.5t340 136.5q207 0 342 -134.5t135 -341.5q0 -215 -131 -345t-346 -130q-209 0 -342 135t-133 340zM268 446q0 -76 11.5 -141t39 -133t87 -107.5t143.5 -39.5q86 0 145.5 39.5t87 107.5t38.5 133.5t11 140.5q0 174 -67.5 298t-214.5 124 q-100 0 -166 -65.5t-90.5 -155.5t-24.5 -201zM215 1104q18 90 66 155.5t130 65.5q47 0 162 -47q115 -49 156 -49t66.5 27.5t29.5 70.5h62q-18 -90 -66.5 -155.5t-130.5 -65.5q-47 0 -162 47q-115 49 -155.5 49t-66.5 -27.5t-30 -70.5h-61z" />
<glyph unicode="&#xf6;" horiz-adv-x="1099" d="M74 446q0 203 135 339.5t340 136.5q207 0 342 -134.5t135 -341.5q0 -215 -131 -345t-346 -130q-209 0 -342 135t-133 340zM268 446q0 -76 11.5 -141t39 -133t87 -107.5t143.5 -39.5q86 0 145.5 39.5t87 107.5t38.5 133.5t11 140.5q0 174 -67.5 298t-214.5 124 q-100 0 -166 -65.5t-90.5 -155.5t-24.5 -201zM246 1221q0 39 30.5 69.5t69.5 30.5q41 0 71.5 -30.5t30.5 -69.5q0 -41 -30.5 -72t-71.5 -31q-39 0 -69.5 31t-30.5 72zM653 1221q0 39 31 69.5t69 30.5q41 0 72 -30.5t31 -69.5q0 -41 -31 -72t-72 -31q-39 0 -69.5 31t-30.5 72 z" />
<glyph unicode="&#xf7;" d="M90 375v133h883v-133h-883zM424 106.5q0 45.5 30.5 77t78 31.5t77 -31.5t29.5 -77t-29.5 -76t-77 -30.5t-78 30.5t-30.5 76zM424 776q0 45 30.5 76t78 31t77 -31t29.5 -76t-29.5 -76.5t-77 -31.5t-78 31.5t-30.5 76.5z" />
<glyph unicode="&#xf8;" horiz-adv-x="1099" d="M53 16l131 117q-111 129 -110 313q0 203 135 339.5t340 136.5q193 0 325 -121l123 125l50 -47l-129 -123q109 -125 108 -310q0 -215 -131 -345t-346 -130q-195 0 -324 119l-125 -121zM268 446q0 -131 25 -217q233 215 489 478q-70 162 -233 161q-100 0 -166 -65.5 t-90.5 -155.5t-24.5 -201zM317 178q63 -154 232 -153q86 0 145.5 39.5t87 107.5t38.5 133.5t11 140.5q0 104 -24 203z" />
<glyph unicode="&#xf9;" horiz-adv-x="1099" d="M10 848q0 41 23 41q4 0 43 -3t78 -3q41 0 105.5 3t72.5 3q10 0 13 -4t3 -25v-553q0 -121 46 -181t155 -60q63 0 133 32.5t70 75.5v531q0 82 -22.5 102t-104.5 20q-66 0 -66 21q0 41 14 41q2 0 53.5 -3t125.5 -3q27 0 78 3t77 3q29 0 29 -29q0 -2 -2 -21l-5 -51 q-3 -31 -5 -68.5t-4 -83.5t-2 -87v-385q0 -76 51 -76q16 0 49 4t39 4q12 0 12 -39q0 -10 -10 -14t-58 -12q-76 -12 -132 -25.5t-77.5 -21t-25.5 -7.5q-25 0 -25 29q0 16 7 78q-72 -53 -157 -83t-149 -30q-145 0 -202.5 86t-57.5 258v320q0 131 -22.5 161.5t-104.5 30.5 q-45 1 -45 21zM207 1360q0 76 72 76q43 0 83 -47l302 -304h-80l-318 199q-59 37 -59 76z" />
<glyph unicode="&#xfa;" horiz-adv-x="1099" d="M10 848q0 41 23 41q4 0 43 -3t78 -3q41 0 105.5 3t72.5 3q10 0 13 -4t3 -25v-553q0 -121 46 -181t155 -60q63 0 133 32.5t70 75.5v531q0 82 -22.5 102t-104.5 20q-66 0 -66 21q0 41 14 41q2 0 53.5 -3t125.5 -3q27 0 78 3t77 3q29 0 29 -29q0 -2 -2 -21l-5 -51 q-3 -31 -5 -68.5t-4 -83.5t-2 -87v-385q0 -76 51 -76q16 0 49 4t39 4q12 0 12 -39q0 -10 -10 -14t-58 -12q-76 -12 -132 -25.5t-77.5 -21t-25.5 -7.5q-25 0 -25 29q0 16 7 78q-72 -53 -157 -83t-149 -30q-145 0 -202.5 86t-57.5 258v320q0 131 -22.5 161.5t-104.5 30.5 q-45 1 -45 21zM395 1085l301 304q41 47 84 47q72 0 72 -76q0 -39 -60 -76l-317 -199h-80z" />
<glyph unicode="&#xfb;" horiz-adv-x="1099" d="M10 848q0 41 23 41q4 0 43 -3t78 -3q41 0 105.5 3t72.5 3q10 0 13 -4t3 -25v-553q0 -121 46 -181t155 -60q63 0 133 32.5t70 75.5v531q0 82 -22.5 102t-104.5 20q-66 0 -66 21q0 41 14 41q2 0 53.5 -3t125.5 -3q27 0 78 3t77 3q29 0 29 -29q0 -2 -2 -21l-5 -51 q-3 -31 -5 -68.5t-4 -83.5t-2 -87v-385q0 -76 51 -76q16 0 49 4t39 4q12 0 12 -39q0 -10 -10 -14t-58 -12q-76 -12 -132 -25.5t-77.5 -21t-25.5 -7.5q-25 0 -25 29q0 16 7 78q-72 -53 -157 -83t-149 -30q-145 0 -202.5 86t-57.5 258v320q0 131 -22.5 161.5t-104.5 30.5 q-45 1 -45 21zM233 1087l254 340h127l256 -340h-71l-248 211l-250 -211h-68z" />
<glyph unicode="&#xfc;" horiz-adv-x="1099" d="M10 848q0 41 23 41q4 0 43 -3t78 -3q41 0 105.5 3t72.5 3q10 0 13 -4t3 -25v-553q0 -121 46 -181t155 -60q63 0 133 32.5t70 75.5v531q0 82 -22.5 102t-104.5 20q-66 0 -66 21q0 41 14 41q2 0 53.5 -3t125.5 -3q27 0 78 3t77 3q29 0 29 -29q0 -2 -2 -21l-5 -51 q-3 -31 -5 -68.5t-4 -83.5t-2 -87v-385q0 -76 51 -76q16 0 49 4t39 4q12 0 12 -39q0 -10 -10 -14t-58 -12q-76 -12 -132 -25.5t-77.5 -21t-25.5 -7.5q-25 0 -25 29q0 16 7 78q-72 -53 -157 -83t-149 -30q-145 0 -202.5 86t-57.5 258v320q0 131 -22.5 161.5t-104.5 30.5 q-45 1 -45 21zM246 1221q0 39 30.5 69.5t69.5 30.5q41 0 71.5 -30.5t30.5 -69.5q0 -41 -30.5 -72t-71.5 -31q-39 0 -69.5 31t-30.5 72zM653 1221q0 39 31 69.5t69 30.5q41 0 72 -30.5t31 -69.5q0 -41 -31 -72t-72 -31q-39 0 -69.5 31t-30.5 72z" />
<glyph unicode="&#xfd;" horiz-adv-x="985" d="M-41 862q0 25 23 25q6 0 95 -2t132 -2q37 0 104.5 2t98.5 2q25 0 24.5 -26.5t-20.5 -26.5q-100 0 -101 -46q0 -123 203 -643q264 545 264 619q0 70 -157 70q-20 0 -20.5 26.5t18.5 26.5q33 0 99 -2t99 -2q31 0 94.5 2t96.5 2q14 0 14 -27q0 -25 -35 -26 q-55 -4 -80.5 -21.5t-48.5 -69.5q-31 -74 -204 -444.5t-197 -433.5q-74 -186 -132.5 -283.5t-89 -118t-71.5 -20.5q-49 0 -82 36t-33 85q0 45 37 77.5t82 32.5q29 0 61.5 -17t40.5 -17q29 0 81.5 111.5t52.5 180.5q0 47 -72 230q-76 197 -139.5 400.5t-71.5 223.5 q-18 47 -148 48q-18 -1 -18 28zM338 1085l301 304q41 47 84 47q72 0 72 -76q0 -39 -60 -76l-317 -199h-80z" />
<glyph unicode="&#xfe;" horiz-adv-x="1099" d="M35 -512q0 29 18 29q90 0 108.5 18.5t18.5 93.5v1563q0 137 -18.5 171t-100.5 42q-18 4 -18 25q0 25 16 28q72 12 139.5 35t103.5 38t42 15q12 0 12 -22v-8q-2 -6 -3 -23.5t-3 -46.5t-3 -86t-1 -131v-434l93 63q28 18 84.5 39t113.5 21q184 0 286.5 -141.5t102.5 -330.5 q0 -223 -113.5 -349t-341.5 -126q-45 0 -81.5 4.5t-50 6.5t-49.5 12t-44 12v-373q0 -78 23.5 -97t142.5 -19q10 0 10 -23q0 -31 -20 -31q-4 0 -35 2.5t-81 3.5t-103 1q-41 0 -118 -3.5t-110 -3.5q-20 0 -20 25zM346 182q0 -61 59.5 -109t180.5 -48q90 0 148.5 59t77.5 134 t19 163q0 76 -12 147.5t-39.5 145.5t-86 119t-140.5 45q-72 0 -139.5 -50.5t-67.5 -111.5v-494z" />
<glyph unicode="&#xff;" horiz-adv-x="985" d="M-41 862q0 25 23 25q6 0 95 -2t132 -2q37 0 104.5 2t98.5 2q25 0 24.5 -26.5t-20.5 -26.5q-100 0 -101 -46q0 -123 203 -643q264 545 264 619q0 70 -157 70q-20 0 -20.5 26.5t18.5 26.5q33 0 99 -2t99 -2q31 0 94.5 2t96.5 2q14 0 14 -27q0 -25 -35 -26 q-55 -4 -80.5 -21.5t-48.5 -69.5q-31 -74 -204 -444.5t-197 -433.5q-74 -186 -132.5 -283.5t-89 -118t-71.5 -20.5q-49 0 -82 36t-33 85q0 45 37 77.5t82 32.5q29 0 61.5 -17t40.5 -17q29 0 81.5 111.5t52.5 180.5q0 47 -72 230q-76 197 -139.5 400.5t-71.5 223.5 q-18 47 -148 48q-18 -1 -18 28zM229 1221q0 39 31 69.5t70 30.5q41 0 71.5 -30.5t30.5 -69.5q0 -41 -30.5 -72t-71.5 -31q-39 0 -70 31t-31 72zM637 1221q0 39 30.5 69.5t69.5 30.5q41 0 72 -30.5t31 -69.5q0 -41 -31 -72t-72 -31q-39 0 -69.5 31t-30.5 72z" />
<glyph unicode="&#x131;" horiz-adv-x="569" d="M27 18q0 20 11 25.5t66 5.5q63 0 84 49q12 29 13 295v281q0 59 -24.5 86.5t-96.5 36.5q-18 2 -19 24q0 25 17 29q80 16 139 35.5t84 33.5l41 22q16 9 23 9q12 0 12 -22v-6q-2 -8 -3 -25.5t-3 -46.5t-3 -86t-1 -131v-443q0 -92 14 -116.5t80 -24.5q35 0 42 -4t7 -22 q0 -27 -21 -27h-16q-16 2 -55 3t-99 1q-84 0 -146 -1t-92 -2t-38 -1q-16 -1 -16 22z" />
<glyph unicode="&#x152;" horiz-adv-x="2314" d="M94 684q0 180 63.5 332.5t169 253t240.5 156t279 55.5q16 0 180 -14.5t295 -14.5t378 4t310 4q74 0 78 -16q23 -82 46 -153l34 -101q10 -31 10 -35q0 -14 -31 -14q-14 0 -30.5 18.5t-69.5 73.5t-129 119q-55 47 -188 47q-238 0 -279 -18.5t-41 -131.5v-491h137 q221 0 242 112q12 74 20.5 107t12.5 39t12 6q39 0 39 -14v-308q0 -70 5 -148.5t5 -95t-26.5 -16.5t-30.5 23q-23 162 -68 197.5t-198 35.5h-150v-528q0 -59 21.5 -83t78.5 -24h473q27 0 66 34t66.5 70l64.5 88l43 60q12 12 27 13q33 0 32 -15q0 -10 -57 -160.5t-72 -150.5 h-831q-215 0 -299 -14q-111 -14 -191 -15q-150 0 -275.5 50.5t-208.5 128t-142.5 175t-85 189.5t-25.5 170zM338 707q0 -309 152.5 -491.5t371.5 -182.5q49 0 103.5 12t111 39t93 81t36.5 126v856q0 117 -89 194.5t-269 77.5q-250 0 -380 -182t-130 -530z" />
<glyph unicode="&#x153;" horiz-adv-x="1630" d="M74 446q0 201 134 338.5t322 137.5q207 0 353 -164q121 172 319 172q96 0 168 -32t109 -75t58.5 -98t26.5 -89t5 -61q0 -23 -25 -22h-583q-8 -51 -9 -117q0 -117 91.5 -227.5t245 -110.5t239.5 123q2 4 5 8l6 9q3 4 5 7l4 6q2 3 5 4t6 1q10 0 21 -9t11 -16 q0 -4 -10 -28.5t-36.5 -64.5t-63.5 -76.5t-101.5 -63.5t-140.5 -27q-242 2 -371 148q-166 -147 -338 -148q-195 0 -325.5 141t-130.5 334zM268 428q0 -100 21.5 -185t83 -151.5t157.5 -66.5q74 0 127.5 37.5t82 100t41 131t12.5 144.5q0 72 -10.5 138.5t-36 137t-81 112.5 t-135.5 42q-63 0 -112 -29.5t-77 -73.5t-45 -106.5t-22.5 -117t-5.5 -113.5zM973 614h340q70 0 69 68q0 106 -55 150.5t-125 44.5q-190 -1 -229 -263z" />
<glyph unicode="&#x178;" horiz-adv-x="1366" d="M-18 1432q0 29 34 28q43 0 129 -4t129 -4q45 0 139.5 4t139.5 4q25 0 33 -5t8 -25.5t-8 -25.5t-43 -5q-113 0 -113 -64q0 -41 279 -563q6 -14 18 -35q23 -45 33 -45q12 0 86 139q242 442 241 496q0 72 -92 72q-61 0 -75.5 6t-14.5 27q0 29 27 28q10 0 106.5 -4t112.5 -4 q20 0 112.5 4t141.5 4q27 0 27 -28q0 -20 -13.5 -26.5t-62.5 -6.5q-59 0 -100.5 -21.5t-59.5 -46t-41 -69.5l-324 -588q-33 -59 -40 -88t-7 -115q0 -170 7 -324q2 -33 11 -49t48 -28.5t117 -12.5q27 0 40 -5t15 -10t2 -19q0 -27 -16 -27h-10q-7 0 -25.5 1t-49 2t-94.5 1 h-147h-146q-62 0 -94 -1t-49.5 -2t-24.5 -1h-10q-16 0 -16 27q0 14 2 19t15.5 10t39.5 5q111 0 142.5 20.5t33.5 69.5q6 154 7 324q0 102 -19 131l-383 725q-25 47 -54.5 59.5t-84.5 12.5q-41 0 -50 5t-9 28zM440 1794q0 39 31 69.5t70 30.5q41 0 71.5 -30.5t30.5 -69.5 q0 -41 -30.5 -71.5t-71.5 -30.5q-39 0 -70 30.5t-31 71.5zM848 1794q0 39 30.5 69.5t69.5 30.5q41 0 72 -30.5t31 -69.5q0 -41 -31 -71.5t-72 -30.5q-39 0 -69.5 30.5t-30.5 71.5z" />
<glyph unicode="&#x2c6;" horiz-adv-x="569" d="M-33 1087l254 340h127l256 -340h-72l-247 211l-250 -211h-68z" />
<glyph unicode="&#x2da;" horiz-adv-x="569" d="M63 1235q0 82 61.5 141.5t147.5 59.5q88 0 149.5 -58.5t61.5 -142.5q0 -86 -60.5 -144.5t-150.5 -58.5q-88 0 -148.5 59.5t-60.5 143.5zM137 1235q0 -57 41 -99t94.5 -42t95.5 42t42 99q0 55 -41 97t-96.5 42t-95.5 -41t-40 -98z" />
<glyph unicode="&#x2dc;" horiz-adv-x="569" d="M-51 1104q18 90 66 155.5t130 65.5q47 0 162 -47q115 -49 156 -49t66.5 27.5t29.5 70.5h62q-18 -90 -66.5 -155.5t-130.5 -65.5q-47 0 -162 47q-115 49 -155.5 49t-66.5 -27.5t-30 -70.5h-61z" />
<glyph unicode="&#x2013;" horiz-adv-x="1024" d="M0 418v106h1024v-106h-1024z" />
<glyph unicode="&#x2014;" horiz-adv-x="2048" d="M0 418v106h2048v-106h-2048z" />
<glyph unicode="&#x2018;" horiz-adv-x="530" d="M111 1081q0 184 133 318q27 27 70.5 56.5t66.5 25.5q20 -2 20 -27q0 -6 -19 -23l-43 -37q-24 -19 -26 -22q-35 -31 -63.5 -92t-28.5 -109q0 -66 25 -65q8 0 23.5 5t27.5 5q53 0 77.5 -36t24.5 -85t-36.5 -83.5t-86.5 -34.5q-82 0 -123.5 60t-41.5 144z" />
<glyph unicode="&#x2019;" horiz-adv-x="530" d="M129 903q0 6 19 24l43 37q24 19 26 21q35 31 63.5 92.5t28.5 108.5q0 66 -24 65q-8 0 -23.5 -5t-28.5 -5q-53 0 -77.5 36t-24.5 85t37 84t86 35q82 0 124 -60.5t42 -144.5q0 -184 -133 -318q-27 -27 -71 -56.5t-66 -24.5q-21 1 -21 26z" />
<glyph unicode="&#x201a;" horiz-adv-x="530" d="M129 -350q0 6 19 23l43 37q24 19 26 22q35 31 63.5 92t28.5 108q0 66 -24 66q-8 0 -23.5 -5t-28.5 -5q-53 0 -77.5 35.5t-24.5 85t37 84t86 34.5q82 0 124 -60.5t42 -143.5q0 -184 -133 -318q-27 -27 -71 -56.5t-66 -25.5q-21 2 -21 27z" />
<glyph unicode="&#x201c;" horiz-adv-x="909" d="M92 1081q0 184 133 318q27 27 71 56.5t66 25.5q20 -2 21 -27q0 -6 -19 -23l-43 -37q-24 -19 -26 -22q-35 -31 -63.5 -92t-28.5 -109q0 -66 24 -65q8 0 23.5 5t28.5 5q53 0 77.5 -36t24.5 -85t-37 -83.5t-86 -34.5q-82 0 -124 60t-42 144zM494 1081q0 184 133 318 q27 27 70.5 56.5t66.5 25.5q20 -2 20 -27q0 -6 -19 -23l-43 -37q-24 -19 -26 -22q-35 -31 -63.5 -92t-28.5 -109q0 -66 25 -65q8 0 23.5 5t27.5 5q53 0 77.5 -36t24.5 -85t-36.5 -83.5t-86.5 -34.5q-82 0 -123.5 60t-41.5 144z" />
<glyph unicode="&#x201d;" horiz-adv-x="909" d="M125 903q0 6 19 24l43 37q24 19 26 21q35 31 63.5 92.5t28.5 108.5q0 66 -24 65q-8 0 -23.5 -5t-28.5 -5q-53 0 -77.5 36t-24.5 85t37 84t86 35q82 0 124 -60.5t42 -144.5q0 -184 -133 -318q-27 -27 -71 -56.5t-67 -24.5q-20 1 -20 26zM526 903q0 6 20 24l43 37 q24 19 25 21q35 31 64 92.5t29 108.5q0 66 -25 65q-8 0 -23.5 -5t-27.5 -5q-53 0 -78 36t-25 85t37 84t86 35q82 0 124 -60.5t42 -144.5q0 -184 -133 -318q-27 -27 -71 -56.5t-66 -24.5q-21 1 -21 26z" />
<glyph unicode="&#x201e;" horiz-adv-x="909" d="M125 -350q0 6 19 23l43 37q24 19 26 22q35 31 63.5 92t28.5 108q0 66 -24 66q-8 0 -23.5 -5t-28.5 -5q-53 0 -77.5 35.5t-24.5 85t37 84t86 34.5q82 0 124 -60.5t42 -143.5q0 -184 -133 -318q-27 -27 -71 -56.5t-67 -25.5q-20 2 -20 27zM526 -350q0 6 20 23l43 37 q24 19 25 22q35 31 64 92t29 108q0 66 -25 66q-8 0 -23.5 -5t-27.5 -5q-53 0 -78 35.5t-25 85t37 84t86 34.5q82 0 124 -60.5t42 -143.5q0 -184 -133 -318q-27 -27 -71 -56.5t-66 -25.5q-21 2 -21 27z" />
<glyph unicode="&#x2022;" d="M186 790.5q0 143.5 100.5 244t244 100.5t245 -100.5t101.5 -244t-101.5 -245t-245 -101.5t-244 101.5t-100.5 245z" />
<glyph unicode="&#x2026;" horiz-adv-x="2048" d="M217 108.5q0 53.5 35 89t90 35.5t90 -35.5t35 -89t-35 -89t-90 -35.5t-90 35.5t-35 89zM899 108.5q0 53.5 35 89t90 35.5t90 -35.5t35 -89t-35 -89t-90 -35.5t-90 35.5t-35 89zM1581 108.5q0 53.5 35 89t90 35.5t90 -35.5t35 -89t-35 -89t-90 -35.5t-90 35.5t-35 89z" />
<glyph unicode="&#x2039;" horiz-adv-x="681" d="M33 471q0 6 13 14.5t45 22.5t54 27q147 82 254 157.5t144 110.5t39 35q8 0 17 -6.5t9 -14.5q0 -41 -129 -166t-219 -180q113 -74 230.5 -193.5t117.5 -158.5q0 -8 -9 -14.5t-17 -6.5q-14 0 -50 35t-139.5 115t-247.5 160q-23 12 -54.5 26.5t-44.5 22.5t-13 14z" />
<glyph unicode="&#x203a;" horiz-adv-x="681" d="M74 125q0 41 129 166t219 180q-113 74 -230.5 193.5t-117.5 158.5q0 8 9 14.5t17 6.5q14 0 50 -35t139.5 -115t247.5 -159q23 -12 54.5 -26.5t44.5 -23t13 -14.5t-13 -14t-45 -22.5t-54 -26.5q-147 -82 -254 -158t-144 -111t-39 -35q-8 0 -17 6.5t-9 14.5z" />
<glyph unicode="&#x20ac;" d="M41 504l20 94h95q-2 27 -2 78q0 57 2 88h-115l20 94h105q14 115 47 216.5t89 191.5t145.5 143t203.5 53q70 0 124 -18.5t85 -35.5t41 -17q18 0 41 17t37 17t14 -24q0 -53 9.5 -130t19.5 -133.5t10 -60.5q0 -27 -39 -26q-16 0 -22 16q-41 174 -107.5 258t-181.5 84 q-111 0 -209 -145.5t-125 -405.5h524l-20 -94h-512v-80q0 -57 2 -86h475l-20 -94h-445q29 -211 125 -344t252 -133q150 0 275 114q4 4 8 4q10 0 19 -9t9 -19.5t-6 -16.5q-129 -129 -350 -129q-125 0 -222 48.5t-154.5 130t-91.5 169t-48 185.5h-127z" />
<glyph unicode="&#x2122;" horiz-adv-x="2048" d="M92 1257v203h723v-203h-47q0 84 -33 113t-123 29h-92v-627q0 -66 19.5 -79t109.5 -13v-47h-391v47q90 0 109.5 13.5t19.5 78.5v627h-92q-90 0 -123 -29t-33 -113h-47zM930 633v47q72 2 87 15.5t15 54.5v593q0 74 -55 74h-31v43h246l254 -600l256 600h254v-43h-43 q-57 0 -58 -74v-565q0 -63 16.5 -78.5t84.5 -19.5v-47h-340v47q70 2 88 17.5t18 78.5v590h-4l-301 -733h-18l-307 733h-5v-616q0 -41 15.5 -54.5t87.5 -15.5v-47h-260z" />
<glyph unicode="&#xe000;" horiz-adv-x="885" d="M0 885h885v-885h-885v885z" />
<glyph unicode="&#xfb01;" horiz-adv-x="1175" d="M51 817q0 23 64 35q66 14 84 31.5t22 83.5q16 236 172 399.5t395 163.5q35 0 74 -8.5t78 -35t39 -67.5q0 -47 -30.5 -73.5t-76.5 -26.5q-63 0 -109 28.5t-78 58.5t-60.5 30t-54 -7.5t-59.5 -34t-58.5 -70.5t-42 -129t-17.5 -200v-121h348q51 0 102.5 19.5t86.5 38 t41 18.5q12 0 12 -22v-6q-2 -8 -3 -25.5t-3 -46.5t-3 -86t-1 -131v-443q0 -92 14 -116.5t80 -24.5q35 0 42 -4t7 -22q0 -27 -20 -27h-17q-16 2 -55 3t-98 1q-84 0 -146.5 -1t-92.5 -2t-38 -1q-16 0 -16 22q0 20 11 25.5t67 5.5q63 0 84 49q12 29 12 295v281q0 70 -38 98.5 t-79 28.5h-297v-631q0 -37 2 -52.5t11.5 -35t31 -26.5t58.5 -7q35 0 44 -4t9 -20q0 -18 -6 -23.5t-25 -5.5q-14 0 -81.5 2t-121.5 2q-72 0 -122 -1t-70.5 -2t-24.5 -1q-18 0 -18 27q0 16 7 21t36 5q66 0 85 19.5t19 85.5v571q0 66 -39 66h-112q-8 0 -12.5 1t-8.5 7t-4 18z " />
<glyph unicode="&#xfb02;" horiz-adv-x="1175" d="M51 817q0 23 64 35q66 14 84 31.5t22 83.5q16 240 97 369.5t257 176.5q66 16 125 17q86 0 113 -41q29 8 66 22l61 25q25 10 31 10q12 0 12 -22v-8q-2 -6 -3 -23.5t-3 -46.5t-3 -86t-1 -131v-1039q0 -92 14 -116.5t80 -24.5q41 0 50 -4t9 -22q0 -27 -20 -27h-16 q-16 2 -58.5 3t-105.5 1q-86 0 -146.5 -1t-88 -2t-32.5 -1q-16 0 -16 22q0 20 11.5 25.5t66.5 5.5q53 0 74 49q12 29 12 377v326h-414v-631q0 -37 2 -52.5t11.5 -35t31 -26.5t58.5 -7q35 0 44 -4t9 -20q0 -18 -6 -23.5t-25 -5.5q-14 0 -81.5 2t-121.5 2q-72 0 -122 -1 t-70.5 -2t-24.5 -1q-18 0 -18 27q0 16 7 21t36 5q66 0 85 19.5t19 85.5v571q0 66 -39 66h-112q-8 0 -12.5 1t-8.5 7t-4 18zM393 874h414v490l-4 4q-20 -27 -70 -27q-55 0 -112.5 47.5t-90.5 47.5q-137 0 -137 -297v-265z" />
<glyph unicode="&#xfb03;" horiz-adv-x="1859" d="M1317 18q0 20 11 25.5t66 5.5q63 0 84 49q12 29 13 295v281q0 59 -24.5 86.5t-96.5 36.5q-18 2 -19 24q0 25 17 29q80 16 139 35.5t84 33.5l41 22q16 9 23 9q12 0 12 -22v-6q-2 -8 -3 -25.5t-3 -46.5t-3 -86t-1 -131v-443q0 -92 14 -116.5t80 -24.5q35 0 42 -4t7 -22 q0 -27 -21 -27h-16q-16 2 -55 3t-99 1q-84 0 -146 -1t-92 -2t-38 -1q-16 -1 -16 22zM1466 1343q0 43 31 76t76 33t75.5 -33t30.5 -76t-30.5 -75.5t-75.5 -32.5t-76 32.5t-31 75.5zM696 817q0 23 64 35q66 14 84 31.5t22 83.5q16 240 97 369.5t257 176.5q66 16 125 17 q49 0 89 -21.5t40 -66.5t-25.5 -73t-70.5 -28q-55 0 -112.5 47.5t-90.5 47.5q-137 0 -137 -297v-265h254q20 0 21 -43q0 -51 -56 -51q-2 0 -96 5.5t-123 5.5v-621q0 -37 2 -52.5t11.5 -35t31 -26.5t58.5 -7q57 0 70.5 -4t13.5 -20q0 -18 -6.5 -23.5t-24.5 -5.5 q-35 0 -109.5 2t-124.5 2q-72 0 -122 -1t-70.5 -2t-24.5 -1q-18 0 -18 27q0 16 7 21t36 5q66 0 85 19.5t19 85.5v571q0 66 -39 66h-112q-8 0 -12.5 1t-8.5 7t-4 18zM51 817q0 23 64 35q66 14 84 31.5t22 83.5q16 240 97 369.5t257 176.5q66 16 125 17q49 0 89 -21.5 t40 -66.5t-25.5 -73t-70.5 -28q-55 0 -112.5 47.5t-90.5 47.5q-137 0 -137 -297v-265h254q20 0 21 -43q0 -51 -56 -51q-2 0 -96 5.5t-123 5.5v-621q0 -37 2 -52.5t11.5 -35t31 -26.5t58.5 -7q57 0 70.5 -4t13.5 -20q0 -18 -6.5 -23.5t-24.5 -5.5q-35 0 -109.5 2t-124.5 2 q-72 0 -122 -1t-70.5 -2t-24.5 -1q-18 0 -18 27q0 16 7 21t36 5q66 0 85 19.5t19 85.5v571q0 66 -39 66h-112q-8 0 -12.5 1t-8.5 7t-4 18z" />
<glyph unicode="&#xfb04;" horiz-adv-x="1859" d="M1327 18q0 20 11 25.5t67 5.5q53 0 73 49q12 29 13 377v717q0 137 -18.5 171t-100.5 42q-18 4 -19 25q0 25 17 28q72 12 139.5 35t103 38t42.5 15q12 0 12 -22v-8q-2 -6 -3 -23.5t-3 -46.5t-3 -86t-1 -131v-1039q0 -92 14 -116.5t80 -24.5q41 0 50 -4t9 -22 q0 -27 -20 -27h-17q-16 2 -58 3t-106 1q-84 0 -145 -1t-89 -2t-32 -1q-16 -1 -16 22zM696 817q0 23 64 35q66 14 84 31.5t22 83.5q16 240 97 369.5t257 176.5q66 16 125 17q49 0 89 -21.5t40 -66.5t-25.5 -73t-70.5 -28q-55 0 -112.5 47.5t-90.5 47.5q-137 0 -137 -297v-265 h254q20 0 21 -43q0 -51 -56 -51q-2 0 -96 5.5t-123 5.5v-621q0 -37 2 -52.5t11.5 -35t31 -26.5t58.5 -7q57 0 70.5 -4t13.5 -20q0 -18 -6.5 -23.5t-24.5 -5.5q-35 0 -109.5 2t-124.5 2q-72 0 -122 -1t-70.5 -2t-24.5 -1q-18 0 -18 27q0 16 7 21t36 5q66 0 85 19.5t19 85.5 v571q0 66 -39 66h-112q-8 0 -12.5 1t-8.5 7t-4 18zM51 817q0 23 64 35q66 14 84 31.5t22 83.5q16 240 97 369.5t257 176.5q66 16 125 17q49 0 89 -21.5t40 -66.5t-25.5 -73t-70.5 -28q-55 0 -112.5 47.5t-90.5 47.5q-137 0 -137 -297v-265h254q20 0 21 -43q0 -51 -56 -51 q-2 0 -96 5.5t-123 5.5v-621q0 -37 2 -52.5t11.5 -35t31 -26.5t58.5 -7q57 0 70.5 -4t13.5 -20q0 -18 -6.5 -23.5t-24.5 -5.5q-35 0 -109.5 2t-124.5 2q-72 0 -122 -1t-70.5 -2t-24.5 -1q-18 0 -18 27q0 16 7 21t36 5q66 0 85 19.5t19 85.5v571q0 66 -39 66h-112 q-8 0 -12.5 1t-8.5 7t-4 18z" />
</font>
</defs>
</svg>
